<?xml version="1.0" encoding="UTF-8"?>
<svg version="1.1" xmlns="http://www.w3.org/2000/svg" width="512" height="512">
<path d="M0 0 C12.25580415 10.92966868 23.71915492 22.49662414 33.31347656 35.84741211 C33.91651611 36.66798096 33.91651611 36.66798096 34.53173828 37.50512695 C51.91416257 61.34048818 63.33806407 89.06468393 69.31347656 117.84741211 C69.4771875 118.59555176 69.64089844 119.34369141 69.80957031 120.11450195 C80.73354281 171.99208624 68.01402769 229.18789718 39.31347656 273.22241211 C31.72164641 284.14612763 23.51409118 294.25326987 14.31347656 303.84741211 C13.80945313 304.37866699 13.30542969 304.90992188 12.78613281 305.45727539 C4.88386514 313.75120782 -3.42899721 321.09953338 -12.68652344 327.84741211 C-13.51579346 328.45915283 -13.51579346 328.45915283 -14.36181641 329.08325195 C-38.19312935 346.45515359 -65.91339807 357.8739932 -94.68652344 363.84741211 C-95.43466309 364.01112305 -96.18280273 364.17483398 -96.95361328 364.34350586 C-121.82908449 369.58158637 -151.89599899 369.42941771 -176.68652344 363.84741211 C-178.04173096 363.54939697 -178.04173096 363.54939697 -179.42431641 363.24536133 C-209.50397964 356.44496329 -238.37327122 344.0188309 -262.68652344 324.84741211 C-263.27900879 324.38044922 -263.87149414 323.91348633 -264.48193359 323.43237305 C-279.54214737 311.3758236 -293.42185844 297.52253324 -304.68652344 281.84741211 C-305.0885498 281.30036621 -305.49057617 280.75332031 -305.90478516 280.18969727 C-321.2662781 259.12550466 -331.97636993 234.88514865 -338.49902344 209.72241211 C-338.77359375 208.66993286 -338.77359375 208.66993286 -339.05371094 207.59619141 C-342.89952578 191.595109 -344.24294633 175.57277867 -344.12402344 159.15991211 C-344.12064972 158.2477594 -344.117276 157.33560669 -344.11380005 156.39581299 C-343.8054707 98.58752771 -319.72944095 47.40740524 -279.11010742 6.96826172 C-272.68606781 0.69896645 -265.97097311 -4.91773933 -258.68652344 -10.15258789 C-258.13947754 -10.55461426 -257.59243164 -10.95664063 -257.02880859 -11.37084961 C-233.19344737 -28.7532739 -205.46925162 -40.1771754 -176.68652344 -46.15258789 C-175.56431396 -46.3981543 -175.56431396 -46.3981543 -174.41943359 -46.64868164 C-113.76158038 -59.42153392 -46.42517048 -40.3296827 0 0 Z M-241.68652344 18.84741211 C-242.22148437 19.26958008 -242.75644531 19.69174805 -243.30761719 20.12670898 C-280.42057225 49.71917315 -304.71058261 91.37868828 -310.47610474 138.71974182 C-310.80923482 142.08822081 -310.86794955 145.45399352 -310.88964844 148.83569336 C-310.89670807 149.57216095 -310.9037677 150.30862854 -310.91104126 151.06741333 C-311.1793983 173.63132225 -311.1793983 173.63132225 -307.68652344 195.84741211 C-307.48784668 196.67128418 -307.28916992 197.49515625 -307.08447266 198.34399414 C-299.13251154 230.45562138 -283.59643397 258.08519836 -260.68652344 281.84741211 C-259.92339844 282.67370117 -259.16027344 283.49999023 -258.37402344 284.35131836 C-226.85375893 317.52213726 -181.51832762 333.11761354 -136.68652344 334.84741211 C-90.00444571 335.66668926 -45.90324358 315.87271474 -12.68652344 283.84741211 C-11.86023438 283.08428711 -11.03394531 282.32116211 -10.18261719 281.53491211 C18.32854535 254.44244305 37.85085448 212.35145503 39.47460938 172.93603516 C39.49409427 171.57713466 39.50788138 170.21814307 39.51660156 168.85913086 C39.52719101 167.75442947 39.52719101 167.75442947 39.53799438 166.62741089 C39.80635143 144.06350197 39.80635143 144.06350197 36.31347656 121.84741211 C36.1147998 121.02354004 35.91612305 120.19966797 35.71142578 119.35083008 C27.75946467 87.23920284 12.2233871 59.60962586 -10.68652344 35.84741211 C-11.83121094 34.60797852 -11.83121094 34.60797852 -12.99902344 33.34350586 C-44.83760572 -0.16229948 -89.63960533 -14.82843901 -134.68652344 -17.15258789 C-172.93321036 -17.15258789 -211.61985369 -5.05078854 -241.68652344 18.84741211 Z " fill="#000000" transform="translate(391.6865234375,97.152587890625)"/>
<path d="M0 0 C10.6425 -0.0825 21.285 -0.165 32.25 -0.25 C35.58641602 -0.28641602 38.92283203 -0.32283203 42.36035156 -0.36035156 C45.03710285 -0.37204595 47.71386131 -0.382236 50.390625 -0.390625 C51.06913513 -0.40107849 51.74764526 -0.41153198 52.44671631 -0.42230225 C69.1589194 -0.66647325 81.89498327 4.13327452 94.1875 15.5625 C108.73018555 30.79879535 112.53208802 49.49618096 112.2734375 69.88671875 C111.73503797 87.27275902 104.29527062 101.88132214 92 114 C91.43667969 114.57363281 90.87335938 115.14726562 90.29296875 115.73828125 C82.02284791 123.52547532 70.44920289 128.2704384 59.14672852 128.22705078 C58.16415652 128.22741239 58.16415652 128.22741239 57.16173458 128.2277813 C55.06731423 128.22630324 52.97326188 128.21114105 50.87890625 128.1953125 C48.94331848 128.19229126 48.94331848 128.19229126 46.96862793 128.18920898 C42.16654892 128.17877612 37.36452074 128.1508536 32.5625 128.125 C21.816875 128.08375 11.07125 128.0425 0 128 C0 85.76 0 43.52 0 0 Z M32 32 C32 53.12 32 74.24 32 96 C53.66068418 97.32502513 53.66068418 97.32502513 71.20703125 88.1015625 C79.03647855 78.92456327 79.68123702 68.55811245 79.17041016 57.03808594 C78.43854647 48.28508016 73.30282645 41.76641569 67 36 C56.34955022 29.31736484 44.55764358 32 32 32 Z " fill="#000000" transform="translate(272,192)"/>
<path d="M0 0 C11.9625 -0.0825 23.925 -0.165 36.25 -0.25 C40.00407227 -0.28641602 43.75814453 -0.32283203 47.62597656 -0.36035156 C52.26904297 -0.37841797 52.26904297 -0.37841797 54.45404053 -0.3817749 C55.95522834 -0.38785089 57.45639869 -0.40177879 58.9574585 -0.42230225 C75.41790619 -0.63578421 87.48593923 2.93402786 99.75 14.3125 C109.74291038 24.87104681 112.51439781 36.41827923 112.41967773 50.53027344 C112.00889743 64.65266239 106.162881 75.72865726 95.9375 85.40625 C86.3625009 93.28245894 76.1168531 96.51227336 63.8359375 96.29296875 C62.91785309 96.28872391 61.99976868 96.28447906 61.05386353 96.28010559 C58.16059322 96.26349497 55.2680549 96.22587775 52.375 96.1875 C50.39714557 96.17243032 48.41928008 96.15874595 46.44140625 96.14648438 C41.62710463 96.11621844 36.81435837 96.05746582 32 96 C32 106.56 32 117.12 32 128 C21.44 128 10.88 128 0 128 C0 85.76 0 43.52 0 0 Z M32 32 C32 42.56 32 53.12 32 64 C37.094375 64.061875 42.18875 64.12375 47.4375 64.1875 C49.82053345 64.22846802 49.82053345 64.22846802 52.25170898 64.27026367 C64.21839788 64.65316619 64.21839788 64.65316619 74.60327148 59.54736328 C78.6961669 54.82990962 79.35589621 51.59632986 79.27734375 45.5390625 C78.86623556 41.77539598 77.5171364 39.78209813 75 37 C68.91236094 32.20760329 64.09681256 31.87212425 56.51171875 31.90234375 C54.58138794 31.90609009 54.58138794 31.90609009 52.61206055 31.90991211 C50.17440308 31.92356812 50.17440308 31.92356812 47.6875 31.9375 C42.510625 31.958125 37.33375 31.97875 32 32 Z " fill="#000000" transform="translate(144,192)"/>
</svg>
