<?xml version="1.0" standalone="no"?>
<!DOCTYPE svg PUBLIC "-//W3C//DTD SVG 20010904//EN"
 "http://www.w3.org/TR/2001/REC-SVG-20010904/DTD/svg10.dtd">
<svg version="1.0" xmlns="http://www.w3.org/2000/svg"
 width="840.000000pt" height="859.000000pt" viewBox="0 0 840.000000 859.000000"
 preserveAspectRatio="xMidYMid meet">

<g transform="translate(0.000000,859.000000) scale(0.100000,-0.100000)"
fill="#000000" stroke="none">
<path d="M905 5923 c-16 -3 -34 -9 -39 -14 -6 -5 -16 -9 -23 -9 -19 0 -83 -66
-83 -85 0 -8 -4 -15 -10 -15 -5 0 -10 -13 -10 -30 0 -16 -4 -30 -10 -30 -7 0
-10 -488 -10 -1445 0 -957 3 -1445 10 -1445 6 0 10 -13 10 -30 0 -16 5 -30 10
-30 6 0 10 -7 10 -15 0 -19 64 -85 83 -85 7 0 19 -6 25 -12 17 -17 5519 -24
5708 -8 152 12 203 20 210 31 3 5 21 9 40 9 19 0 34 5 34 10 0 6 14 10 30 10
17 0 30 5 30 10 0 6 9 10 20 10 11 0 20 5 20 10 0 6 11 10 25 10 14 0 25 3 25
8 0 4 15 13 33 21 40 17 137 80 157 101 8 9 31 27 50 40 39 27 150 136 150
148 0 4 9 14 20 22 11 8 20 20 20 27 0 7 4 13 8 13 5 0 15 12 23 28 8 15 17
29 21 32 10 8 112 211 126 251 7 19 12 45 12 57 0 12 5 22 10 22 6 0 10 18 10
40 0 22 5 40 10 40 6 0 10 32 10 75 0 43 4 75 10 75 7 0 10 182 10 525 0 343
-3 525 -10 525 -6 0 -10 32 -10 75 0 43 -4 75 -10 75 -5 0 -10 18 -10 40 0 22
-4 40 -10 40 -5 0 -10 10 -10 22 0 12 -5 38 -12 57 -14 40 -116 243 -126 251
-4 3 -13 17 -21 33 -8 15 -18 27 -23 27 -4 0 -8 6 -8 13 0 7 -9 19 -20 27 -11
8 -20 18 -20 22 0 12 -111 121 -150 148 -19 13 -42 31 -50 40 -20 21 -117 84
-157 101 -18 8 -33 17 -33 21 0 5 -11 8 -25 8 -14 0 -25 5 -25 10 0 6 -9 10
-20 10 -11 0 -20 5 -20 10 0 6 -13 10 -30 10 -16 0 -30 5 -30 10 0 6 -16 10
-35 10 -19 0 -35 4 -35 9 0 10 -40 16 -185 30 -88 9 -5640 12 -5700 4z m2789
-79 c3 -9 6 -487 6 -1064 0 -1030 0 -1049 21 -1146 12 -55 24 -111 26 -126 3
-16 9 -28 14 -28 5 0 9 -11 9 -24 0 -14 4 -28 10 -31 6 -3 10 -15 10 -26 0
-10 5 -19 10 -19 6 0 10 -9 10 -19 0 -11 5 -23 10 -26 6 -3 10 -15 10 -26 0
-10 5 -19 10 -19 6 0 10 -8 10 -18 0 -10 9 -24 20 -32 11 -8 20 -20 20 -28 0
-7 11 -24 25 -38 14 -14 25 -29 25 -33 0 -21 213 -223 290 -274 47 -32 90 -62
97 -67 7 -6 19 -10 28 -10 8 0 15 -4 15 -10 0 -5 11 -10 25 -10 14 0 25 -4 25
-10 0 -5 7 -10 15 -10 8 0 15 -4 15 -10 0 -7 -597 -10 -1770 -10 -1173 0
-1770 3 -1770 10 0 6 -9 10 -20 10 -11 0 -20 4 -20 8 0 5 -11 15 -25 22 -14 7
-25 22 -25 32 0 10 -4 18 -10 18 -7 0 -10 495 -10 1465 0 970 3 1465 10 1465
6 0 10 6 10 13 0 18 55 67 75 67 8 0 15 5 15 10 0 7 470 10 1389 10 1257 0
1389 -1 1395 -16z m2926 6 c0 -5 25 -10 55 -10 30 0 55 -4 55 -10 0 -5 18 -10
40 -10 22 0 40 -4 40 -10 0 -5 11 -10 24 -10 14 0 28 -4 31 -10 3 -5 17 -10
31 -10 13 0 24 -4 24 -10 0 -5 9 -10 20 -10 11 0 20 -4 20 -10 0 -5 7 -10 15
-10 18 0 128 -68 133 -81 2 -5 10 -9 18 -9 8 0 33 -18 55 -40 23 -22 46 -40
53 -41 6 0 36 -29 66 -65 30 -35 67 -78 82 -95 15 -16 30 -39 33 -50 4 -10 11
-19 16 -19 5 0 9 -9 9 -20 0 -11 5 -20 10 -20 6 0 10 -7 10 -15 0 -8 3 -15 8
-15 8 0 32 -49 32 -67 0 -7 5 -13 10 -13 6 0 10 -6 10 -12 0 -7 11 -40 24 -73
25 -63 38 -106 55 -193 15 -73 15 -1161 0 -1234 -6 -29 -15 -71 -21 -93 -20
-80 -94 -256 -110 -263 -5 -2 -8 -10 -8 -18 0 -8 -4 -14 -10 -14 -5 0 -10 -9
-10 -20 0 -11 -4 -20 -9 -20 -5 0 -12 -9 -16 -19 -3 -11 -18 -34 -33 -50 -15
-17 -52 -60 -82 -95 -30 -36 -60 -65 -66 -65 -7 -1 -30 -19 -53 -41 -22 -22
-47 -40 -55 -40 -8 0 -16 -4 -18 -9 -5 -13 -115 -81 -133 -81 -8 0 -15 -4 -15
-10 0 -5 -9 -10 -20 -10 -11 0 -20 -4 -20 -10 0 -5 -11 -10 -25 -10 -14 0 -25
-4 -25 -10 0 -5 -13 -10 -30 -10 -16 0 -30 -4 -30 -10 0 -5 -18 -10 -40 -10
-22 0 -40 -4 -40 -10 0 -5 -25 -10 -55 -10 -30 0 -55 -4 -55 -10 0 -7 -318
-10 -935 -10 -617 0 -935 3 -935 10 0 6 -22 10 -50 10 -27 0 -50 5 -50 10 0 6
-16 10 -35 10 -19 0 -35 5 -35 10 0 6 -11 10 -25 10 -14 0 -33 4 -43 9 -9 5
-28 13 -42 19 -50 20 -140 67 -140 73 0 4 -13 12 -30 19 -16 7 -30 16 -30 21
0 5 -7 9 -15 9 -8 0 -15 5 -15 10 0 6 -7 10 -15 10 -8 0 -15 5 -15 10 0 6 -5
10 -10 10 -11 0 -160 145 -160 155 0 3 -10 17 -22 30 -38 40 -48 53 -60 80 -6
14 -15 25 -20 25 -4 0 -8 6 -8 13 0 6 -9 23 -20 37 -11 14 -20 33 -20 43 0 9
-4 17 -10 17 -5 0 -10 9 -10 20 0 11 -4 20 -10 20 -5 0 -10 14 -10 30 0 17 -4
30 -10 30 -5 0 -10 11 -10 25 0 14 -4 25 -10 25 -5 0 -10 15 -10 33 0 18 -4
37 -9 43 -20 21 -24 163 -27 1187 l-4 1067 1425 0 c943 0 1425 -3 1425 -10z"/>
<path d="M2330 5541 c0 -9 -63 -118 -80 -138 -5 -7 -15 -24 -22 -38 -6 -14
-15 -25 -20 -25 -4 0 -8 -9 -8 -20 0 -11 -4 -20 -10 -20 -5 0 -10 -7 -10 -15
0 -8 -4 -15 -10 -15 -5 0 -10 -9 -10 -20 0 -11 -4 -20 -10 -20 -5 0 -10 -7
-10 -15 0 -8 -4 -15 -10 -15 -5 0 -10 -7 -10 -15 0 -8 -4 -15 -10 -15 -5 0
-10 -9 -10 -19 0 -11 -3 -21 -8 -23 -11 -5 -82 -115 -82 -127 0 -6 -4 -11 -10
-11 -5 0 -10 -7 -10 -15 0 -8 -4 -15 -10 -15 -5 0 -10 -9 -10 -20 0 -11 -4
-20 -10 -20 -5 0 -10 -8 -10 -18 0 -10 -9 -24 -20 -32 -11 -8 -20 -22 -20 -32
0 -10 -4 -18 -10 -18 -5 0 -10 -4 -10 -9 0 -9 -63 -118 -80 -138 -5 -7 -15
-24 -22 -38 -6 -14 -15 -25 -20 -25 -4 0 -8 -9 -8 -20 0 -11 -4 -20 -10 -20
-5 0 -10 -7 -10 -15 0 -8 -4 -15 -10 -15 -5 0 -10 -7 -10 -15 0 -8 -4 -15 -10
-15 -5 0 -10 -9 -10 -21 0 -11 -4 -17 -10 -14 -5 3 -10 -3 -10 -14 0 -12 -4
-21 -10 -21 -5 0 -10 -7 -10 -15 0 -9 -9 -25 -20 -37 -11 -12 -20 -28 -20 -35
0 -7 -4 -13 -10 -13 -5 0 -10 -5 -10 -10 0 -12 -52 -94 -62 -98 -5 -2 -8 -11
-8 -21 0 -9 -9 -23 -20 -31 -11 -8 -20 -22 -20 -32 0 -10 -4 -18 -10 -18 -5 0
-10 -9 -10 -20 0 -11 -4 -20 -10 -20 -5 0 -10 -7 -10 -15 0 -8 -4 -15 -9 -15
-5 0 -11 -8 -14 -17 -5 -17 -33 -65 -50 -88 -11 -14 -76 -123 -100 -167 -11
-21 -24 -38 -29 -38 -4 0 -8 -9 -8 -19 0 -11 -6 -21 -12 -23 -17 -6 14 -38 36
-38 9 0 16 -4 16 -10 0 -5 9 -10 19 -10 11 0 23 -4 26 -10 3 -5 17 -10 31 -10
13 0 32 -4 42 -9 33 -18 162 -31 304 -31 129 1 238 12 398 41 30 5 72 12 93
15 20 4 40 10 43 15 3 5 21 9 40 9 19 0 34 5 34 10 0 6 14 10 30 10 17 0 30 5
30 10 0 6 13 10 29 10 17 0 33 5 36 10 3 6 24 10 45 10 21 0 42 5 45 10 3 6
28 10 54 10 26 0 52 5 59 12 18 18 494 18 499 1 3 -8 23 -13 53 -13 27 0 52
-4 55 -10 3 -5 19 -10 36 -10 16 0 29 -4 29 -10 0 -5 14 -10 30 -10 17 0 30
-4 30 -10 0 -5 5 -10 10 -10 6 0 10 9 10 20 0 11 -4 20 -10 20 -5 0 -10 9 -10
20 0 11 -4 20 -10 20 -5 0 -10 9 -10 20 0 11 -4 20 -8 20 -5 0 -14 16 -22 35
-8 19 -17 35 -22 35 -4 0 -8 7 -8 16 0 22 -25 44 -49 44 -12 0 -21 5 -21 10 0
6 -27 10 -60 10 -33 0 -60 4 -60 10 0 6 -77 10 -210 10 -133 0 -210 -4 -210
-10 0 -6 -28 -10 -65 -10 -37 0 -65 -4 -65 -10 0 -5 -20 -10 -45 -10 -25 0
-45 -4 -45 -10 0 -5 -16 -10 -35 -10 -19 0 -35 -4 -35 -10 0 -5 -16 -10 -35
-10 -19 0 -35 -4 -35 -10 0 -5 -13 -10 -29 -10 -17 0 -32 -4 -35 -9 -3 -5 -23
-11 -43 -14 -21 -3 -81 -14 -133 -25 -52 -11 -125 -25 -161 -31 -69 -11 -366
-15 -392 -5 -13 5 -10 15 16 62 17 31 35 62 41 69 31 35 36 43 36 58 0 8 5 15
10 15 6 0 10 7 10 15 0 8 5 15 10 15 6 0 10 9 10 20 0 11 5 20 10 20 6 0 10 7
10 15 0 8 5 15 10 15 6 0 10 7 10 15 0 8 5 15 10 15 6 0 10 9 10 20 0 11 4 20
9 20 5 0 14 14 21 30 7 17 16 30 21 30 5 0 9 4 9 9 0 12 70 131 87 149 6 6 15
21 18 32 3 11 11 20 16 20 5 0 9 9 9 20 0 11 5 20 10 20 6 0 10 7 10 15 0 8 4
15 8 15 5 0 14 16 22 35 8 19 17 35 22 35 4 0 8 7 8 15 0 8 5 15 10 15 6 0 10
9 10 20 0 11 4 20 9 20 5 0 14 14 21 30 7 17 15 30 19 30 4 0 20 25 36 55 15
30 32 55 37 55 4 0 8 9 8 20 0 11 5 20 10 20 6 0 10 8 10 18 0 10 9 24 20 32
11 8 20 22 20 32 0 10 5 18 10 18 6 0 10 4 10 9 0 11 59 109 76 128 6 6 17 25
24 42 l13 31 18 -22 c10 -13 23 -28 29 -35 5 -7 10 -19 10 -28 0 -8 5 -15 10
-15 6 0 10 -9 10 -20 0 -11 5 -20 10 -20 6 0 10 -7 10 -15 0 -8 5 -15 10 -15
6 0 10 -9 10 -20 0 -11 5 -20 10 -20 6 0 10 -7 10 -15 0 -9 5 -21 10 -28 23
-26 80 -122 80 -134 0 -7 4 -13 9 -13 5 0 11 -8 14 -17 8 -24 40 -77 50 -81 4
-2 7 -12 7 -23 0 -10 5 -19 10 -19 6 0 10 -9 10 -20 0 -11 5 -20 10 -20 6 0
10 -7 10 -15 0 -8 5 -15 10 -15 6 0 10 -9 10 -19 0 -11 3 -21 8 -23 4 -1 18
-23 31 -48 14 -25 27 -47 31 -50 12 -9 60 -103 60 -116 0 -8 5 -14 12 -14 6 0
9 -2 7 -4 -2 -3 -38 -7 -79 -11 -41 -3 -100 -10 -130 -15 -30 -5 -71 -12 -90
-15 -19 -4 -54 -9 -77 -12 -24 -3 -43 -9 -43 -14 0 -5 -13 -9 -30 -9 -16 0
-30 -4 -30 -10 0 -5 -16 -10 -35 -10 -19 0 -35 -4 -35 -10 0 -5 -16 -10 -35
-10 -19 0 -35 -4 -35 -10 0 -5 -17 -10 -38 -10 -21 0 -42 -4 -48 -9 -9 -9 -34
-13 -169 -31 -182 -23 -174 -21 -197 -54 -12 -17 -26 -32 -30 -34 -4 -2 -8
-12 -8 -23 0 -10 -4 -19 -10 -19 -5 0 -10 -8 -10 -18 0 -10 -9 -24 -20 -32
-11 -8 -20 -23 -20 -34 0 -18 5 -18 88 -11 82 6 179 17 300 31 28 3 52 10 52
15 0 5 20 9 44 9 25 0 48 5 51 10 3 6 19 10 35 10 16 0 32 5 35 10 3 6 19 10
35 10 16 0 31 4 34 9 3 5 18 11 33 14 16 2 53 12 83 20 133 37 244 50 420 51
99 0 203 -6 239 -13 34 -7 65 -11 67 -8 6 5 -20 57 -28 57 -5 0 -8 9 -8 20 0
11 -4 20 -10 20 -5 0 -10 7 -10 15 0 9 -9 25 -20 37 -11 12 -20 28 -20 35 0 7
-4 13 -10 13 -5 0 -10 9 -10 20 0 11 -4 20 -10 20 -5 0 -10 4 -10 9 0 9 -63
118 -80 138 -5 7 -10 19 -10 28 0 8 -4 15 -8 15 -5 0 -14 16 -22 35 -8 19 -17
35 -22 35 -4 0 -8 9 -8 20 0 11 -4 20 -10 20 -5 0 -10 8 -10 18 0 10 -9 24
-20 32 -11 8 -20 22 -20 32 0 10 -4 18 -10 18 -5 0 -10 9 -10 19 0 11 -4 21
-8 23 -10 4 -82 125 -82 139 0 5 -4 9 -10 9 -5 0 -10 9 -10 20 0 11 -4 20 -10
20 -5 0 -10 7 -10 15 0 8 -4 15 -10 15 -5 0 -10 7 -10 15 0 8 -4 15 -10 15 -5
0 -10 9 -10 20 0 11 -4 20 -10 20 -5 0 -10 7 -10 15 0 8 -4 15 -10 15 -5 0
-10 9 -10 20 0 11 -4 20 -10 20 -5 0 -10 9 -10 19 0 11 -3 21 -8 23 -9 4 -82
126 -82 139 0 5 -4 9 -10 9 -5 0 -10 9 -10 20 0 11 -4 20 -9 20 -5 0 -14 14
-21 30 -7 17 -16 30 -21 30 -5 0 -9 9 -9 20 0 11 -4 20 -10 20 -5 0 -10 9 -10
20 0 11 -4 20 -10 20 -5 0 -10 7 -10 15 0 8 -4 15 -10 15 -5 0 -10 8 -10 18 0
9 -9 23 -20 30 -11 7 -20 8 -20 3z"/>
<path d="M1213 3425 c-7 -8 -13 -23 -13 -34 0 -27 44 -39 65 -18 19 19 19 34
1 53 -18 18 -37 17 -53 -1z"/>
<path d="M1363 3425 c-7 -8 -13 -19 -13 -25 0 -15 25 -40 40 -40 15 0 40 25
40 40 0 16 -26 40 -42 40 -7 -1 -19 -7 -25 -15z"/>
<path d="M930 3270 c0 -17 7 -20 40 -20 l40 0 0 -115 0 -115 30 0 30 0 0 99
c0 55 3 106 6 115 4 11 19 16 45 16 32 0 39 3 39 20 0 19 -7 20 -115 20 -108
0 -115 -1 -115 -20z"/>
<path d="M1200 3185 c0 -63 4 -105 10 -105 6 0 10 -7 10 -16 0 -29 54 -64 100
-64 30 0 59 12 93 39 14 12 17 32 17 133 l0 118 -30 0 -30 0 0 -103 c0 -112
-6 -127 -52 -127 -39 0 -48 25 -48 134 l0 96 -35 0 -35 0 0 -105z"/>
<path d="M1490 3271 c0 -12 5 -21 10 -21 6 0 10 -13 10 -30 0 -16 4 -30 8 -30
4 0 14 -21 21 -47 30 -103 41 -123 70 -123 33 0 51 17 51 46 0 13 5 26 10 29
6 3 10 17 10 31 0 13 5 24 10 24 6 0 10 19 10 43 0 31 3 38 10 27 7 -11 10 -8
10 16 0 16 5 35 12 42 9 9 3 12 -30 12 l-42 0 0 -40 c0 -22 -4 -40 -10 -40 -5
0 -10 -13 -10 -30 0 -16 -4 -30 -9 -30 -5 0 -12 -10 -16 -22 -6 -20 -8 -17
-20 22 -41 140 -39 135 -73 138 -27 3 -32 0 -32 -17z"/>
<path d="M1870 3155 l0 -135 30 0 c30 0 30 1 30 55 0 53 1 55 28 55 46 0 72
-25 72 -71 0 -38 1 -39 36 -39 l36 0 -5 43 c-3 23 -9 57 -12 75 -5 21 -3 32 4
32 6 0 11 17 11 38 0 27 -7 45 -23 60 -20 19 -35 22 -115 22 l-92 0 0 -135z
m166 81 c35 -35 8 -66 -58 -66 l-48 0 0 40 0 40 46 0 c26 0 52 -6 60 -14z"/>
<path d="M2140 3155 c0 -128 1 -135 20 -135 17 0 20 7 20 50 0 28 5 50 10 50
6 0 10 11 10 24 0 14 7 25 18 28 36 10 42 -2 42 -78 l0 -74 35 0 35 0 0 64 c0
72 -15 126 -36 126 -8 0 -14 5 -14 10 0 6 -13 10 -30 10 -16 0 -30 -4 -30 -10
0 -5 -9 -10 -20 -10 -17 0 -20 7 -20 40 0 33 -3 40 -20 40 -19 0 -20 -7 -20
-135z"/>
<path d="M2580 3270 c0 -16 7 -20 30 -20 23 0 30 4 30 20 0 16 -7 20 -30 20
-23 0 -30 -4 -30 -20z"/>
<path d="M2910 3155 l0 -135 25 0 25 0 0 135 0 135 -25 0 -25 0 0 -135z"/>
<path d="M3580 3250 c0 -22 -4 -40 -10 -40 -5 0 -10 5 -10 10 0 6 -16 10 -35
10 -19 0 -35 -4 -35 -10 0 -5 -6 -10 -13 -10 -15 0 -47 -66 -47 -98 0 -11 5
-24 10 -27 6 -3 10 -13 10 -21 0 -18 24 -44 39 -44 6 0 11 -4 11 -10 0 -5 11
-10 25 -10 14 0 25 5 25 10 0 6 20 10 45 10 l45 0 0 135 0 135 -30 0 c-28 0
-30 -2 -30 -40z m-17 -73 c32 -35 48 -87 27 -87 -5 0 -10 -6 -10 -14 0 -14
-21 -26 -45 -26 -45 0 -61 84 -23 120 25 23 35 25 51 7z"/>
<path d="M2410 3220 c0 -5 -8 -10 -18 -10 -17 0 -42 -58 -42 -100 0 -35 30
-78 67 -98 24 -13 73 -16 73 -4 0 4 10 12 23 17 12 6 23 20 25 33 3 18 -1 22
-22 22 -14 0 -26 -4 -26 -10 0 -11 -39 -13 -64 -4 -9 3 -16 12 -16 20 0 11 16
14 65 14 50 0 67 4 72 16 9 25 -11 78 -35 89 -12 5 -22 13 -22 17 0 5 -18 8
-40 8 -22 0 -40 -4 -40 -10z m66 -44 c27 -28 17 -46 -26 -46 -42 0 -53 17 -27
45 16 18 35 19 53 1z"/>
<path d="M2760 3220 c0 -5 -18 -10 -40 -10 l-40 0 0 -95 c0 -95 0 -95 25 -95
23 0 25 3 25 53 0 89 14 110 63 99 14 -4 17 -16 17 -78 l0 -74 30 0 30 0 0 80
c0 73 -3 83 -25 105 -24 25 -85 35 -85 15z"/>
<path d="M3050 3220 c0 -5 -7 -10 -15 -10 -8 0 -15 -3 -15 -7 0 -5 -3 -18 -6
-30 -5 -19 -2 -23 16 -23 12 0 28 7 37 15 17 18 44 16 50 -2 3 -7 -14 -17 -39
-24 -24 -7 -51 -19 -60 -27 -28 -23 -21 -92 8 -92 8 0 14 -4 14 -10 0 -5 11
-10 24 -10 14 0 28 5 31 10 3 6 24 10 46 10 l39 0 0 95 c0 88 -1 95 -20 95
-11 0 -20 5 -20 10 0 6 -20 10 -45 10 -25 0 -45 -4 -45 -10z m74 -116 c22 -8
20 -23 -6 -45 -28 -25 -54 -24 -61 1 -9 35 28 59 67 44z"/>
<path d="M3310 3220 c0 -5 -20 -10 -45 -10 l-45 0 0 -95 0 -95 30 0 c29 0 30
2 30 44 0 24 3 58 6 75 6 26 11 31 35 31 l29 0 0 -75 0 -75 30 0 30 0 0 91 c0
82 -2 91 -20 96 -11 3 -20 9 -20 14 0 5 -13 9 -30 9 -16 0 -30 -4 -30 -10z"/>
<path d="M2580 3115 l0 -95 30 0 30 0 0 95 0 95 -30 0 -30 0 0 -95z"/>
<path d="M6145 5709 c-112 -18 -125 -22 -125 -30 0 -5 -9 -9 -20 -9 -11 0 -20
-4 -20 -10 0 -5 -6 -10 -13 -10 -18 0 -67 -24 -67 -32 0 -5 -7 -8 -15 -8 -8 0
-24 -8 -36 -17 -38 -32 -119 -112 -119 -118 0 -3 -9 -15 -20 -27 -11 -12 -20
-28 -20 -35 0 -7 -4 -13 -10 -13 -5 0 -10 -9 -10 -20 0 -11 -4 -20 -9 -20 -13
0 -56 -121 -70 -196 -6 -33 -11 -86 -11 -118 0 -55 4 -76 32 -181 14 -50 59
-149 70 -153 4 -2 8 -10 8 -19 0 -8 14 -28 30 -43 17 -15 30 -34 30 -40 0 -13
30 -42 90 -88 19 -15 37 -29 40 -32 3 -3 17 -11 33 -19 15 -8 27 -18 27 -23 0
-4 9 -8 20 -8 11 0 20 -4 20 -10 0 -5 14 -10 30 -10 17 0 30 -4 30 -10 0 -5
18 -10 40 -10 22 0 40 -4 40 -10 0 -6 131 -10 373 -10 l372 0 28 -24 c15 -13
27 -28 27 -35 0 -6 5 -11 10 -11 6 0 10 -13 10 -30 0 -16 -4 -30 -10 -30 -5 0
-10 -6 -10 -14 0 -7 -11 -21 -25 -30 -22 -14 -90 -16 -643 -16 l-619 0 -7
-154 c-3 -85 -3 -213 0 -286 l7 -131 680 3 c533 2 681 6 685 16 2 6 19 12 38
12 19 0 34 5 34 10 0 6 11 10 25 10 14 0 25 5 25 10 0 6 9 10 20 10 11 0 20 5
20 10 0 6 7 10 15 10 8 0 15 5 15 10 0 6 8 10 17 10 20 0 193 175 193 195 0 8
5 15 10 15 6 0 10 9 10 20 0 11 5 20 10 20 6 0 10 9 10 20 0 11 5 20 10 20 6
0 10 11 10 24 0 14 4 27 9 30 11 7 21 69 28 176 5 83 -11 215 -29 235 -4 5 -8
19 -8 32 0 13 -4 23 -10 23 -5 0 -10 9 -10 20 0 11 -4 20 -10 20 -5 0 -10 10
-10 23 0 12 -9 29 -20 37 -11 8 -20 20 -20 27 0 13 -129 143 -142 143 -4 0
-18 11 -32 25 -14 14 -32 25 -41 25 -8 0 -15 5 -15 10 0 6 -9 10 -20 10 -11 0
-20 5 -20 10 0 6 -13 10 -30 10 -16 0 -30 4 -30 9 0 18 -93 24 -462 28 -208 2
-378 7 -378 12 0 5 -8 11 -18 13 -10 3 -28 24 -39 47 -18 36 -19 47 -10 79 13
43 29 62 51 62 9 0 16 5 16 10 0 6 103 10 290 10 l290 0 0 275 0 275 -297 -1
c-164 -1 -320 -6 -348 -10z"/>
<path d="M4735 4930 c-3 -5 -28 -10 -56 -10 -27 0 -49 -4 -49 -10 0 -5 -16
-10 -35 -10 -19 0 -35 -4 -35 -10 0 -5 -13 -10 -30 -10 -16 0 -30 -4 -30 -10
0 -5 -11 -10 -25 -10 -14 0 -25 -4 -25 -10 0 -5 -9 -10 -20 -10 -11 0 -20 -4
-20 -10 0 -5 -9 -10 -20 -10 -11 0 -20 -4 -20 -8 0 -5 -11 -14 -25 -20 -14 -7
-31 -17 -38 -22 -29 -24 -57 -47 -87 -70 -19 -14 -43 -35 -54 -48 -12 -12 -36
-38 -53 -57 -18 -19 -33 -39 -33 -45 0 -5 -4 -10 -10 -10 -5 0 -10 -7 -10 -15
0 -8 -4 -15 -10 -15 -5 0 -10 -7 -10 -15 0 -8 -4 -15 -10 -15 -5 0 -10 -9 -10
-20 0 -11 -4 -20 -8 -20 -4 0 -25 -37 -46 -82 -21 -46 -43 -91 -47 -100 -5
-10 -9 -29 -9 -43 0 -14 -4 -25 -10 -25 -5 0 -10 -15 -10 -34 0 -19 -4 -38
-10 -41 -5 -3 -10 -37 -10 -76 0 -39 -4 -69 -10 -69 -6 0 -10 -37 -10 -90 0
-53 4 -90 10 -90 6 0 10 -30 10 -69 0 -39 5 -73 10 -76 6 -3 10 -21 10 -40 0
-19 4 -36 8 -39 4 -3 14 -28 22 -55 7 -28 17 -51 22 -51 4 0 8 -9 8 -19 0 -11
6 -26 13 -33 7 -7 20 -28 28 -45 7 -18 17 -33 21 -33 5 0 8 -6 8 -14 0 -7 14
-27 30 -44 17 -18 30 -37 30 -43 0 -12 92 -103 160 -158 25 -20 52 -44 61 -53
9 -10 23 -18 30 -18 8 0 21 -9 29 -20 8 -11 22 -20 32 -20 10 0 18 -4 18 -10
0 -5 9 -10 20 -10 11 0 20 -4 20 -10 0 -5 8 -10 18 -10 10 0 23 -5 28 -10 18
-18 174 -73 239 -85 22 -4 217 -9 433 -10 l392 -2 0 689 0 688 -345 0 c-223 0
-345 -4 -345 -10 0 -5 -18 -10 -40 -10 -22 0 -40 -4 -40 -10 0 -5 -10 -10 -23
-10 -29 0 -99 -63 -126 -113 -17 -31 -21 -56 -21 -137 0 -55 4 -102 10 -105 6
-3 10 -13 10 -21 0 -8 4 -20 10 -27 39 -48 70 -77 80 -77 6 0 18 -7 26 -15 9
-8 27 -18 42 -22 15 -3 29 -9 32 -12 3 -4 34 -13 70 -20 36 -7 68 -15 72 -17
11 -7 10 -156 -1 -173 -8 -12 -14 -13 -36 -3 -14 7 -48 12 -75 12 -28 0 -50 5
-50 10 0 6 -13 10 -30 10 -16 0 -30 5 -30 10 0 6 -11 10 -25 10 -14 0 -25 5
-25 10 0 6 -9 10 -20 10 -11 0 -20 4 -20 8 0 5 -12 15 -27 23 -28 14 -73 53
-73 64 0 3 -13 19 -30 37 -16 17 -30 37 -30 44 0 8 -3 14 -8 14 -7 0 -26 47
-42 110 -14 52 -12 198 4 255 15 58 44 124 63 143 7 7 13 17 13 22 0 11 50 62
82 82 58 37 99 58 116 58 10 0 22 4 27 9 19 18 117 23 493 27 l382 4 0 135 c0
93 -4 138 -12 147 -21 21 -58 98 -58 118 0 11 -4 22 -10 25 -5 3 -10 22 -10
41 0 19 -4 34 -10 34 -5 0 -10 14 -10 30 l0 30 -389 0 c-249 0 -392 -4 -396
-10z"/>
<path d="M6350 3526 c0 -21 21 -31 31 -15 14 22 11 29 -11 29 -11 0 -20 -6
-20 -14z"/>
<path d="M6440 3520 c0 -13 7 -20 20 -20 13 0 20 7 20 20 0 13 -7 20 -20 20
-13 0 -20 -7 -20 -20z"/>
<path d="M6503 3495 c-24 -25 -31 -55 -13 -55 6 0 10 -9 10 -20 0 -11 -4 -20
-10 -20 -5 0 -10 -16 -10 -35 0 -28 4 -35 20 -35 15 0 20 7 20 24 0 14 5 28
10 31 6 3 10 17 10 31 0 19 5 24 24 24 23 0 24 -3 19 -37 -10 -64 -9 -68 18
-71 24 -3 25 -1 26 50 0 29 6 54 12 56 6 2 11 21 11 43 0 32 -4 39 -19 39 -11
0 -23 -9 -26 -20 -7 -21 -30 -27 -40 -10 -3 6 -1 10 4 10 6 0 11 5 11 10 0 19
-55 9 -77 -15z"/>
<path d="M5743 3465 c-7 -8 -13 -21 -13 -30 0 -8 -4 -15 -10 -15 -14 0 -12
-64 2 -78 7 -7 25 -12 40 -12 31 0 39 -24 12 -34 -22 -9 -24 -8 -24 10 0 11
-5 14 -16 10 -9 -3 -22 -6 -30 -6 -12 0 -12 -4 -2 -20 19 -29 94 -28 120 2 10
12 20 31 22 42 2 12 9 45 15 74 6 30 11 58 11 63 0 14 -38 11 -43 -3 -4 -10
-6 -10 -6 0 -1 17 -63 15 -78 -3z m80 -39 c11 -28 -16 -66 -45 -66 -23 0 -28
4 -28 25 0 14 6 32 13 40 16 19 53 19 60 1z"/>
<path d="M5898 3449 c-23 -26 -27 -37 -22 -68 3 -20 11 -42 16 -48 13 -16 49
-17 83 -1 30 14 34 48 5 48 -11 0 -20 -4 -20 -10 0 -5 -9 -10 -20 -10 -11 0
-20 7 -20 15 0 11 12 15 50 15 49 0 50 1 50 31 0 65 -74 82 -122 28z m82 -19
c0 -5 -13 -10 -30 -10 -16 0 -30 5 -30 10 0 6 14 10 30 10 17 0 30 -4 30 -10z"/>
<path d="M6052 3455 c-7 -14 -12 -41 -12 -60 0 -19 -4 -37 -10 -40 -5 -3 -10
-24 -10 -46 0 -32 3 -39 19 -39 14 0 21 8 23 28 3 23 7 27 31 24 32 -4 77 21
77 43 0 8 5 15 10 15 15 0 12 70 -4 86 -9 8 -34 14 -64 14 -43 0 -50 -3 -60
-25z m98 -42 c0 -29 -25 -63 -46 -63 -19 0 -31 27 -26 61 4 26 8 29 38 29 30
0 34 -3 34 -27z"/>
<path d="M6230 3460 c0 -11 -4 -20 -10 -20 -5 0 -10 -18 -10 -39 0 -22 -5 -43
-11 -47 -8 -5 -6 -10 5 -16 22 -12 46 12 46 47 0 30 20 55 44 55 9 0 16 8 16
20 0 17 -7 20 -40 20 -33 0 -40 -3 -40 -20z"/>
<path d="M6326 3431 c-30 -94 -17 -116 63 -105 45 6 51 9 51 30 0 13 5 24 10
24 6 0 10 23 10 50 0 36 -4 50 -14 50 -15 0 -26 -21 -26 -49 0 -31 -25 -71
-44 -71 -17 0 -18 6 -12 60 6 49 4 60 -7 60 -9 0 -21 -21 -31 -49z"/>
<path d="M6710 3470 c0 -5 -6 -10 -13 -10 -12 0 -47 -64 -47 -86 0 -22 42 -54
70 -54 17 0 38 9 50 22 25 27 25 38 0 38 -11 0 -20 -4 -20 -10 0 -5 -9 -10
-20 -10 -11 0 -20 7 -20 15 0 11 11 15 40 15 48 0 58 16 40 60 -10 25 -18 30
-46 30 -19 0 -34 -4 -34 -10z m60 -44 c0 -3 -13 -6 -30 -6 -16 0 -30 5 -30 10
0 6 7 10 15 10 8 0 15 5 15 11 0 6 7 4 15 -5 8 -8 15 -17 15 -20z"/>
<path d="M5753 3225 c-39 -41 -27 -84 27 -98 14 -4 32 -11 40 -17 13 -9 13
-11 0 -20 -22 -14 -46 -12 -64 5 -21 22 -46 19 -46 -6 0 -32 25 -49 73 -49 59
0 93 35 88 90 -1 16 -44 40 -72 40 -14 0 -29 19 -29 36 0 9 59 3 65 -6 7 -12
55 -13 55 -2 0 5 -8 19 -19 30 -26 31 -88 29 -118 -3z"/>
<path d="M5933 3235 c-16 -18 -16 -22 1 -28 9 -3 21 4 30 19 15 22 15 24 -1
24 -10 -1 -24 -7 -30 -15z"/>
<path d="M6165 3237 c-16 -20 -46 -180 -36 -190 18 -18 41 1 41 35 0 33 40 94
54 81 10 -10 7 -71 -4 -78 -19 -12 -11 -45 10 -45 13 0 20 7 20 20 0 11 5 20
10 20 6 0 10 25 10 55 l0 55 -40 0 c-38 0 -40 2 -40 30 0 32 -8 37 -25 17z"/>
<path d="M6586 3234 c-3 -9 -6 -28 -7 -42 0 -15 -3 -21 -6 -14 -3 7 -25 12
-59 12 l-54 0 0 -44 c0 -25 -4 -48 -10 -51 -5 -3 -10 -17 -10 -31 0 -17 5 -24
20 -24 13 0 20 7 20 20 0 11 5 20 10 20 6 0 10 16 10 35 0 27 4 35 18 35 10 0
24 6 31 13 11 10 13 0 8 -55 -5 -55 -4 -68 8 -68 17 0 30 22 40 69 9 42 30 67
41 49 4 -6 6 -35 5 -65 -2 -47 0 -53 18 -53 18 0 21 6 21 40 0 22 5 40 10 40
6 0 10 -11 10 -25 0 -14 5 -25 10 -25 6 0 10 -7 10 -15 0 -20 76 -20 96 0 21
20 9 36 -19 26 -15 -6 -29 -4 -41 5 -17 12 -17 13 5 18 13 2 38 4 54 3 29 -2
30 0 30 38 l0 40 -48 3 c-50 3 -77 -12 -77 -42 0 -9 -4 -16 -10 -16 -5 0 -10
11 -10 24 0 25 -16 36 -55 36 -17 0 -24 7 -28 30 -7 32 -31 40 -41 14z m234
-84 c0 -15 -7 -20 -25 -20 -18 0 -25 5 -25 20 0 15 7 20 25 20 18 0 25 -5 25
-20z"/>
<path d="M6913 3235 c-7 -8 -13 -17 -13 -20 0 -11 32 -5 45 9 12 12 12 15 -1
20 -19 7 -16 8 -31 -9z"/>
<path d="M6980 3210 c0 -11 -4 -20 -10 -20 -6 0 -10 -32 -10 -75 l0 -75 30 0
c30 0 42 21 20 35 -16 10 -12 45 9 74 26 36 18 81 -15 81 -17 0 -24 -6 -24
-20z"/>
<path d="M5913 3148 c-21 -76 -21 -103 2 -103 16 0 21 8 23 35 2 19 8 39 13
45 5 5 9 22 9 37 0 20 -5 28 -18 28 -12 0 -21 -13 -29 -42z"/>
<path d="M5993 3175 c-8 -8 -13 -41 -13 -75 l0 -60 38 0 c41 0 82 23 82 46 0
8 -9 14 -20 14 -11 0 -20 -4 -20 -10 0 -5 -9 -10 -20 -10 -16 0 -20 7 -20 31
0 40 27 63 48 42 18 -18 37 -12 37 13 0 16 -8 19 -50 21 -34 2 -54 -2 -62 -12z"/>
<path d="M6312 3165 c-25 -29 -30 -89 -8 -111 19 -19 66 -18 95 2 30 21 11 34
-37 27 -27 -5 -34 -3 -30 8 3 8 17 13 34 12 55 -3 74 5 74 33 0 36 -22 54 -67
54 -30 0 -45 -6 -61 -25z m86 -17 c3 -14 -3 -18 -27 -18 -34 0 -34 0 -25 25 8
21 48 16 52 -7z"/>
<path d="M6892 3150 c-6 -22 -12 -56 -12 -75 0 -28 4 -35 20 -35 17 0 20 7 20
39 0 22 5 43 10 46 6 3 10 19 10 36 0 46 -32 39 -48 -11z"/>
</g>
</svg>
