<?xml version="1.0" encoding="UTF-8"?> <svg xmlns="http://www.w3.org/2000/svg" xmlns:xlink="http://www.w3.org/1999/xlink" version="1.1" x="0px" y="0px" viewBox="0 0 64 64.8" style="enable-background:new 0 0 64 64.8;" xml:space="preserve"> <style type="text/css"> .st0{display:none;} .st1{display:inline;} .st2{fill:#484848;} .st3{fill:none;} </style> <g id="Layer_1" class="st0"> <g id="Layer_8" class="st1"> <path class="st2" d="M46.8,0c0,0-8.9,2.5-15.4,2.5c-7.6-0.3-14-2.5-14-2.5S15,7.2,16,13.5C16.7,28.9,32,40,32,40 s14.8-10.4,16-26.4C48.9,7,46.8,0,46.8,0z M44.6,8.7c-4.1,8.1-12.8,17.8-15.3,19.2c-0.2,0.1-0.3,0.1-0.9,0.1c-1.1-0.1-3.1-2-3.1-2 c-2.8-7.9-1.6-10.8,0.4-11.7s2.7,0.1,2.7,0.1l1.4,5.2c0,0,0.4,0.6,0.8,0.4S39.9,8.6,42.5,6.2C42.8,6.2,45,4.4,44.6,8.7z"></path> </g> <g class="st1"> <path class="st2" d="M8.5,46.5c0,2.3-1.4,3.5-3.2,3.5c-1.9,0-3.1-1.4-3.1-3.4c0-2.1,1.3-3.5,3.2-3.5C7.4,43.1,8.5,44.6,8.5,46.5z M3.5,46.6C3.5,48,4.2,49,5.4,49c1.2,0,1.9-1.1,1.9-2.5c0-1.3-0.6-2.5-1.9-2.5C4.1,44.1,3.5,45.2,3.5,46.6z"></path> <path class="st2" d="M11.1,49.9l-2.2-6.7h1.3l0.9,3.1c0.3,0.8,0.5,1.6,0.7,2.5h0c0.2-0.8,0.4-1.6,0.7-2.4l1-3.1h1.3l-2.3,6.7H11.1 z"></path> <path class="st2" d="M19.3,46.9h-2.5v2h2.8v1h-4.1v-6.7h3.9v1h-2.7v1.7h2.5V46.9z"></path> <path class="st2" d="M20.7,43.3c0.5-0.1,1.1-0.1,1.9-0.1c1,0,1.6,0.2,2.1,0.5c0.4,0.3,0.6,0.8,0.6,1.3c0,0.9-0.6,1.5-1.2,1.7v0 c0.5,0.2,0.8,0.7,0.9,1.3c0.2,0.8,0.4,1.6,0.5,1.9h-1.3c-0.1-0.2-0.3-0.8-0.4-1.6c-0.2-0.9-0.5-1.2-1.2-1.2h-0.6v2.8h-1.2V43.3z M21.9,46.3h0.7c0.8,0,1.3-0.4,1.3-1.1c0-0.7-0.5-1.1-1.3-1.1c-0.4,0-0.6,0-0.8,0.1V46.3z"></path> <path class="st2" d="M31.2,49.7c-0.3,0.2-0.9,0.3-1.7,0.3c-2.1,0-3.4-1.3-3.4-3.4c0-2.2,1.5-3.6,3.6-3.6c0.8,0,1.4,0.2,1.6,0.3 l-0.3,1c-0.3-0.1-0.8-0.3-1.3-0.3c-1.4,0-2.4,0.9-2.4,2.5c0,1.5,0.9,2.4,2.3,2.4c0.5,0,1-0.1,1.3-0.2L31.2,49.7z"></path> <path class="st2" d="M33.5,43.2v2.7h2.8v-2.7h1.2v6.7h-1.2v-3h-2.8v3h-1.2v-6.7H33.5z"></path> <path class="st2" d="M40.4,48l-0.6,1.9h-1.3l2.2-6.7h1.6l2.2,6.7h-1.3L42.5,48H40.4z M42.3,47.1l-0.5-1.7 c-0.1-0.4-0.2-0.9-0.3-1.3h0c-0.1,0.4-0.2,0.9-0.3,1.3l-0.5,1.7H42.3z"></path> <path class="st2" d="M45.4,43.3c0.5-0.1,1.1-0.1,1.9-0.1c1,0,1.6,0.2,2.1,0.5c0.4,0.3,0.6,0.8,0.6,1.3c0,0.9-0.6,1.5-1.2,1.7v0 c0.5,0.2,0.8,0.7,0.9,1.3c0.2,0.8,0.4,1.6,0.5,1.9h-1.3c-0.1-0.2-0.3-0.8-0.5-1.6c-0.2-0.9-0.5-1.2-1.2-1.2h-0.6v2.8h-1.2V43.3z M46.6,46.3h0.7c0.8,0,1.3-0.4,1.3-1.1c0-0.7-0.5-1.1-1.3-1.1c-0.4,0-0.6,0-0.8,0.1V46.3z"></path> <path class="st2" d="M56.5,49.6C56,49.8,55.2,50,54.3,50c-1.1,0-2-0.3-2.6-0.9c-0.6-0.6-0.9-1.5-0.9-2.5c0-2.1,1.5-3.5,3.7-3.5 c0.8,0,1.5,0.2,1.8,0.3l-0.3,1c-0.4-0.2-0.8-0.3-1.5-0.3C53,44.1,52,45,52,46.6c0,1.5,0.9,2.4,2.3,2.4c0.4,0,0.8-0.1,0.9-0.1v-1.7 h-1.2v-1h2.4V49.6z"></path> <path class="st2" d="M61.5,46.9h-2.5v2h2.8v1h-4.1v-6.7h3.9v1h-2.7v1.7h2.5V46.9z"></path> <path class="st2" d="M6.8,55.3c0.4-0.1,1-0.1,1.9-0.1c0.9,0,1.6,0.2,2,0.5c0.4,0.3,0.7,0.9,0.7,1.5c0,0.6-0.2,1.2-0.6,1.5 c-0.5,0.5-1.3,0.7-2.1,0.7c-0.2,0-0.4,0-0.6,0v2.5H6.8V55.3z M8,58.4c0.2,0,0.4,0,0.6,0c0.9,0,1.5-0.5,1.5-1.2 c0-0.8-0.5-1.1-1.4-1.1c-0.3,0-0.6,0-0.7,0.1V58.4z"></path> <path class="st2" d="M12.4,55.3c0.5-0.1,1.1-0.1,1.9-0.1c1,0,1.6,0.2,2.1,0.5c0.4,0.3,0.6,0.8,0.6,1.3c0,0.9-0.6,1.5-1.2,1.7v0 c0.5,0.2,0.8,0.7,0.9,1.3c0.2,0.8,0.4,1.6,0.5,1.9h-1.3c-0.1-0.2-0.3-0.8-0.4-1.6c-0.2-0.9-0.5-1.2-1.2-1.2h-0.6v2.8h-1.2V55.3z M13.6,58.3h0.7c0.8,0,1.3-0.4,1.3-1.1c0-0.7-0.5-1.1-1.3-1.1c-0.4,0-0.6,0-0.8,0.1V58.3z"></path> <path class="st2" d="M24.1,58.5c0,2.3-1.4,3.5-3.2,3.5c-1.9,0-3.1-1.4-3.1-3.4c0-2.1,1.3-3.5,3.2-3.5 C22.9,55.1,24.1,56.6,24.1,58.5z M19.1,58.6c0,1.4,0.7,2.5,1.9,2.5c1.2,0,1.9-1.1,1.9-2.5c0-1.3-0.6-2.5-1.9-2.5 C19.7,56.1,19.1,57.2,19.1,58.6z"></path> <path class="st2" d="M26.2,56.2h-1.9v-1h5.1v1h-1.9v5.7h-1.2V56.2z"></path> <path class="st2" d="M33.9,58.9h-2.5v2h2.8v1h-4.1v-6.7H34v1h-2.7v1.7h2.5V58.9z"></path> <path class="st2" d="M40.1,61.7c-0.3,0.2-0.9,0.3-1.7,0.3c-2.1,0-3.4-1.3-3.4-3.4c0-2.2,1.5-3.6,3.6-3.6c0.8,0,1.4,0.2,1.6,0.3 l-0.3,1c-0.3-0.1-0.8-0.3-1.3-0.3c-1.4,0-2.4,0.9-2.4,2.5c0,1.5,0.9,2.4,2.3,2.4c0.5,0,1-0.1,1.3-0.2L40.1,61.7z"></path> <path class="st2" d="M42.6,56.2h-1.9v-1h5.1v1h-1.9v5.7h-1.2V56.2z"></path> <path class="st2" d="M50.4,58.9h-2.5v2h2.8v1h-4.1v-6.7h3.9v1h-2.7v1.7h2.5V58.9z"></path> <path class="st2" d="M51.8,55.3c0.5-0.1,1.2-0.1,2-0.1c1.3,0,2.1,0.3,2.7,0.8c0.6,0.5,1,1.3,1,2.5c0,1.2-0.4,2.1-1,2.7 c-0.7,0.6-1.7,0.9-3,0.9c-0.7,0-1.3,0-1.7-0.1V55.3z M53,61c0.2,0,0.4,0,0.7,0c1.6,0,2.5-0.9,2.5-2.6c0-1.5-0.8-2.3-2.4-2.3 c-0.4,0-0.7,0-0.8,0.1V61z"></path> </g> </g> <g id="Layer_2" class="st0"> <g> <path class="st1" d="M3.1,61l-2-9.5h1.8c0.7,4.4,1.1,6.3,1.2,7.4h0c0.3-1.8,1-5.1,1.5-7.4h1.5c0.4,1.8,1.2,5.5,1.4,7.3h0 c0.3-2.1,1-5.8,1.3-7.3h1.6L9.4,61H7.6c-0.4-2.1-1.1-5.2-1.4-6.8h0c-0.3,1.7-1,4.9-1.4,6.8C4.8,61,3.1,61,3.1,61z"></path> <path class="st1" d="M13.3,58.8L12.7,61H11l2.6-9.5h2.1l2.7,9.5h-1.8l-0.6-2.2C16.1,58.8,13.3,58.8,13.3,58.8z M15.7,57.1 c-0.5-2-0.9-3.3-1.1-4.2h0c-0.2,0.9-0.6,2.4-1,4.2H15.7L15.7,57.1z"></path> <path class="st1" d="M21,57.2V61h-1.6v-9.5h3.4c1.7,0,2.6,1.1,2.6,2.6c0,1.3-0.6,2-1.1,2.3c0.4,0.2,1,0.7,1,2.4v0.5 c0,0.6,0,1.4,0.1,1.8h-1.6c-0.1-0.4-0.2-1.1-0.2-2.1v-0.1c0-1-0.2-1.5-1.5-1.5H21L21,57.2z M21,55.6h1.4c0.9,0,1.3-0.4,1.3-1.2 c0-0.8-0.4-1.2-1.2-1.2H21L21,55.6L21,55.6z"></path> <path class="st1" d="M28.4,57.2V61h-1.6v-9.5h3.4c1.7,0,2.6,1.1,2.6,2.6c0,1.3-0.6,2-1.1,2.3c0.4,0.2,1,0.7,1,2.4v0.5 c0,0.6,0,1.4,0.1,1.8h-1.6C31,60.6,31,59.9,31,58.9v-0.1c0-1-0.2-1.5-1.5-1.5H28.4L28.4,57.2z M28.4,55.6h1.4 c0.9,0,1.3-0.4,1.3-1.2c0-0.8-0.4-1.2-1.2-1.2h-1.4L28.4,55.6L28.4,55.6z"></path> <path class="st1" d="M35.7,58.8L35.1,61h-1.6l2.6-9.5h2.1L41,61h-1.8l-0.6-2.2H35.7z M38.2,57.1c-0.5-2-0.9-3.3-1.1-4.2h0 c-0.2,0.9-0.6,2.4-1,4.2H38.2L38.2,57.1z"></path> <path class="st1" d="M41.8,61v-9.5h2.1c1,2.1,2.8,6,3.1,7h0c-0.1-1-0.1-2.7-0.1-4.2v-2.8h1.5V61h-2c-0.8-1.9-2.8-6.3-3.2-7.4h0 c0.1,0.8,0.1,2.8,0.1,4.5V61H41.8L41.8,61z"></path> <path class="st1" d="M51.9,53.2h-2.4v-1.7h6.4v1.7h-2.4V61h-1.7C51.9,61,51.9,53.2,51.9,53.2z"></path> <path class="st1" d="M59.1,61v-3.4c0-0.1,0-0.2-0.1-0.3l-2.7-5.9h1.9c0.6,1.4,1.4,3.4,1.8,4.4c0.3-1,1.2-3,1.8-4.4h1.8l-2.7,5.8 c0,0.1-0.1,0.1-0.1,0.3V61L59.1,61L59.1,61z"></path> </g> <g> <path class="st1" d="M22.8,43.7c0-1.2,0-2.6,0-3.5h0c-0.3,1.5-0.8,3.9-1.4,6.2h-1c-0.4-2-1-4.7-1.2-6.2h0c0.1,0.9,0.1,2.3,0.1,3.6 v2.6h-1.1v-7.3h1.8c0.4,1.9,0.9,4.3,1.1,5.4h0c0.1-1,0.8-3.5,1.2-5.4H24v7.3h-1.2L22.8,43.7L22.8,43.7z"></path> <path class="st1" d="M30.3,42.8c0,2-0.9,3.8-2.7,3.8s-2.7-1.7-2.7-3.7c0-2.1,1-3.7,2.7-3.7C29.3,39.1,30.3,40.6,30.3,42.8z M26.2,42.8c0,1.4,0.5,2.5,1.5,2.5c1.1,0,1.5-1.2,1.5-2.5c0-1.4-0.4-2.5-1.5-2.5C26.6,40.3,26.2,41.4,26.2,42.8z"></path> <path class="st1" d="M31.3,46.4v-7.3h1.5c0.7,1.6,2,4.6,2.2,5.4h0c-0.1-0.8-0.1-2-0.1-3.2v-2.1h1.1v7.3h-1.4 c-0.6-1.4-2-4.8-2.3-5.6h0c0,0.6,0.1,2.1,0.1,3.4v2.2L31.3,46.4L31.3,46.4z"></path> <path class="st1" d="M38.5,40.5h-1.7v-1.3h4.6v1.3h-1.7v6h-1.2V40.5z"></path> <path class="st1" d="M42,39.2h1.2V42h2.2v-2.8h1.2v7.3h-1.2v-3.1h-2.2v3.1H42C42,46.4,42,39.2,42,39.2z"></path> </g> <g class="st1"> <path class="st3" d="M26.9,44.1c-1.2,0-1.9,1.1-1.9,2.5c0,1.4,0.7,2.4,1.9,2.4c1.2,0,1.8-1.1,1.8-2.5 C28.7,45.2,28.1,44.1,26.9,44.1z"></path> <path class="st3" d="M36,56.6L36,56.6c-0.1,0.4-0.2,0.9-0.3,1.2l-0.5,1.6h1.7l-0.5-1.6C36.2,57.5,36.1,57,36,56.6z"></path> <path class="st3" d="M24.2,56.5c-0.4,0-0.6,0-0.8,0.1v2.1h0.7c0.8,0,1.3-0.4,1.3-1.1C25.5,56.8,25,56.5,24.2,56.5z"></path> <path class="st3" d="M29.9,56.5c-0.4,0-0.6,0-0.8,0.1v2.1h0.7c0.8,0,1.3-0.4,1.3-1.1C31.2,56.8,30.6,56.5,29.9,56.5z"></path> <path class="st3" d="M18.3,56.6L18.3,56.6c-0.1,0.4-0.2,0.9-0.3,1.2l-0.5,1.6h1.7l-0.5-1.6C18.5,57.5,18.4,57,18.3,56.6z"></path> <path class="st2" d="M23.7,11.6c0,0.2-0.1,0.6-0.2,1.1c-0.2,0.8-0.5,1.5-0.9,2c-0.6,0.7-1.4,1.2-2.4,1.5c-0.6,0.2-1.7,0.3-3.2,0.4 v3.7l5.8,0v0l0,19.1l5,0l-0.1-27.7L23.7,11.6z"></path> <path class="st2" d="M35.5,27.9c-2.6,2.1-4.2,4-4.9,5.9c-0.7,1.6-1.1,3.5-1.1,5.5l16.9,0l0-4.8l-10.7,0c0.3-0.6,0.7-1.1,1.1-1.5 c0.4-0.4,1.3-1.1,2.5-2.1l1.9-1.6c1.6-1.3,2.8-2.5,3.5-3.5c1.1-1.6,1.6-3.4,1.6-5.5c0-2.7-0.8-4.8-2.3-6.4 c-1.5-1.6-3.6-2.4-6.2-2.4c-3.3,0-5.6,1.4-6.9,4.2c-0.7,1.5-1.1,3.4-1.1,5.7l4.7,0c0.1-1.6,0.2-2.7,0.5-3.4c0.5-1.2,1.5-1.9,3-1.9 c1.1,0,1.9,0.4,2.5,1.2c0.6,0.8,0.9,1.8,0.9,2.9c0,1.4-0.5,2.8-1.5,4C39.2,24.9,37.8,26.1,35.5,27.9z"></path> <path class="st2" d="M63,29.9c-0.4-0.6-0.7-1.2-0.8-1.7c-0.1-0.5,0.1-1.2,0.2-1.9c0.2-1,0.5-2.1,0.1-3.1c-0.4-1.1-1.2-1.8-2-2.5 c-0.5-0.5-1.1-0.9-1.3-1.4c-0.3-0.5-0.3-1.2-0.4-1.9c-0.1-1-0.2-2.1-0.9-3c-0.7-0.9-1.7-1.3-2.6-1.7c-0.7-0.3-1.3-0.6-1.7-1 c-0.4-0.4-0.7-1-1-1.7c-0.4-0.9-0.9-1.9-1.8-2.6c-0.9-0.6-2-0.8-3-0.9c-0.7-0.1-1.4-0.2-1.9-0.4c-0.5-0.2-1-0.8-1.4-1.3 C43.8,4.2,43,3.3,42,3c-1-0.3-2.1-0.1-3.1,0.1c-0.7,0.2-1.4,0.3-2,0.2c-0.5-0.1-1.1-0.4-1.8-0.8c-0.9-0.5-1.9-1.1-3-1.1 S29.9,2,29,2.5c-0.6,0.4-1.2,0.7-1.8,0.8c-0.6,0.1-1.2-0.1-2-0.2c-1-0.2-2.1-0.4-3.1-0.1c-1.1,0.3-1.8,1.2-2.5,1.9 c-0.5,0.5-1,1-1.4,1.3c-0.5,0.3-1.2,0.3-1.9,0.4c-1,0.1-2.1,0.2-3,0.9c-0.9,0.6-1.4,1.7-1.8,2.6c-0.3,0.7-0.6,1.3-1,1.7 c-0.4,0.4-1,0.7-1.7,1c-0.9,0.4-2,0.9-2.6,1.7c-0.7,0.9-0.8,2-0.9,3c-0.1,0.7-0.2,1.4-0.4,1.9c-0.2,0.5-0.8,0.9-1.3,1.4 c-0.8,0.7-1.6,1.4-2,2.5c-0.3,1-0.1,2.1,0.1,3.1C1.9,27,2,27.7,1.9,28.2c-0.1,0.5-0.4,1.1-0.8,1.7c-0.5,0.9-1.1,1.9-1.1,3 c0,1.1,0.6,2.1,1.1,3c0.4,0.6,0.7,1.2,0.8,1.7c0.1,0.5-0.1,1.2-0.2,1.9c-0.2,1-0.4,2.1-0.1,3.1c0.4,1.1,1.2,1.8,2,2.5 c0.5,0.5,1.1,0.9,1.3,1.4c0.3,0.5,0.3,1.2,0.4,1.9c0.1,1,0.2,2.1,0.9,3l0,0l1.5-1.1c-0.4-0.5-0.4-1.3-0.5-2.1 c-0.1-0.9-0.2-1.8-0.6-2.6c-0.4-0.8-1.1-1.4-1.7-1.9c-0.6-0.6-1.2-1.1-1.4-1.7c-0.2-0.5,0-1.3,0.2-2.1c0.2-0.9,0.4-1.7,0.2-2.6 c-0.1-0.9-0.6-1.6-1-2.4c-0.4-0.7-0.8-1.4-0.8-2s0.4-1.3,0.8-2c0.4-0.7,0.9-1.5,1-2.4c0.1-0.9-0.1-1.8-0.2-2.6 c-0.2-0.8-0.3-1.6-0.2-2.1c0.2-0.6,0.8-1.1,1.4-1.7c0.7-0.6,1.3-1.2,1.7-2c0.4-0.8,0.5-1.7,0.6-2.6c0.1-0.8,0.2-1.6,0.5-2.1 c0.4-0.5,1.1-0.8,1.9-1.1c0.8-0.4,1.6-0.7,2.3-1.3c0.6-0.6,1-1.4,1.4-2.2c0.3-0.8,0.7-1.5,1.2-1.8c0.5-0.4,1.3-0.4,2.1-0.5 c0.9-0.1,1.8-0.2,2.6-0.6c0.8-0.4,1.4-1.1,2-1.7c0.6-0.6,1.1-1.2,1.7-1.4c0.6-0.2,1.3,0,2.2,0.2c0.9,0.2,1.8,0.4,2.7,0.2 c0.9-0.1,1.6-0.6,2.4-1c0.7-0.4,1.4-0.8,2.1-0.8c0.6,0,1.3,0.4,2.1,0.8c0.8,0.4,1.5,0.9,2.4,1c0.9,0.1,1.8,0,2.7-0.2 c0.8-0.2,1.6-0.3,2.2-0.2C42,5,42.5,5.6,43.1,6.2c0.6,0.6,1.2,1.3,2,1.7c0.8,0.4,1.7,0.5,2.6,0.6c0.8,0.1,1.6,0.2,2.1,0.5 c0.5,0.4,0.8,1.1,1.2,1.8c0.4,0.8,0.7,1.6,1.4,2.2c0.6,0.6,1.5,1,2.3,1.3c0.8,0.3,1.5,0.7,1.9,1.1c0.4,0.5,0.4,1.3,0.5,2.1 c0.1,0.9,0.2,1.8,0.6,2.6c0.4,0.8,1.1,1.4,1.7,2c0.6,0.6,1.2,1.1,1.4,1.7c0.2,0.6,0,1.3-0.2,2.1c-0.2,0.9-0.4,1.7-0.2,2.6 c0.1,0.9,0.6,1.6,1,2.4c0.4,0.7,0.8,1.4,0.8,2h1.9c0,0,0,0,0,0h0C64.1,31.8,63.5,30.8,63,29.9z"></path> <path class="st2" d="M62.2,32.9L62.2,32.9c0,0.6-0.4,1.3-0.8,2c-0.4,0.7-0.9,1.5-1,2.4c-0.1,0.9,0.1,1.8,0.2,2.6 c0.2,0.8,0.3,1.6,0.2,2.1c-0.2,0.6-0.8,1.1-1.4,1.7c-0.7,0.6-1.3,1.2-1.7,2c-0.4,0.8-0.5,1.7-0.6,2.6c-0.1,0.8-0.2,1.6-0.5,2.1 l1.5,1.1l0,0c0.7-0.9,0.8-2,0.9-3c0.1-0.7,0.2-1.4,0.4-1.9c0.2-0.5,0.8-0.9,1.3-1.4c0.8-0.7,1.6-1.4,2-2.5c0.3-1,0.1-2.1-0.1-3.1 c-0.2-0.7-0.3-1.4-0.2-1.9c0.1-0.5,0.4-1.1,0.8-1.7c0.5-0.9,1.1-1.9,1.1-3L62.2,32.9C62.2,32.9,62.2,32.9,62.2,32.9z"></path> <polygon class="st2" points="62.2,32.9 62.2,32.9 64.1,32.9 64.1,32.9 "></polygon> <rect x="13.4" y="51.8" class="st2" width="37.4" height="1.7"></rect> <path class="st2" d="M14.4,55.6l-0.7,3c-0.2,0.8-0.3,1.6-0.5,2.3h0c-0.1-0.7-0.2-1.5-0.4-2.3l-0.7-3.1h-1.3l-0.7,3 C10,59.5,9.8,60.3,9.7,61h0c-0.1-0.7-0.3-1.5-0.4-2.3l-0.6-3H7.3l1.6,6.7h1.3l0.8-3.1c0.2-0.8,0.3-1.4,0.4-2.1h0 c0.1,0.7,0.2,1.4,0.4,2.1l0.7,3.1h1.3l1.8-6.7H14.4z"></path> <path class="st2" d="M17.6,55.6l-2.1,6.7h1.3l0.6-1.9h2.1l0.6,1.9h1.3l-2.2-6.7H17.6z M17.5,59.5l0.5-1.6c0.1-0.4,0.2-0.9,0.3-1.2 h0c0.1,0.4,0.2,0.8,0.3,1.2l0.5,1.6H17.5z"></path> <path class="st2" d="M25.5,59.2L25.5,59.2c0.6-0.3,1.2-0.8,1.2-1.7c0-0.6-0.2-1-0.6-1.3c-0.4-0.4-1.1-0.5-2.1-0.5 c-0.7,0-1.4,0.1-1.8,0.1v6.6h1.2v-2.7h0.6c0.7,0,1,0.3,1.2,1.2c0.2,0.8,0.3,1.4,0.4,1.6H27c-0.1-0.3-0.3-1-0.5-1.9 C26.3,59.8,26,59.3,25.5,59.2z M24.2,58.7h-0.7v-2.1c0.1,0,0.4-0.1,0.8-0.1c0.8,0,1.3,0.3,1.3,1.1C25.5,58.2,25,58.7,24.2,58.7z"></path> <path class="st2" d="M31.2,59.2L31.2,59.2c0.6-0.3,1.2-0.8,1.2-1.7c0-0.6-0.2-1-0.6-1.3c-0.4-0.4-1.1-0.5-2.1-0.5 c-0.7,0-1.4,0.1-1.8,0.1v6.6h1.2v-2.7h0.6c0.7,0,1,0.3,1.2,1.2c0.2,0.8,0.3,1.4,0.4,1.6h1.3c-0.1-0.3-0.3-1-0.5-1.9 C31.9,59.8,31.6,59.3,31.2,59.2z M29.8,58.7h-0.7v-2.1c0.1,0,0.4-0.1,0.8-0.1c0.8,0,1.3,0.3,1.3,1.1 C31.2,58.2,30.6,58.7,29.8,58.7z"></path> <path class="st2" d="M35.2,55.6l-2.1,6.7h1.3l0.6-1.9h2.1l0.6,1.9H39l-2.2-6.7H35.2z M35.1,59.5l0.5-1.6c0.1-0.4,0.2-0.9,0.3-1.2 h0c0.1,0.4,0.2,0.8,0.3,1.2l0.5,1.6H35.1z"></path> <path class="st2" d="M44.1,58c0,1,0,1.9,0.1,2.8h0c-0.3-0.7-0.7-1.5-1.1-2.2l-1.7-2.9h-1.4v6.7H41v-2.4c0-1.1,0-2-0.1-2.8l0,0 c0.3,0.8,0.8,1.6,1.2,2.3l1.7,2.9h1.3v-6.7h-1.1V58z"></path> <polygon class="st2" points="46,56.7 47.9,56.7 47.9,62.3 49.1,62.3 49.1,56.7 51,56.7 51,55.6 46,55.6 "></polygon> <path class="st2" d="M54.8,57.4c-0.2,0.5-0.4,0.9-0.6,1.3h0c-0.2-0.5-0.3-0.8-0.6-1.3l-0.8-1.7h-1.4l2.1,3.9v2.8h1.2v-2.8l2.2-3.9 h-1.4L54.8,57.4z"></path> <path class="st2" d="M15.7,49.9h1.1l0.1-2.7c0-0.9,0.1-2,0.1-2.8h0c0.2,0.8,0.4,1.7,0.7,2.6l0.9,2.9h0.9l1-2.9 c0.3-0.8,0.6-1.7,0.8-2.6h0c0,0.9,0,1.9,0.1,2.8l0.1,2.7h1.2l-0.4-6.7h-1.6L20,45.9c-0.3,0.8-0.5,1.6-0.7,2.3h0 c-0.2-0.7-0.4-1.5-0.6-2.3l-0.9-2.7h-1.6L15.7,49.9z"></path> <path class="st2" d="M26.9,43.1c-1.9,0-3.2,1.4-3.2,3.5c0,2,1.2,3.4,3.1,3.4c1.8,0,3.2-1.3,3.2-3.5C30,44.6,28.9,43.1,26.9,43.1z M26.9,49c-1.2,0-1.9-1.1-1.9-2.4c0-1.4,0.6-2.5,1.9-2.5c1.2,0,1.8,1.2,1.8,2.5C28.7,47.9,28.1,49,26.9,49z"></path> <path class="st2" d="M33.4,46.9l1.7,2.9h1.3v-6.7h-1.1v2.3c0,1,0,1.9,0.1,2.8h0c-0.3-0.7-0.7-1.5-1.1-2.2l-1.7-2.9h-1.4v6.7h1.1 v-2.4c0-1.1,0-2-0.1-2.8l0,0C32.5,45.4,32.9,46.2,33.4,46.9z"></path> <polygon class="st2" points="40.3,49.9 40.3,44.2 42.2,44.2 42.2,43.2 37.2,43.2 37.2,44.2 39.1,44.2 39.1,49.9 "></polygon> <polygon class="st2" points="48.3,49.9 48.3,43.2 47,43.2 47,45.9 44.2,45.9 44.2,43.2 43,43.2 43,49.9 44.2,49.9 44.2,46.9 47,46.9 47,49.9 "></polygon> </g> </g> <g id="Layer_3"> <g id="Layer_2_00000152245591947958575480000010762788787625663109_"> <line class="st3" x1="64.1" y1="84.5" x2="0.1" y2="84.5"></line> <line class="st3" x1="0.1" y1="20" x2="64.1" y2="20"></line> <g> <path class="st3" d="M42.8,42.6c0.7-0.2,1.3-0.8,1.3-1.6c0-0.8-0.4-1.5-1.5-1.5c-1,0-1.5,0.6-1.5,1.4 C41.1,41.8,41.8,42.3,42.8,42.6z"></path> <path class="st3" d="M42.6,48.3c1,0,1.7-0.7,1.7-1.5c0-1.1-0.8-1.7-1.9-2c-0.9,0.3-1.5,1-1.5,1.8C40.9,47.5,41.6,48.3,42.6,48.3z "></path> <path class="st2" d="M12.4,37.2H9.5v7.5C9.5,47,8.7,48,7.1,48c-1.5,0-2.3-1.1-2.3-3.3v-7.5H2v7.2c0,4.1,1.9,5.9,5.1,5.9 c3.3,0,5.3-1.9,5.3-5.8V37.2z"></path> <path class="st2" d="M22.8,45.7L22.8,45.7c-0.6-1.4-1.1-2.2-1.9-3.6l-2.7-4.7h-3.4v12.9h2.7v-3.8c0-2.1,0-3.9-0.1-5.6h0.1 c0.6,1.5,1.5,3.2,2.2,4.5l2.7,4.9h3V37.4h-2.7v3.7"></path> <path class="st2" d="M33.6,43.5L33.6,43.5c1.5-0.6,2.3-1.6,2.3-2.9c0-1.7-1.5-3.1-4.1-3.1c-1.6,0-3.1,0.5-3.8,0.9l0.6,2.1 c0.5-0.3,1.6-0.7,2.6-0.7c1.2,0,1.8,0.6,1.8,1.3c0,1-1.2,1.4-2.2,1.4h-1.1v2.1h1.2c1.3,0,2.5,0.6,2.5,1.8c0,0.9-0.8,1.7-2.3,1.7 c-1.2,0-2.4-0.5-2.9-0.8l-0.7,2.1c0.7,0.5,2.1,0.9,3.7,0.9c3.1,0,5.1-1.6,5.1-3.8C36.2,44.9,35,43.8,33.6,43.5z"></path> <path class="st2" d="M37.9,46.9c0,1.7,1.4,3.4,4.6,3.4c2.9,0,4.8-1.5,4.8-3.7c0-1.6-1.1-2.6-2.3-3.1v-0.1 c1.2-0.6,1.8-1.7,1.8-2.7c0-1.5-1.2-3.2-4.1-3.2c-2.5,0-4.4,1.4-4.4,3.5c0,1.1,0.6,2.1,1.8,2.7v0.1 C38.8,44.4,37.9,45.4,37.9,46.9z M42.6,39.4c1.1,0,1.5,0.8,1.5,1.5c0,0.8-0.6,1.4-1.3,1.6c-1-0.3-1.7-0.8-1.7-1.7 C41.1,40,41.6,39.4,42.6,39.4z M42.4,44.7c1.1,0.3,1.9,1,1.9,2c0,0.9-0.7,1.5-1.7,1.5c-1.1,0-1.8-0.8-1.7-1.7 C40.9,45.7,41.4,45,42.4,44.7z"></path> <path class="st2" d="M50.5,50.3c1,0,1.7-0.7,1.7-1.7c0-1-0.7-1.8-1.7-1.8s-1.7,0.7-1.7,1.8C48.8,49.6,49.5,50.3,50.5,50.3z"></path> <path class="st2" d="M57,48c-1.2,0-2.4-0.5-2.9-0.8l-0.6,2.2c0.7,0.5,2.1,0.9,3.7,0.9c3.1,0,5.1-1.6,5.1-3.8c0-1.6-1.2-2.7-2.7-3 l0,0c1.5-0.5,2.3-1.6,2.3-2.9c0-1.7-1.5-3.1-4.1-3.1c-1.6,0-3.1,0.5-3.8,0.9l0.6,2.1c0.5-0.3,1.6-0.7,2.6-0.7 c1.2,0,1.8,0.6,1.8,1.3c0,1-1.2,1.4-2.2,1.4h-1.1v2.1h1.2c1.3,0,2.5,0.6,2.5,1.8C59.3,47.3,58.5,48,57,48z"></path> </g> </g> <g> <path class="st2" d="M15.4,62.2c-0.3,0.2-0.9,0.3-1.7,0.3c-2.1,0-3.4-1.3-3.4-3.4c0-2.2,1.5-3.6,3.6-3.6c0.8,0,1.4,0.2,1.6,0.3 l-0.3,1c-0.3-0.1-0.8-0.3-1.3-0.3c-1.4,0-2.4,0.9-2.4,2.5c0,1.5,0.9,2.4,2.3,2.4c0.5,0,1-0.1,1.3-0.3L15.4,62.2z"></path> <path class="st2" d="M20.2,59.3h-2.5v2h2.8v1h-4.1v-6.8h3.9v1h-2.7v1.8h2.5V59.3z"></path> <path class="st2" d="M21.6,55.7c0.5-0.1,1.1-0.1,1.9-0.1c1,0,1.6,0.2,2.1,0.5c0.4,0.3,0.6,0.8,0.6,1.4c0,0.9-0.6,1.5-1.2,1.7v0 c0.5,0.2,0.8,0.7,0.9,1.3c0.2,0.8,0.4,1.6,0.5,1.9h-1.3c-0.1-0.2-0.3-0.8-0.4-1.6c-0.2-0.9-0.5-1.2-1.2-1.2h-0.6v2.8h-1.2V55.7z M22.8,58.7h0.7c0.8,0,1.3-0.4,1.3-1.1c0-0.7-0.5-1.1-1.3-1.1c-0.4,0-0.6,0-0.8,0.1V58.7z"></path> <path class="st2" d="M28.6,56.6h-1.9v-1h5.1v1h-1.9v5.8h-1.2V56.6z"></path> <path class="st2" d="M33.8,55.6v6.8h-1.2v-6.8H33.8z"></path> <path class="st2" d="M35.2,55.6h3.9v1h-2.7v1.9h2.5v1h-2.5v2.9h-1.2V55.6z"></path> <path class="st2" d="M41.5,55.6v6.8h-1.2v-6.8H41.5z"></path> <path class="st2" d="M46.7,59.3h-2.5v2H47v1h-4.1v-6.8h3.9v1h-2.7v1.8h2.5V59.3z"></path> <path class="st2" d="M48.1,55.7c0.5-0.1,1.2-0.1,2-0.1c1.3,0,2.1,0.3,2.7,0.8c0.6,0.5,1,1.3,1,2.5c0,1.2-0.4,2.1-1,2.7 c-0.7,0.6-1.7,0.9-3,0.9c-0.7,0-1.3,0-1.7-0.1V55.7z M49.3,61.4c0.2,0,0.4,0,0.7,0c1.6,0,2.5-0.9,2.5-2.6c0-1.5-0.8-2.4-2.4-2.4 c-0.4,0-0.7,0-0.8,0.1V61.4z"></path> </g> <image style="display:none;overflow:visible;enable-background:new ;" width="165" height="168" transform="matrix(0.2042 0.2042 -0.2042 0.2042 22.3453 -19.5213)"> </image> <path class="st2" d="M45.6,2.6l-0.1-0.3l-0.3-0.1c-0.1,0-2.4-0.7-4.1,0.9C39.7,4.3,37,7.2,36.2,8L18.2,6.5l-3.1,2.3l13.4,5.8 l-5.4,7.1l-6.3,0.3l-0.7,1.2l1.8,1.8l3.2,1.7l1.7,3.1l1.8,1.8l1.2-0.7l0.3-6.3l7-5.4l5.6,13.2l2.3-3.1l-1.3-17.7 c3.5-3.4,3.7-3.7,4.6-4.6l0.2-0.2C46.2,5,45.6,2.7,45.6,2.6z"></path> </g> </svg> 