<?xml version="1.0" standalone="no"?>
<!DOCTYPE svg PUBLIC "-//W3C//DTD SVG 20010904//EN"
 "http://www.w3.org/TR/2001/REC-SVG-20010904/DTD/svg10.dtd">
<svg version="1.0" xmlns="http://www.w3.org/2000/svg"
 width="756.000000pt" height="171.000000pt" viewBox="0 0 756.000000 171.000000"
 preserveAspectRatio="xMidYMid meet">

<g transform="translate(0.000000,171.000000) scale(0.100000,-0.100000)"
fill="#000000" stroke="none">
<path d="M691 1563 c-78 -28 -150 -119 -166 -210 -7 -43 -7 -43 25 -43 91 0
190 107 206 223 8 54 5 55 -65 30z"/>
<path d="M4708 1495 c-103 -28 -198 -99 -241 -180 -17 -32 -21 -57 -21 -130 0
-105 17 -148 85 -209 57 -52 118 -77 293 -120 199 -49 251 -78 283 -154 20
-49 9 -95 -35 -144 -69 -77 -189 -105 -312 -74 -86 22 -132 56 -167 122 l-28
54 -78 0 -78 0 6 -37 c11 -63 54 -140 101 -182 215 -189 657 -126 744 107 30
80 28 193 -6 260 -45 91 -126 135 -347 188 -166 40 -191 49 -235 81 -114 84
-63 242 92 284 57 16 174 5 223 -20 49 -24 87 -68 103 -116 l12 -35 79 0 c92
0 93 2 58 96 -54 143 -203 225 -404 223 -44 0 -101 -7 -127 -14z"/>
<path d="M6522 1489 c-95 -18 -137 -82 -148 -221 l-7 -87 -56 -3 -56 -3 0 -60
0 -60 58 -3 57 -3 0 -258 c0 -142 3 -299 6 -349 l7 -92 78 0 79 0 0 349 0 349
31 6 c17 3 53 6 80 6 l49 0 0 54 0 53 -37 7 c-21 3 -57 6 -80 6 l-43 0 0 73
c0 96 20 119 111 125 l61 5 -6 45 c-3 24 -6 51 -6 58 0 16 -105 18 -178 3z"/>
<path d="M1262 923 l3 -568 70 0 70 0 5 417 c3 229 8 420 12 424 4 4 11 -2 14
-12 4 -10 75 -183 157 -384 82 -201 156 -384 165 -408 l17 -43 64 3 65 3 34
80 c19 44 92 222 162 395 71 173 134 329 141 345 l12 30 7 -30 c4 -16 8 -209
9 -427 l1 -398 75 0 75 0 0 570 0 571 -101 -3 -100 -3 -165 -405 c-189 -467
-204 -500 -218 -500 -6 1 -46 89 -89 198 -43 108 -124 312 -182 452 l-103 255
-101 3 -101 3 2 -568z"/>
<path d="M240 1261 c-45 -14 -84 -39 -123 -77 -154 -154 -133 -464 50 -721 84
-120 132 -138 262 -98 105 31 116 31 224 -1 77 -24 92 -26 127 -15 21 6 53 23
70 38 55 46 160 218 160 261 0 11 -19 32 -44 50 -30 22 -54 51 -74 92 -65 129
-51 204 63 346 l29 37 -34 29 c-88 75 -191 88 -342 42 l-86 -27 -76 27 c-76
26 -154 32 -206 17z"/>
<path d="M2880 1187 c-125 -24 -209 -86 -245 -181 -23 -59 -15 -66 70 -65 59
0 61 1 90 42 43 59 87 82 160 82 101 0 157 -46 175 -145 8 -41 7 -57 -2 -67
-8 -7 -68 -16 -148 -23 -207 -17 -275 -37 -332 -97 -80 -84 -76 -249 9 -323
123 -109 309 -97 427 26 23 24 46 41 49 37 4 -3 7 -33 7 -65 l0 -59 73 3 72 3
0 320 0 320 -25 50 c-57 114 -215 173 -380 142z m248 -499 c7 -89 -38 -165
-123 -204 -143 -67 -293 26 -241 150 12 28 26 42 62 57 45 20 177 38 259 35
39 -1 40 -2 43 -38z"/>
<path d="M3752 1188 c-108 -17 -210 -96 -253 -196 -51 -118 -48 -342 5 -455
73 -154 221 -218 394 -172 57 16 75 26 119 72 29 29 55 53 58 53 3 0 5 -39 5
-87 -1 -168 -70 -243 -227 -243 -83 0 -141 26 -186 82 l-32 40 -69 -5 c-37 -3
-70 -8 -73 -11 -10 -10 37 -95 72 -131 106 -105 332 -133 491 -61 61 28 125
89 155 148 21 41 22 56 27 500 l5 458 -77 0 -76 0 0 -63 c0 -35 -3 -66 -6 -70
-3 -3 -31 20 -62 52 -77 78 -163 106 -270 89z m209 -166 c136 -87 155 -368 32
-484 -38 -36 -93 -58 -147 -58 -59 0 -86 11 -135 55 -58 52 -81 121 -81 238 1
123 32 195 112 254 26 19 44 23 103 23 61 0 77 -4 116 -28z"/>
<path d="M5723 1189 c-140 -18 -254 -109 -265 -215 l-3 -29 67 -3 66 -3 31 44
c37 55 89 81 161 81 107 1 171 -54 178 -155 2 -31 0 -59 -6 -63 -5 -3 -84 -12
-175 -20 -192 -17 -245 -34 -306 -101 -45 -49 -55 -87 -49 -175 10 -142 156
-238 318 -208 72 13 116 37 170 92 24 25 48 46 52 46 4 0 8 -29 8 -65 l0 -66
73 3 72 3 0 320 c0 315 0 321 -23 367 -54 108 -203 168 -369 147z m235 -499
c10 -100 -60 -191 -168 -220 -175 -47 -292 144 -135 220 41 20 184 39 265 36
32 -1 35 -4 38 -36z"/>
<path d="M7091 1189 c-117 -20 -208 -88 -263 -198 l-33 -66 0 -165 c0 -162 1
-166 28 -218 85 -161 235 -231 424 -198 44 8 95 21 113 31 93 48 194 190 148
208 -7 2 -37 4 -67 4 -52 1 -56 -1 -99 -48 -56 -61 -112 -84 -186 -76 -71 7
-130 38 -166 88 -29 41 -56 138 -46 165 4 12 53 14 301 14 229 0 295 3 295 13
-1 80 -24 200 -50 253 -71 146 -229 222 -399 193z m165 -148 c49 -22 88 -70
103 -126 22 -80 36 -75 -199 -75 l-210 0 0 24 c0 58 62 150 125 184 32 18 135
14 181 -7z"/>
</g>
</svg>
