<?xml version="1.0" standalone="no"?>
<!DOCTYPE svg PUBLIC "-//W3C//DTD SVG 20010904//EN"
 "http://www.w3.org/TR/2001/REC-SVG-20010904/DTD/svg10.dtd">
<svg version="1.0" xmlns="http://www.w3.org/2000/svg"
 width="498.000000pt" height="701.000000pt" viewBox="0 0 498.000000 701.000000"
 preserveAspectRatio="xMidYMid meet">

<g transform="translate(0.000000,701.000000) scale(0.100000,-0.100000)"
fill="#000000" stroke="none">
<path d="M260 3505 l0 -3485 778 2 777 3 5 457 5 457 85 -75 c130 -116 360
-285 510 -375 426 -256 863 -406 1379 -474 157 -20 668 -21 841 0 69 8 126 15
128 15 1 0 2 102 2 226 l0 227 -39 -7 c-251 -40 -622 -49 -856 -21 -682 81
-1285 365 -1764 830 -297 287 -521 609 -681 975 -54 125 -57 130 -70 110 -6
-9 -10 -398 -10 -967 l0 -953 -320 0 -320 0 0 3035 0 3035 320 0 320 0 2 -992
c3 -873 5 -993 18 -995 11 -2 29 31 63 110 94 224 248 482 423 707 114 148
386 420 534 534 378 293 793 491 1227 585 176 38 346 59 551 67 l162 7 0 -315
0 -314 -207 -12 c-384 -22 -646 -89 -968 -247 -1021 -501 -1555 -1652 -1280
-2755 121 -484 405 -941 779 -1257 364 -305 787 -493 1256 -558 78 -11 235
-18 488 -22 l372 -6 0 781 0 782 -312 0 c-266 0 -326 3 -404 19 -263 54 -485
225 -607 468 -15 28 -39 91 -54 140 -24 79 -27 103 -27 238 0 135 3 159 28
240 88 288 303 503 591 591 89 28 92 28 438 32 l347 4 0 235 0 235 -372 -5
c-307 -3 -386 -7 -448 -21 -517 -119 -900 -493 -1026 -1000 -31 -126 -43 -358
-25 -487 63 -439 324 -810 707 -1006 201 -103 347 -141 572 -150 l152 -6 0
-308 0 -309 -123 0 c-443 0 -887 163 -1232 452 -350 293 -575 671 -672 1127
-25 117 -27 143 -27 371 -1 267 7 331 64 532 187 668 724 1195 1393 1368 200
51 301 60 687 60 l350 0 0 770 0 770 -362 0 c-383 0 -521 -8 -733 -41 -650
-102 -1243 -379 -1747 -817 l-108 -93 0 481 0 480 -780 0 -780 0 0 -3485z"/>
</g>
</svg>
