<?xml version="1.0" standalone="no"?>
<!DOCTYPE svg PUBLIC "-//W3C//DTD SVG 20010904//EN"
 "http://www.w3.org/TR/2001/REC-SVG-20010904/DTD/svg10.dtd">
<svg version="1.0" xmlns="http://www.w3.org/2000/svg"
 width="449.000000pt" height="445.000000pt" viewBox="0 0 449.000000 445.000000"
 preserveAspectRatio="xMidYMid meet">

<g transform="translate(0.000000,445.000000) scale(0.100000,-0.100000)"
fill="#000000" stroke="none">
<path d="M1207 3262 l-1037 -1037 1038 -1038 1037 -1037 1038 1038 1037 1037
-1038 1038 -1037 1037 -1038 -1038z m1886 -1884 l-848 -848 -847 847 -848 848
847 847 848 848 847 -847 848 -848 -847 -847z"/>
<path d="M2449 3172 c-96 -49 -150 -166 -135 -291 16 -137 79 -196 257 -241
141 -36 189 -84 189 -190 0 -67 -29 -120 -82 -150 -34 -19 -51 -21 -126 -18
-75 3 -97 8 -157 38 -38 19 -73 37 -77 38 -5 2 -8 -26 -8 -61 l0 -66 55 -20
c95 -36 142 -44 233 -39 73 3 96 9 141 33 95 52 136 142 129 280 -8 157 -77
231 -263 280 -158 42 -185 67 -185 169 0 146 150 204 328 129 l72 -31 0 63 0
62 -72 22 c-50 14 -100 21 -159 21 -75 0 -94 -4 -140 -28z"/>
<path d="M1620 2691 l0 -501 50 0 50 0 2 198 3 197 115 6 c130 6 174 22 228
83 43 49 57 104 57 221 0 86 -4 108 -27 156 -49 106 -105 130 -320 137 l-158
4 0 -501z m327 362 c50 -37 68 -80 68 -163 0 -89 -21 -140 -70 -170 -27 -16
-50 -20 -129 -20 l-96 0 0 183 c0 101 3 187 8 191 4 5 49 6 99 4 74 -3 98 -8
120 -25z"/>
<path d="M1987 1944 c-4 -4 -7 -229 -7 -501 l0 -493 255 0 255 0 0 55 0 55
-200 0 -200 0 0 185 0 185 190 0 190 0 0 55 0 55 -190 0 -190 0 0 150 0 150
201 0 200 0 -3 53 -3 52 -246 3 c-135 1 -248 -1 -252 -4z"/>
</g>
</svg>
