<?xml version="1.0" standalone="no"?>
<!DOCTYPE svg PUBLIC "-//W3C//DTD SVG 20010904//EN"
 "http://www.w3.org/TR/2001/REC-SVG-20010904/DTD/svg10.dtd">
<svg version="1.0" xmlns="http://www.w3.org/2000/svg"
 width="430.000000pt" height="340.000000pt" viewBox="0 0 430.000000 340.000000"
 preserveAspectRatio="xMidYMid meet">

<g transform="translate(0.000000,340.000000) scale(0.100000,-0.100000)"
fill="#000000" stroke="none">
<path d="M1912 3003 c-92 -45 -120 -176 -55 -253 31 -37 92 -70 130 -70 45 1
108 35 139 76 25 32 29 47 29 98 0 48 -5 68 -23 94 -47 65 -148 91 -220 55z"/>
<path d="M1445 2703 c-98 -10 -189 -29 -256 -52 -255 -90 -460 -315 -535 -586
-27 -99 -27 -330 0 -430 93 -344 399 -607 734 -632 45 -3 86 -11 91 -17 5 -6
11 -99 13 -206 5 -227 14 -262 91 -346 54 -59 135 -97 196 -92 l36 3 0 1140 0
1140 -45 22 c-68 34 -245 64 -325 56z m43 -851 c2 -453 1 -503 -14 -509 -30
-11 -155 19 -226 54 -308 154 -371 568 -126 814 86 85 229 150 323 146 l40 -2
3 -503z"/>
<path d="M1997 2513 c-12 -12 -8 -1321 4 -1329 13 -8 103 78 166 159 51 66
115 196 139 283 24 88 30 291 11 390 -30 160 -112 311 -235 437 -67 68 -73 72
-85 60z"/>
<path d="M2685 2344 c-60 -21 -108 -65 -144 -133 -26 -50 -32 -70 -29 -113 l3
-52 60 0 c144 1 145 1 145 33 0 20 9 36 27 50 25 20 37 21 274 21 233 -1 249
-2 273 -21 23 -18 26 -28 26 -78 0 -98 17 -93 -326 -100 -330 -7 -326 -6 -404
-77 -69 -62 -80 -112 -80 -344 l0 -200 505 0 c423 0 506 2 511 14 10 25 -16
96 -49 133 -18 20 -52 46 -77 57 -42 20 -65 21 -350 24 -168 1 -311 2 -317 2
-9 0 -13 21 -13 70 0 115 -13 110 315 110 325 0 352 6 428 90 53 59 67 106 67
224 0 143 -43 222 -150 278 -44 22 -52 23 -350 25 -245 1 -313 -1 -345 -13z"/>
</g>
</svg>
