<?xml version="1.0" standalone="no"?>
<!DOCTYPE svg PUBLIC "-//W3C//DTD SVG 20010904//EN"
 "http://www.w3.org/TR/2001/REC-SVG-20010904/DTD/svg10.dtd">
<svg version="1.0" xmlns="http://www.w3.org/2000/svg"
 width="330.000000pt" height="330.000000pt" viewBox="0 0 330.000000 330.000000"
 preserveAspectRatio="xMidYMid meet">

<g transform="translate(0.000000,330.000000) scale(0.100000,-0.100000)"
fill="#000000" stroke="none">
<path d="M1490 3269 c-711 -81 -1278 -587 -1430 -1277 -145 -653 131 -1331
695 -1708 644 -430 1504 -343 2054 207 492 493 618 1236 316 1865 -151 315
-437 601 -756 757 -268 131 -592 189 -879 156z m391 -315 c549 -92 988 -532
1084 -1085 21 -120 21 -335 0 -454 -73 -414 -342 -772 -723 -964 -88 -45 -250
-97 -357 -116 -118 -21 -342 -21 -460 0 -480 85 -877 428 -1030 888 -19 56
-41 143 -49 192 -20 114 -20 332 -1 452 66 405 336 773 708 962 108 55 255
104 372 125 111 20 339 20 456 0z"/>
<path d="M862 1993 l3 -528 29 -63 c39 -84 107 -145 189 -171 90 -27 173 -34
262 -22 153 22 248 89 297 210 23 55 23 61 26 579 l3 522 -151 0 -150 0 0
-484 c0 -266 -3 -497 -6 -515 -11 -51 -46 -81 -98 -81 -111 0 -106 -25 -106
575 l0 505 -150 0 -151 0 3 -527z"/>
<path d="M1790 1415 l0 -645 335 0 336 0 -3 128 -3 127 -182 3 -183 2 -2 513
-3 512 -147 3 -148 3 0 -646z"/>
<path d="M1182 1109 c-130 -66 -131 -257 -1 -324 40 -21 127 -19 169 4 158 84
106 325 -73 338 -39 3 -63 -1 -95 -18z m154 -15 c70 -33 106 -114 85 -186 -38
-126 -189 -163 -275 -67 -57 62 -60 140 -10 207 46 60 130 79 200 46z"/>
<path d="M1200 950 c0 -82 3 -100 15 -100 11 0 15 12 15 45 0 48 11 56 51 35
13 -8 19 -21 19 -45 0 -22 5 -35 13 -35 17 0 10 71 -9 86 -12 10 -12 13 1 24
22 18 19 67 -4 80 -11 5 -38 10 -60 10 l-41 0 0 -100z m93 59 c16 -26 1 -49
-33 -49 -28 0 -30 3 -30 36 0 32 2 35 26 32 15 -2 32 -10 37 -19z"/>
</g>
</svg>
