<?xml version="1.0" encoding="UTF-8"?>
<svg version="1.1" xmlns="http://www.w3.org/2000/svg" width="309" height="410">
<path d="M0 0 C101.97 0 203.94 0 309 0 C309 135.3 309 270.6 309 410 C207.03 410 105.06 410 0 410 C0 274.7 0 139.4 0 0 Z " fill="#FEFEFE" transform="translate(0,0)"/>
<path d="M0 0 C1.10611998 1.10611998 2.2118519 2.2126291 3.31640625 3.3203125 C4.56917776 4.57017734 5.82795574 5.81402751 7.08984375 7.0546875 C11.35242448 11.26626299 15.41974609 15.55389752 19.3203125 20.1015625 C21.49203162 22.55611016 23.81661718 24.82952071 26.1550293 27.1237793 C27.94245094 28.94147617 29.61468934 30.8142313 31.27734375 32.74609375 C34.78078658 36.77500675 38.3970045 40.68121402 42.0625 44.5625 C43.37903319 45.96212019 44.69543627 47.36186278 46.01171875 48.76171875 C46.67349121 49.46474121 47.33526367 50.16776367 48.01708984 50.89208984 C51.14225019 54.21425611 54.26058759 57.54275776 57.375 60.875 C57.95588379 61.49640869 58.53676758 62.11781738 59.13525391 62.75805664 C63.09613654 67.00542535 66.99745231 71.30101371 70.83984375 75.65625 C73.79580573 78.86344202 76.91586383 81.91586383 80 85 C79.67 77.08 79.34 69.16 79 61 C75.37 61 71.74 61 68 61 C68 58.36 68 55.72 68 53 C71.3 53 74.6 53 78 53 C78.0928125 51.948125 78.0928125 51.948125 78.1875 50.875 C79.92453821 44.72855711 84.6085087 41.04736465 90 38 C90.99 38 91.98 38 93 38 C93 35.69 93 33.38 93 31 C94.22976562 31.01160156 95.45953125 31.02320312 96.7265625 31.03515625 C98.35937347 31.04454022 99.9921861 31.05363977 101.625 31.0625 C102.43324219 31.07087891 103.24148437 31.07925781 104.07421875 31.08789062 C108.52361131 31.10597759 112.6075917 30.77229157 117 30 C119.29083289 29.93477127 121.58335794 29.9141159 123.875 29.9375 C125.02742188 29.94652344 126.17984375 29.95554687 127.3671875 29.96484375 C128.23601562 29.97644531 129.10484375 29.98804687 130 30 C130 29.01 130 28.02 130 27 C142.87 27 155.74 27 169 27 C169 27.99 169 28.98 169 30 C169.93199219 30.08636719 170.86398438 30.17273438 171.82421875 30.26171875 C183.08807527 31.50313469 193.82648358 33.94344891 203 41 C204.175625 41.86625 204.175625 41.86625 205.375 42.75 C206.179375 43.36875 206.179375 43.36875 207 44 C207.86625 43.34 208.7325 42.68 209.625 42 C213.32338822 39.80836254 214.80502454 39.30083742 219 40 C222.6578218 42.03993908 224.66946174 43.50419262 227 47 C227.54522803 50.06475543 227.54842924 52.93524839 227 56 C224.5625 59 224.5625 59 222 61 C221.67 61.33 221.34 61.66 221 62 C217.99668982 62.14193337 215.00782866 62.04236378 212 62 C211.34 65.96 210.68 69.92 210 74 C215.09831744 74.0134343 217.47500839 72.95319274 221.19140625 69.4296875 C222.66405724 67.92660436 224.12074617 66.40774452 225.5625 64.875 C226.29146484 64.12734375 227.02042969 63.3796875 227.77148438 62.609375 C231.11476196 59.15475514 234.3308733 55.64374674 237.40234375 51.9453125 C238.25957031 50.97335938 239.11679688 50.00140625 240 49 C240.66 49 241.32 49 242 49 C242.24532471 48.42797852 242.49064941 47.85595703 242.7434082 47.26660156 C244.21475473 44.61263203 245.93552401 42.85500817 248.10546875 40.734375 C248.92466797 39.92613281 249.74386719 39.11789063 250.58789062 38.28515625 C251.44576172 37.44855469 252.30363281 36.61195312 253.1875 35.75 C258.41866293 30.62740079 263.52501524 25.50218858 268.29125977 19.94238281 C271.33583589 16.48151017 274.60715955 13.24846591 277.875 10 C278.88820313 8.98099609 278.88820313 8.98099609 279.921875 7.94140625 C280.56382812 7.30074219 281.20578125 6.66007812 281.8671875 6 C282.73512939 5.13375 282.73512939 5.13375 283.62060547 4.25 C285 3 285 3 286 3 C286.80445149 7.66890086 287.05201731 11.43782972 284.33154297 15.47753906 C281.96213274 17.9868121 279.50390332 20.31769561 276.9375 22.625 C275.23609106 24.21901963 273.53684098 25.81534696 271.83984375 27.4140625 C271.00759277 28.1884668 270.1753418 28.96287109 269.31787109 29.76074219 C266.65091179 32.33724848 264.26613604 35.07055377 261.86547852 37.89208984 C257.11013292 43.26542499 251.84567644 48.18750144 246.73828125 53.22265625 C242.1979754 57.7236521 237.77138498 62.24018514 233.65039062 67.13085938 C232 69 232 69 229.34692383 71.30151367 C226.41289295 74.67505401 226.35137731 76.41245002 226.29296875 80.83203125 C226.26396484 82.12431641 226.23496094 83.41660156 226.20507812 84.74804688 C226.1986898 86.10286219 226.19283712 87.45768013 226.1875 88.8125 C226.16434252 90.1868884 226.13897455 91.56124144 226.11132812 92.93554688 C226.05247713 96.29005362 226.02337198 99.64505846 226 103 C219.73 103 213.46 103 207 103 C207.03609375 104.29679687 207.0721875 105.59359375 207.109375 106.9296875 C207.1045017 113.89606506 206.28196636 120.76887382 205.51843262 127.68276978 C203.68411502 144.37159813 202.1536457 161.08246542 200.75 177.8125 C200.66141724 178.84965149 200.57283447 179.88680298 200.48156738 180.9553833 C200.22782225 183.93472975 199.98008436 186.91451246 199.734375 189.89453125 C199.65956909 190.76913498 199.58476318 191.64373871 199.50769043 192.54484558 C198.14432183 202.97936949 198.14432183 202.97936949 200.546875 212.7421875 C201.27390625 213.44601563 202.0009375 214.14984375 202.75 214.875 C203.56726563 215.69484375 204.38453125 216.5146875 205.2265625 217.359375 C206.14179688 218.23078125 207.05703125 219.1021875 208 220 C209.5292657 221.51624642 211.04921179 223.04148884 212.56933594 224.56689453 C213.60839945 225.60758872 214.65073957 226.64502146 215.69628906 227.67919922 C218.99257779 230.94498624 222.0718841 234.3119029 225.06640625 237.8515625 C228.24369282 241.38188091 231.66804207 244.67247192 235.08984375 247.96484375 C236.42951597 249.27375819 237.71942545 250.63321272 239 252 C239 252.66 239 253.32 239 254 C239.66 254 240.32 254 241 254 C242.515625 255.5390625 242.515625 255.5390625 244.25 257.625 C246.54660073 260.34047759 248.87150775 262.91262264 251.4375 265.375 C254 268 254 268 254 270 C254.99 270.33 255.98 270.66 257 271 C258.54296875 272.56640625 258.54296875 272.56640625 260.1875 274.5625 C263.90026302 278.94958964 267.89038181 282.9864508 272 287 C270.48052501 290.36748512 269.47899158 291.60840337 266 293 C264.86067708 291.60026042 263.72135417 290.20052083 262.58203125 288.80078125 C259.47194206 285.26065503 256.03358794 282.03285328 252.66796875 278.73828125 C251.50775071 277.59641694 250.34759529 276.45448901 249.1875 275.3125 C248.59001953 274.73177734 247.99253906 274.15105469 247.37695312 273.55273438 C245.87985327 272.07274424 244.43511269 270.54017218 243 269 C243 268.34 243 267.68 243 267 C242.34 267 241.68 267 241 267 C239.66015625 265.63671875 239.66015625 265.63671875 238.0625 263.6875 C235.03120713 260.11196665 231.837603 256.79169374 228.5 253.5 C224.11765265 249.16600959 219.96242939 244.71975378 216 240 C215.91363281 240.70125 215.82726562 241.4025 215.73828125 242.125 C214.64229051 249.52545121 213.10329096 255.7862897 207 260.56640625 C199.0893372 265.67052876 191.16580785 265.96340024 182 265 C177.88868231 263.19172703 175.06581163 260.78340429 172.76152039 256.92767334 C171.13258894 254.76468845 171.13258894 254.76468845 168.43733215 254.48101807 C167.41363022 254.47213562 166.38992828 254.46325317 165.33520508 254.45410156 C164.17422806 254.43438293 163.01325104 254.41466431 161.8170929 254.39434814 C160.56389755 254.39311951 159.31070221 254.39189087 158.01953125 254.390625 C156.09484261 254.36582062 156.09484261 254.36582062 154.13127136 254.34051514 C150.72330858 254.29681772 147.31560329 254.27683778 143.90740967 254.26177979 C140.42835244 254.24221687 136.94957365 254.20024614 133.47070312 254.16015625 C126.64724032 254.08482899 119.82378771 254.034553 113 254 C113.01160156 254.78246094 113.02320313 255.56492187 113.03515625 256.37109375 C113.04417969 257.38300781 113.05320312 258.39492188 113.0625 259.4375 C113.07410156 260.44683594 113.08570313 261.45617187 113.09765625 262.49609375 C113 265 113 265 112 266 C109.64686445 266.07271741 107.29166332 266.08370868 104.9375 266.0625 C103.64714844 266.05347656 102.35679688 266.04445313 101.02734375 266.03515625 C99.52880859 266.01775391 99.52880859 266.01775391 98 266 C97.92652344 264.73542969 97.92652344 264.73542969 97.8515625 263.4453125 C97.73941406 261.80175781 97.73941406 261.80175781 97.625 260.125 C97.55539063 259.03445313 97.48578125 257.94390625 97.4140625 256.8203125 C97.26746509 253.86953526 97.26746509 253.86953526 95 252 C93.02 232.2 93.02 232.2 91 212 C64.27 238.73 37.54 265.46 10 293 C8.35 291.68 6.7 290.36 5 289 C6.37816687 285.88508078 7.94560858 283.83384815 10.39823914 281.4823761 C11.10080841 280.80307037 11.80337769 280.12376465 12.52723694 279.4238739 C13.68297462 278.32134026 13.68297462 278.32134026 14.86206055 277.1965332 C16.54391356 275.57400238 18.22551705 273.95121287 19.90690613 272.32820129 C20.80001181 271.46928598 21.69311749 270.61037067 22.61328697 269.72542763 C27.34153368 265.16559384 32.03262627 260.5677146 36.72851562 255.97460938 C42.70229882 250.13175097 48.68668186 244.30156475 54.72387695 238.52416992 C59.60444134 233.85338349 64.4357969 229.1358696 69.24164772 224.38826561 C71.07693591 222.591131 72.92820492 220.81016176 74.79559898 219.04641151 C85.45421844 209.85355256 85.45421844 209.85355256 90.92141724 197.50012207 C90.9102592 193.87483484 90.28791964 190.47480976 89.43685341 186.96021843 C88.7590812 183.91896583 88.62682724 180.87007714 88.44335938 177.76513672 C88.24580063 175.40312588 88.04588428 173.04131118 87.84375 170.6796875 C87.7365564 169.41077667 87.62936279 168.14186584 87.5189209 166.83450317 C87.23819406 163.51971396 86.95538724 160.20511055 86.67181396 156.89056396 C86.44114497 154.18456671 86.21362393 151.47830828 85.98607635 148.77204704 C85.71145822 145.51192456 85.43372655 142.25206775 85.15625 138.9921875 C85.00464417 137.19054642 85.00464417 137.19054642 84.84997559 135.35250854 C84.28386292 128.64287461 84.28386292 128.64287461 83.42773438 121.96630859 C83.05987555 119.41523285 82.92320133 117.11363071 83 114.546875 C83.0639578 104.88724913 82.59473998 98.59372503 75.5390625 91.34765625 C74.70117188 90.57292969 73.86328125 89.79820313 73 89 C71.45687927 87.43893601 69.91516412 85.87648109 68.375 84.3125 C67.6325 83.58933594 66.89 82.86617188 66.125 82.12109375 C63.49632932 79.49725519 61.09636564 76.7160392 58.6796875 73.8984375 C56.50735912 71.44320124 54.18206001 69.16919664 51.84301758 66.87426758 C50.06631602 65.06744046 48.40547695 63.20637115 46.75390625 61.28515625 C43.08596377 57.06707083 39.28336238 52.99310202 35.4375 48.9375 C34.02448973 47.44164222 32.61173415 45.94554383 31.19921875 44.44921875 C30.49587402 43.70462402 29.7925293 42.9600293 29.06787109 42.19287109 C20.86835566 33.49770609 12.73759547 24.73783267 4.64160156 15.94628906 C2.354483 13.44108467 2.354483 13.44108467 0 11 C-0.07226502 9.14712498 -0.0838122 7.29166122 -0.0625 5.4375 C-0.05347656 4.42558594 -0.04445313 3.41367188 -0.03515625 2.37109375 C-0.02355469 1.58863281 -0.01195312 0.80617188 0 0 Z " fill="#080808" transform="translate(16,11)"/>
<path d="M0 0 C0.99 0.495 0.99 0.495 2 1 C3.39342165 1.10330902 4.79155481 1.1464348 6.18875122 1.15821838 C7.06657257 1.1680072 7.94439392 1.17779602 8.84881592 1.18788147 C9.81410217 1.19363693 10.77938843 1.1993924 11.77392578 1.20532227 C13.29592087 1.22017166 13.29592087 1.22017166 14.84866333 1.23532104 C18.21418903 1.26699669 21.57972887 1.29171745 24.9453125 1.31640625 C27.27416356 1.33697054 29.60301084 1.35796687 31.93185425 1.37937927 C38.07046455 1.43465416 44.20910883 1.48403953 50.34777832 1.53222656 C57.70829498 1.59121917 65.06874934 1.65747688 72.42921448 1.72252655 C83.61943837 1.82060419 94.80970165 1.90941371 106 2 C106 21.47 106 40.94 106 61 C27.13 61 -51.74 61 -133 61 C-133 41.53 -133 22.06 -133 2 C-118.72427734 1.90912109 -118.72427734 1.90912109 -104.16015625 1.81640625 C-98.14908415 1.77593561 -92.13801547 1.73521543 -86.12695312 1.69335938 C-76.57529335 1.62689636 -67.02363427 1.56148415 -57.47192383 1.50268555 C-50.51673397 1.45986597 -43.56157727 1.4135937 -36.60643858 1.36312145 C-32.92150021 1.33650249 -29.2365685 1.31164906 -25.55159187 1.29092598 C-21.44458235 1.26776498 -17.33766634 1.23689778 -13.23071289 1.20532227 C-11.38465958 1.19668907 -11.38465958 1.19668907 -9.50131226 1.18788147 C-8.38926926 1.17809265 -7.27722626 1.16830383 -6.13148499 1.15821838 C-4.67274759 1.14853956 -4.67274759 1.14853956 -3.18454075 1.1386652 C-1.02273988 1.24303742 -1.02273988 1.24303742 0 0 Z " fill="#010101" transform="translate(172,340)"/>
<path d="M0 0 C38.28 0 76.56 0 116 0 C116 4.29 116 8.58 116 13 C114.68 13 113.36 13 112 13 C112.15662109 14.77503906 112.15662109 14.77503906 112.31640625 16.5859375 C113.08279216 29.05652688 113.08279216 29.05652688 110.171875 34.28125 C107.90336706 36.77510641 105.64136262 38.90874629 103 41 C100.25845097 43.17531528 97.72898054 45.27101946 95.25 47.75 C94.5075 48.4925 93.765 49.235 93 50 C92.67 50 92.34 50 92 50 C92 47.36 92 44.72 92 42 C75.5 42 59 42 42 42 C42 47.28 42 52.56 42 58 C56.19 58 70.38 58 85 58 C81.16413313 62.47517801 77.38053148 66.77797722 73.234375 70.93359375 C72.45516693 71.71779442 72.45516693 71.71779442 71.66021729 72.51783752 C70.57588478 73.60718121 69.49024241 74.69522256 68.40332031 75.78198242 C66.73473007 77.45279023 65.07433852 79.13148172 63.4140625 80.81054688 C62.35465512 81.87288317 61.29477658 82.93474985 60.234375 83.99609375 C59.73854919 84.49910507 59.24272339 85.00211639 58.73187256 85.52037048 C55.22886363 89 55.22886363 89 53 89 C51.5546875 87.53125 51.5546875 87.53125 49.875 85.5 C46.62106119 81.6500766 43.15227282 78.13935665 39.50390625 74.6640625 C38 73 38 73 38 71 C37.34 71 36.68 71 36 71 C34.66015625 69.63671875 34.66015625 69.63671875 33.0625 67.6875 C29.59377117 63.59599313 25.87120949 59.83839276 22.0534668 56.07348633 C18.81924318 52.8648297 15.77743085 49.56674908 12.87084961 46.06054688 C11.02608263 43.93689766 11.02608263 43.93689766 8.7565918 42.10986328 C4.02266212 38.03576742 1.46367348 35.05834645 0.68359375 28.75 C0.55884874 26.50196357 0.47751452 24.25113926 0.4375 22 C0.38271484 20.8759375 0.32792969 19.751875 0.27148438 18.59375 C-0.00760863 12.38846146 0 6.21584225 0 0 Z " fill="#FCFCFC" transform="translate(103,72)"/>
<path d="M0 0 C1.32 0 2.64 0 4 0 C4.2316039 8.32119721 3.4299937 16.42846726 2.51843262 24.68276978 C0.68411502 41.37159813 -0.8463543 58.08246542 -2.25 74.8125 C-2.33858276 75.84965149 -2.42716553 76.88680298 -2.51843262 77.9553833 C-2.77217775 80.93472975 -3.01991564 83.91451246 -3.265625 86.89453125 C-3.37783386 88.20643684 -3.37783386 88.20643684 -3.49230957 89.54484558 C-4.85567817 99.97936949 -4.85567817 99.97936949 -2.453125 109.7421875 C-1.72609375 110.44601563 -0.9990625 111.14984375 -0.25 111.875 C0.97589844 113.10476562 0.97589844 113.10476562 2.2265625 114.359375 C3.14179688 115.23078125 4.05703125 116.1021875 5 117 C6.5292657 118.51624642 8.04921179 120.04148884 9.56933594 121.56689453 C10.60839945 122.60758872 11.65073957 123.64502146 12.69628906 124.67919922 C15.99257779 127.94498624 19.0718841 131.3119029 22.06640625 134.8515625 C25.24369282 138.38188091 28.66804207 141.67247192 32.08984375 144.96484375 C33.42951597 146.27375819 34.71942545 147.63321272 36 149 C36 149.66 36 150.32 36 151 C36.66 151 37.32 151 38 151 C39.515625 152.5390625 39.515625 152.5390625 41.25 154.625 C43.54660073 157.34047759 45.87150775 159.91262264 48.4375 162.375 C51 165 51 165 51 167 C51.99 167.33 52.98 167.66 54 168 C55.54296875 169.56640625 55.54296875 169.56640625 57.1875 171.5625 C60.90026302 175.94958964 64.89038181 179.9864508 69 184 C67.48052501 187.36748512 66.47899158 188.60840337 63 190 C61.86067708 188.60026042 60.72135417 187.20052083 59.58203125 185.80078125 C56.47194206 182.26065503 53.03358794 179.03285328 49.66796875 175.73828125 C48.50775071 174.59641694 47.34759529 173.45448901 46.1875 172.3125 C45.59001953 171.73177734 44.99253906 171.15105469 44.37695312 170.55273438 C42.87985327 169.07274424 41.43511269 167.54017218 40 166 C40 165.34 40 164.68 40 164 C39.34 164 38.68 164 38 164 C36.66015625 162.63671875 36.66015625 162.63671875 35.0625 160.6875 C32.03120713 157.11196665 28.837603 153.79169374 25.5 150.5 C21.11765265 146.16600959 16.96242939 141.71975378 13 137 C12.91363281 137.70125 12.82726562 138.4025 12.73828125 139.125 C11.64229051 146.52545121 10.10329096 152.7862897 4 157.56640625 C-3.9106628 162.67052876 -11.83419215 162.96340024 -21 162 C-25.11131769 160.19172703 -27.93418837 157.78340429 -30.23847961 153.92767334 C-31.86741106 151.76468845 -31.86741106 151.76468845 -34.56266785 151.48101807 C-35.58636978 151.47213562 -36.61007172 151.46325317 -37.66479492 151.45410156 C-38.82577194 151.43438293 -39.98674896 151.41466431 -41.1829071 151.39434814 C-42.43610245 151.39311951 -43.68929779 151.39189087 -44.98046875 151.390625 C-46.90515739 151.36582062 -46.90515739 151.36582062 -48.86872864 151.34051514 C-52.27669142 151.29681772 -55.68439671 151.27683778 -59.09259033 151.26177979 C-62.57164756 151.24221687 -66.05042635 151.20024614 -69.52929688 151.16015625 C-76.35275968 151.08482899 -83.17621229 151.034553 -90 151 C-89.98839844 151.78246094 -89.97679687 152.56492187 -89.96484375 153.37109375 C-89.95582031 154.38300781 -89.94679688 155.39492188 -89.9375 156.4375 C-89.92589844 157.44683594 -89.91429687 158.45617187 -89.90234375 159.49609375 C-90 162 -90 162 -91 163 C-93.35313555 163.07271741 -95.70833668 163.08370868 -98.0625 163.0625 C-99.35285156 163.05347656 -100.64320312 163.04445313 -101.97265625 163.03515625 C-103.47119141 163.01775391 -103.47119141 163.01775391 -105 163 C-105.04898438 162.15695312 -105.09796875 161.31390625 -105.1484375 160.4453125 C-105.26058594 158.80175781 -105.26058594 158.80175781 -105.375 157.125 C-105.47941406 155.48917969 -105.47941406 155.48917969 -105.5859375 153.8203125 C-105.73253491 150.86953526 -105.73253491 150.86953526 -108 149 C-109.98 129.2 -109.98 129.2 -112 109 C-138.73 135.73 -165.46 162.46 -193 190 C-194.65 188.68 -196.3 187.36 -198 186 C-196.63415283 182.94224821 -195.08911635 180.84118809 -192.72238159 178.48187256 C-191.70855911 177.46392609 -191.70855911 177.46392609 -190.67425537 176.42541504 C-189.56295258 175.32489807 -189.56295258 175.32489807 -188.42919922 174.20214844 C-187.64862152 173.42127869 -186.86804382 172.64040894 -186.06381226 171.83587646 C-183.48214955 169.25560727 -180.89347442 166.68249478 -178.3046875 164.109375 C-176.51349081 162.32190835 -174.72273512 160.53399968 -172.93240356 158.7456665 C-168.70039428 154.52051369 -164.46396242 150.2998454 -160.22535431 146.08131623 C-155.39920285 141.27753114 -150.57873937 136.46805558 -145.75874305 131.65809584 C-135.84547392 121.76572333 -125.92509034 111.88051113 -116 102 C-115.34 102.33 -114.68 102.66 -114 103 C-114 103.66 -114 104.32 -114 105 C-112.515 105.495 -112.515 105.495 -111 106 C-110.01 105.01 -109.02 104.02 -108 103 C-107.34 103.33 -106.68 103.66 -106 104 C-106.04125 103.071875 -106.0825 102.14375 -106.125 101.1875 C-106 98 -106 98 -104 95 C-103.34 95 -102.68 95 -102 95 C-101.505 93.02 -101.505 93.02 -101 91 C-99.515 91.495 -99.515 91.495 -98 92 C-98.4039363 94.82755408 -98.73466056 95.79038695 -101.02734375 97.6015625 C-103.87233317 101.06061895 -103.47341883 104.35846451 -103.3125 108.625 C-103.28929688 109.84376831 -103.28929688 109.84376831 -103.265625 111.0871582 C-103.16828453 115.14098331 -102.95696863 119.15662749 -102.5 123.1875 C-101.81730908 129.75840011 -102 136.39373062 -102 143 C-79.89 143 -57.78 143 -35 143 C-35 140.03 -35 137.06 -35 134 C-33.01338122 127.30774963 -29.09067027 121.52189521 -23 118 C-19.71662727 116.73753359 -16.42684293 115.78603641 -13 115 C-11.76485156 109.63540008 -12.25603781 105.23188657 -14 100 C-13.01 100 -12.02 100 -11 100 C-11.01187347 99.14731033 -11.02374695 98.29462067 -11.03598022 97.41609192 C-11.10194517 89.01210748 -10.7191674 80.75489743 -9.9765625 72.38671875 C-9.81720718 70.50772636 -9.81720718 70.50772636 -9.65463257 68.59077454 C-9.37353453 65.28753258 -9.08749486 61.98477209 -8.79876709 58.68218994 C-8.51304762 55.4023873 -8.23332608 52.12207487 -7.953125 48.84179688 C-7.62297203 44.97751875 -7.2924277 41.1132801 -6.95953369 37.24923706 C-5.9205007 25.17030815 -4.9488701 13.08631197 -4 1 C-1.83125748 1.50603992 -0.00032373 1.99983813 2 3 C2 2.34 2 1.68 2 1 C1.01 0.505 1.01 0.505 0 0 Z " fill="#0E0E0E" transform="translate(219,114)"/>
<path d="M0 0 C1.4453125 1.46875 1.4453125 1.46875 3.125 3.5 C6.8696013 7.90358911 10.87550096 11.95451435 15 16 C19.61247713 20.5241155 24.02010101 25.11787126 28.23632812 30.01367188 C31.25379269 33.41207881 34.50533695 36.57036026 37.75 39.75 C39.05966828 41.03403876 40.36704231 42.32042263 41.671875 43.609375 C42.2400293 44.16592773 42.80818359 44.72248047 43.39355469 45.29589844 C47.95682876 50.13657519 47.95682876 50.13657519 48.1875 54.75 C48.125625 55.8225 48.06375 56.895 48 58 C47.35933594 58.14695313 46.71867187 58.29390625 46.05859375 58.4453125 C38.93792494 60.29180486 33.68206327 62.65800124 29.71875 69.07421875 C26.99097117 74.65642328 26.73945252 78.3449273 26 85 C3.89 85 -18.22 85 -41 85 C-44.38028179 42.74647765 -44.38028179 42.74647765 -39.51660156 36.85498047 C-37.47930627 34.68829905 -35.38562148 32.77552812 -33 31 C-32.34 31 -31.68 31 -31 31 C-30.79439453 30.46987305 -30.58878906 29.93974609 -30.37695312 29.39355469 C-28.42575616 26.00179316 -25.72455618 23.43949413 -22.96875 20.703125 C-22.37703003 20.10949158 -21.78531006 19.51585815 -21.17565918 18.90423584 C-19.92734419 17.65456282 -18.67651177 16.40740008 -17.42333984 15.16259766 C-15.49992003 13.24992048 -13.58743901 11.32676881 -11.67578125 9.40234375 C-10.46157861 8.18946202 -9.24675607 6.97720048 -8.03125 5.765625 C-7.45725464 5.18758118 -6.88325928 4.60953735 -6.29187012 4.01397705 C-2.22993434 0 -2.22993434 0 0 0 Z " fill="#FDFDFD" transform="translate(158,172)"/>
<path d="M0 0 C12.87 0 25.74 0 39 0 C39 0.99 39 1.98 39 3 C39.93199219 3.08636719 40.86398438 3.17273437 41.82421875 3.26171875 C53.08807527 4.50313469 63.82648358 6.94344891 73 14 C73.78375 14.5775 74.5675 15.155 75.375 15.75 C75.91125 16.1625 76.4475 16.575 77 17 C77.86625 16.34 78.7325 15.68 79.625 15 C83.32338822 12.80836254 84.80502454 12.30083742 89 13 C92.6578218 15.03993908 94.66946174 16.50419262 97 20 C97.54522803 23.06475543 97.54842924 25.93524839 97 29 C94.5625 32 94.5625 32 92 34 C91.67 34.33 91.34 34.66 91 35 C87.99668982 35.14193337 85.00782866 35.04236378 82 35 C81.34 38.96 80.68 42.92 80 47 C82.31 47 84.62 47 87 47 C87 47.33 87 47.66 87 48 C86.40832031 48.06058594 85.81664062 48.12117188 85.20703125 48.18359375 C81.09021792 48.62012371 77.04455467 49.08671346 73 50 C73 49.34 73 48.68 73 48 C71.68 47.67 70.36 47.34 69 47 C70.32 47 71.64 47 73 47 C73 42.71 73 38.42 73 34 C34.72 34 -3.56 34 -43 34 C-42.67 36.97 -42.34 39.94 -42 43 C-41.93610718 45.86495421 -41.90262928 48.70041824 -41.9375 51.5625 C-41.94201172 52.28501953 -41.94652344 53.00753906 -41.95117188 53.75195312 C-41.96275721 55.50133944 -41.98068238 57.25068199 -42 59 C-45.01031744 59.93423645 -45.86650268 60.04449911 -49 59 C-49.72413373 55.68856994 -50.16354255 52.52155779 -50.31640625 49.13671875 C-50.35830078 48.25048828 -50.40019531 47.36425781 -50.44335938 46.45117188 C-50.48267578 45.53916016 -50.52199219 44.62714844 -50.5625 43.6875 C-50.60568359 42.75615234 -50.64886719 41.82480469 -50.69335938 40.86523438 C-50.79897124 38.57697723 -50.89994435 36.28850682 -51 34 C-54.63 34 -58.26 34 -62 34 C-62 31.36 -62 28.72 -62 26 C-58.7 26 -55.4 26 -52 26 C-51.938125 25.29875 -51.87625 24.5975 -51.8125 23.875 C-50.07546179 17.72855711 -45.3914913 14.04736465 -40 11 C-39.01 11 -38.02 11 -37 11 C-37 8.69 -37 6.38 -37 4 C-35.77023438 4.01160156 -34.54046875 4.02320313 -33.2734375 4.03515625 C-31.64062653 4.04454022 -30.0078139 4.05363977 -28.375 4.0625 C-27.56675781 4.07087891 -26.75851563 4.07925781 -25.92578125 4.08789062 C-21.47638869 4.10597759 -17.3924083 3.77229157 -13 3 C-10.70916711 2.93477127 -8.41664206 2.9141159 -6.125 2.9375 C-4.97257812 2.94652344 -3.82015625 2.95554688 -2.6328125 2.96484375 C-1.76398438 2.97644531 -0.89515625 2.98804688 0 3 C0 2.01 0 1.02 0 0 Z " fill="#0F0F0F" transform="translate(146,38)"/>
<path d="M0 0 C1.19978545 3.59935634 0.91613796 6.03312054 0.6171875 9.8203125 C0.56281021 10.52753952 0.50843292 11.23476654 0.45240784 11.96342468 C0.26660727 14.35119466 0.07123338 16.7380661 -0.125 19.125 C-0.26049909 20.81468414 -0.39582986 22.50438178 -0.53100586 24.1940918 C-0.92019501 29.020252 -1.32090018 33.84540924 -1.72344971 38.67047119 C-2.02038271 42.24539774 -2.31290859 45.82066924 -2.60498047 49.39599609 C-3.13806912 55.90669252 -3.6826163 62.41635175 -4.23455811 68.92547607 C-4.45344046 71.51984098 -4.66945784 74.11444917 -4.88262939 76.70928955 C-5.18507054 80.376015 -5.49921927 84.04155586 -5.81640625 87.70703125 C-5.90595078 88.81986984 -5.9954953 89.93270844 -6.0877533 91.07926941 C-6.22329369 92.60394585 -6.22329369 92.60394585 -6.36157227 94.15942383 C-6.43690689 95.04994949 -6.51224152 95.94047516 -6.58985901 96.85798645 C-7 99 -7 99 -9 101 C-22.00960699 88.16646288 -22.00960699 88.16646288 -27.39453125 81.82421875 C-29.80902688 79.08074074 -32.43210799 76.55917198 -35.03515625 73.99609375 C-36.92230744 72.07892823 -38.68685375 70.10424678 -40.4375 68.0625 C-44.38435854 63.46696795 -48.67483483 59.23689649 -53 55 C-48.17865772 49.22776125 -43.02334033 43.95249406 -37.65429688 38.69335938 C-34.58995221 35.66680724 -31.62982104 32.61892872 -28.8359375 29.33984375 C-23.57996688 23.24333291 -17.77188473 17.66663895 -12.0625 12 C-10.88973991 10.83226626 -9.71721202 9.66429926 -8.54492188 8.49609375 C-5.69928311 5.66136766 -2.85052547 2.82981176 0 0 Z " fill="#FBFBFB" transform="translate(215,112)"/>
<path d="M0 0 C1.32 0 2.64 0 4 0 C4.2316039 8.32119721 3.4299937 16.42846726 2.51843262 24.68276978 C0.68411502 41.37159813 -0.8463543 58.08246542 -2.25 74.8125 C-2.33858276 75.84965149 -2.42716553 76.88680298 -2.51843262 77.9553833 C-2.77217775 80.93472975 -3.01991564 83.91451246 -3.265625 86.89453125 C-3.34043091 87.76913498 -3.41523682 88.64373871 -3.49230957 89.54484558 C-4.85567817 99.97936949 -4.85567817 99.97936949 -2.453125 109.7421875 C-1.36257812 110.79792969 -1.36257812 110.79792969 -0.25 111.875 C0.56726563 112.69484375 1.38453125 113.5146875 2.2265625 114.359375 C3.14179688 115.23078125 4.05703125 116.1021875 5 117 C6.5292657 118.51624642 8.04921179 120.04148884 9.56933594 121.56689453 C10.60839945 122.60758872 11.65073957 123.64502146 12.69628906 124.67919922 C15.99257779 127.94498624 19.0718841 131.3119029 22.06640625 134.8515625 C25.24369282 138.38188091 28.66804207 141.67247192 32.08984375 144.96484375 C33.42951597 146.27375819 34.71942545 147.63321272 36 149 C36 149.66 36 150.32 36 151 C36.66 151 37.32 151 38 151 C39.515625 152.5390625 39.515625 152.5390625 41.25 154.625 C43.54660073 157.34047759 45.87150775 159.91262264 48.4375 162.375 C51 165 51 165 51 167 C51.99 167.33 52.98 167.66 54 168 C55.54296875 169.56640625 55.54296875 169.56640625 57.1875 171.5625 C60.90026302 175.94958964 64.89038181 179.9864508 69 184 C67.48052501 187.36748512 66.47899158 188.60840337 63 190 C61.86067708 188.60026042 60.72135417 187.20052083 59.58203125 185.80078125 C56.47194206 182.26065503 53.03358794 179.03285328 49.66796875 175.73828125 C48.50775071 174.59641694 47.34759529 173.45448901 46.1875 172.3125 C45.59001953 171.73177734 44.99253906 171.15105469 44.37695312 170.55273438 C42.87985327 169.07274424 41.43511269 167.54017218 40 166 C40 165.34 40 164.68 40 164 C39.34 164 38.68 164 38 164 C36.66015625 162.63671875 36.66015625 162.63671875 35.0625 160.6875 C32.03120713 157.11196665 28.837603 153.79169374 25.5 150.5 C21.11765265 146.16600959 16.96242939 141.71975378 13 137 C12.91363281 137.70125 12.82726562 138.4025 12.73828125 139.125 C11.64229051 146.52545121 10.10329096 152.7862897 4 157.56640625 C-1.3262915 161.00303919 -5.29229744 162.12581884 -11.6875 162.0625 C-12.86699219 162.05347656 -14.04648438 162.04445313 -15.26171875 162.03515625 C-16.16535156 162.02355469 -17.06898438 162.01195312 -18 162 C-18 161.34 -18 160.68 -18 160 C-18.66 160.33 -19.32 160.66 -20 161 C-20.33 160.01 -20.66 159.02 -21 158 C-20.34 157.01 -19.68 156.02 -19 155 C-18.34 155 -17.68 155 -17 155 C-17 154.34 -17 153.68 -17 153 C-16.00419922 152.72736328 -16.00419922 152.72736328 -14.98828125 152.44921875 C-6.95558604 150.39957625 -6.95558604 150.39957625 -0.6875 145.3125 C0.60281804 140.97233932 1.04384511 137.02560277 -1.05078125 132.9609375 C-3.50771828 129.40608343 -3.50771828 129.40608343 -7 127 C-13.43058641 126.33014725 -18.18305926 128.37828023 -24 131 C-24.66 130.01 -25.32 129.02 -26 128 C-26.66 128 -27.32 128 -28 128 C-28.495 128.99 -28.495 128.99 -29 130 C-29.6875 128.3125 -29.6875 128.3125 -30 126 C-28.05785166 121.43023919 -25.27950695 119.37750386 -21 117 C-18.03614073 115.86675969 -15.04424937 114.89297981 -12 114 C-11.7006013 106.77967794 -11.7006013 106.77967794 -14 100 C-13.01 100 -12.02 100 -11 100 C-11.01187347 99.14731033 -11.02374695 98.29462067 -11.03598022 97.41609192 C-11.10194517 89.01210748 -10.7191674 80.75489743 -9.9765625 72.38671875 C-9.87032562 71.13405716 -9.76408875 69.88139557 -9.65463257 68.59077454 C-9.37353453 65.28753258 -9.08749486 61.98477209 -8.79876709 58.68218994 C-8.51304762 55.4023873 -8.23332608 52.12207487 -7.953125 48.84179688 C-7.62297203 44.97751875 -7.2924277 41.1132801 -6.95953369 37.24923706 C-5.9205007 25.17030815 -4.9488701 13.08631197 -4 1 C-1.83125748 1.50603992 -0.00032373 1.99983813 2 3 C2 2.34 2 1.68 2 1 C1.34 0.67 0.68 0.34 0 0 Z " fill="#080808" transform="translate(219,114)"/>
<path d="M0 0 C4.50267181 3.67565046 8.35839581 7.43869462 12.1171875 11.86328125 C14.15639232 14.17748257 16.30243458 16.33595677 18.5 18.5 C21.26560408 21.22829407 23.91287031 23.98516834 26.4375 26.9375 C29.95342377 31.04213659 33.77797857 34.79366738 37.62109375 38.58984375 C40.5912066 41.59897286 43.3081994 44.74150454 46 48 C44.61222556 51.12265393 42.99953492 53.25298689 40.59179688 55.66699219 C39.897677 56.36741638 39.20355713 57.06784058 38.48840332 57.78948975 C37.73941772 58.53442688 36.99043213 59.27936401 36.21875 60.046875 C35.0648175 61.20367767 35.0648175 61.20367767 33.88757324 62.3838501 C32.26263173 64.01015129 30.63516701 65.63393476 29.00537109 67.25537109 C26.50254825 69.74746268 24.01059437 72.25006592 21.51953125 74.75390625 C19.94074532 76.33137112 18.36133939 77.90821577 16.78125 79.484375 C15.65777161 80.61392609 15.65777161 80.61392609 14.51159668 81.76629639 C13.81747681 82.45411194 13.12335693 83.14192749 12.40820312 83.85058594 C11.79690552 84.46029236 11.18560791 85.06999878 10.55578613 85.69818115 C9 87 9 87 7 87 C6.23406306 77.72384651 5.46896727 68.44762412 4.7049036 59.17131615 C4.34997681 54.86254985 3.99477563 50.55380655 3.63891602 46.24511719 C3.29459364 42.0759894 2.95103298 37.90679944 2.60796928 33.7375679 C2.47788264 32.15819756 2.34753554 30.57884866 2.21690559 28.99952316 C1.41787517 19.33668969 0.66710225 9.67301268 0 0 Z " fill="#FCFCFC" transform="translate(106,118)"/>
<path d="M0 0 C0.80445149 4.66890086 1.05201731 8.43782972 -1.66845703 12.47753906 C-4.03786726 14.9868121 -6.49609668 17.31769561 -9.0625 19.625 C-10.76390894 21.21901963 -12.46315902 22.81534696 -14.16015625 24.4140625 C-14.99240723 25.1884668 -15.8246582 25.96287109 -16.68212891 26.76074219 C-19.34908821 29.33724848 -21.73386396 32.07055377 -24.13452148 34.89208984 C-28.88986708 40.26542499 -34.15432356 45.18750144 -39.26171875 50.22265625 C-43.8020246 54.7236521 -48.22861502 59.24018514 -52.34960938 64.13085938 C-54 66 -54 66 -56.65307617 68.30151367 C-59.58710705 71.67505401 -59.64862269 73.41245002 -59.70703125 77.83203125 C-59.73603516 79.12431641 -59.76503906 80.41660156 -59.79492188 81.74804688 C-59.8013102 83.10286219 -59.80716288 84.45768013 -59.8125 85.8125 C-59.83565748 87.1868884 -59.86102545 88.56124144 -59.88867188 89.93554688 C-59.94752287 93.29005362 -59.97662802 96.64505846 -60 100 C-70.395 100.495 -70.395 100.495 -81 101 C-81 101.66 -81 102.32 -81 103 C-82.65 102.34 -84.3 101.68 -86 101 C-86 100.01 -86 99.02 -86 98 C-86.7425 98.495 -87.485 98.99 -88.25 99.5 C-91 101 -91 101 -95 101 C-95 97 -95 97 -93.50390625 95.45703125 C-92.86324219 94.91433594 -92.22257813 94.37164062 -91.5625 93.8125 C-85.93013487 87.87353435 -86.93872103 79.70364135 -87 72 C-85.68 72 -84.36 72 -83 72 C-83 72.66 -83 73.32 -83 74 C-82.34 74 -81.68 74 -81 74 C-80.505 73.01 -80.505 73.01 -80 72 C-76.37 72 -72.74 72 -69 72 C-68.34 70.68 -67.68 69.36 -67 68 C-65.49121094 66.2800293 -65.49121094 66.2800293 -63.734375 64.57421875 C-62.76951172 63.62579102 -62.76951172 63.62579102 -61.78515625 62.65820312 C-61.11355469 62.00787109 -60.44195312 61.35753906 -59.75 60.6875 C-55.32720367 56.3820077 -51.09261038 52.08792088 -47.23535156 47.26098633 C-46.82768555 46.84486084 -46.42001953 46.42873535 -46 46 C-45.34 46 -44.68 46 -44 46 C-43.63201294 45.14196777 -43.63201294 45.14196777 -43.2565918 44.26660156 C-41.78524527 41.61263203 -40.06447599 39.85500817 -37.89453125 37.734375 C-36.66573242 36.52201172 -36.66573242 36.52201172 -35.41210938 35.28515625 C-34.55423828 34.44855469 -33.69636719 33.61195312 -32.8125 32.75 C-27.58133707 27.62740079 -22.47498476 22.50218858 -17.70874023 16.94238281 C-14.66416411 13.48151017 -11.39284045 10.24846591 -8.125 7 C-7.44953125 6.32066406 -6.7740625 5.64132813 -6.078125 4.94140625 C-5.11519531 3.98041016 -5.11519531 3.98041016 -4.1328125 3 C-3.55418457 2.4225 -2.97555664 1.845 -2.37939453 1.25 C-1 0 -1 0 0 0 Z " fill="#080808" transform="translate(302,14)"/>
<path d="M0 0 C0 2.31 0 4.62 0 7 C13.2 7 26.4 7 40 7 C40 5.02 40 3.04 40 1 C51.19602806 1.43311521 62.54705095 4.13679158 71 12 C71.495 13.98 71.495 13.98 72 16 C40.98 16 9.96 16 -22 16 C-22 11.38 -22 6.76 -22 2 C-14.56340812 -0.01670288 -7.68395543 -0.2137731 0 0 Z " fill="#F7F7F7" transform="translate(146,48)"/>
<path d="M0 0 C12.21 0 24.42 0 37 0 C37 1.65 37 3.3 37 5 C37.99 4.67 38.98 4.34 40 4 C39.34 8.29 38.68 12.58 38 17 C25.13 17 12.26 17 -1 17 C-1 14.69 -1 12.38 -1 10 C-5.95 10.33 -10.9 10.66 -16 11 C-15.67 9.02 -15.34 7.04 -15 5 C-13.02 4.67 -11.04 4.34 -9 4 C-9 4.66 -9 5.32 -9 6 C-8.071875 5.79375 -7.14375 5.5875 -6.1875 5.375 C-3 5 -3 5 0 7 C0 5.68 0 4.36 0 3 C0 2.01 0 1.02 0 0 Z " fill="#040404" transform="translate(147,38)"/>
<path d="M0 0 C0.80445149 4.66890086 1.05201731 8.43782972 -1.66845703 12.47753906 C-4.03786726 14.9868121 -6.49609668 17.31769561 -9.0625 19.625 C-10.76390894 21.21901963 -12.46315902 22.81534696 -14.16015625 24.4140625 C-14.99240723 25.1884668 -15.8246582 25.96287109 -16.68212891 26.76074219 C-19.34908821 29.33724848 -21.73386396 32.07055377 -24.13452148 34.89208984 C-28.88986708 40.26542499 -34.15432356 45.18750144 -39.26171875 50.22265625 C-44.39771389 55.3141839 -49.3150387 60.49174344 -54 66 C-57.23195858 69.61671555 -59.07844679 71.57815258 -64 72 C-63.67 73.32 -63.34 74.64 -63 76 C-64.485 76.495 -64.485 76.495 -66 77 C-67.25664978 74.09399739 -68 72.20395416 -68 69 C-66.62646484 67.30175781 -66.62646484 67.30175781 -64.7109375 65.453125 C-64.01613281 64.7725 -63.32132813 64.091875 -62.60546875 63.390625 C-61.86941406 62.68421875 -61.13335937 61.9778125 -60.375 61.25 C-54.26154802 55.3304971 -54.26154802 55.3304971 -48.6015625 48.984375 C-47.74304688 47.99953125 -46.88453125 47.0146875 -46 46 C-45.34 46 -44.68 46 -44 46 C-43.75467529 45.42797852 -43.50935059 44.85595703 -43.2565918 44.26660156 C-41.78524527 41.61263203 -40.06447599 39.85500817 -37.89453125 37.734375 C-36.66573242 36.52201172 -36.66573242 36.52201172 -35.41210938 35.28515625 C-34.55423828 34.44855469 -33.69636719 33.61195312 -32.8125 32.75 C-27.58133707 27.62740079 -22.47498476 22.50218858 -17.70874023 16.94238281 C-14.66416411 13.48151017 -11.39284045 10.24846591 -8.125 7 C-7.44953125 6.32066406 -6.7740625 5.64132813 -6.078125 4.94140625 C-5.11519531 3.98041016 -5.11519531 3.98041016 -4.1328125 3 C-3.55418457 2.4225 -2.97555664 1.845 -2.37939453 1.25 C-1 0 -1 0 0 0 Z " fill="#0F0F0F" transform="translate(302,14)"/>
<path d="M0 0 C0 0.66 0 1.32 0 2 C0.66 2.33 1.32 2.66 2 3 C0.35 4.98 -1.3 6.96 -3 9 C-2.58226318 9.4125 -2.16452637 9.825 -1.73413086 10.25 C12.30494705 24.13603704 12.30494705 24.13603704 17.46484375 30.24609375 C19.84615337 32.96672485 22.44819034 35.4567125 25.0234375 37.9921875 C27.58280625 40.59202058 29.946844 43.33615647 32.32421875 46.1015625 C34.76268691 48.86402294 37.36309585 51.42741059 40 54 C40.66 53.67 41.32 53.34 42 53 C42 53.99 42 54.98 42 56 C41.01 56.495 41.01 56.495 40 57 C40.33 57.66 40.66 58.32 41 59 C42.28687011 62.86061033 42.13757618 65.94150283 42 70 C41.01 70.495 41.01 70.495 40 71 C39.855625 70.05125 39.71125 69.1025 39.5625 68.125 C37.51538054 61.04537852 31.04769533 56.01636723 25.9609375 50.984375 C25.45812256 50.48647461 24.95530762 49.98857422 24.43725586 49.47558594 C22.99671795 48.0582636 21.54352963 46.65383383 20.08984375 45.25 C18 43 18 43 18 41 C16.515 40.505 16.515 40.505 15 40 C13.47241211 38.44677734 13.47241211 38.44677734 11.83984375 36.4609375 C7.3244211 31.13651648 2.35065904 26.33209363 -2.65429688 21.47265625 C-3.34458984 20.79332031 -4.03488281 20.11398438 -4.74609375 19.4140625 C-5.37185303 18.8051416 -5.9976123 18.1962207 -6.64233398 17.56884766 C-8 16 -8 16 -8 14 C-9.65 14.66 -11.3 15.32 -13 16 C-13.33 14.68 -13.66 13.36 -14 12 C-13.01 11.67 -12.02 11.34 -11 11 C-11 10.34 -11 9.68 -11 9 C-11.99 8.67 -12.98 8.34 -14 8 C-13.01 8 -12.02 8 -11 8 C-10.67 6.68 -10.34 5.36 -10 4 C-10 4.66 -10 5.32 -10 6 C-8.02 6 -6.04 6 -4 6 C-4.33 5.01 -4.66 4.02 -5 3 C-2.25 0 -2.25 0 0 0 Z " fill="#101010" transform="translate(166,158)"/>
<path d="M0 0 C3.80880012 2.33721825 6.22694656 4.89398152 8 9 C8.54333853 13.89004676 8.52109104 15.99503871 6.25 20.375 C3.67072126 23.38415853 1.77105688 24.65953805 -2.11328125 25.40625 C-6.71564602 25.60244317 -9.3941182 25.18372756 -13 22.1875 C-16.13514673 19.24829995 -16.90350307 17.02286743 -17.3125 12.6875 C-16.93568959 8.24113718 -15.90226622 6.36051878 -13 3 C-8.64580981 0.09720654 -5.19498122 -0.66117943 0 0 Z " fill="#EFEFEF" transform="translate(212,240)"/>
<path d="M0 0 C0.78375 0.66 1.5675 1.32 2.375 2 C4.71512812 4.20201441 4.71512812 4.20201441 7 4 C6.67 3.01 6.34 2.02 6 1 C9 1 9 1 11.26171875 2.8984375 C12.06222656 3.71570313 12.86273438 4.53296875 13.6875 5.375 C14.49574219 6.18710937 15.30398437 6.99921875 16.13671875 7.8359375 C18 10 18 10 18 12 C18.66 12 19.32 12 20 12 C21.515625 13.5390625 21.515625 13.5390625 23.25 15.625 C25.54660073 18.34047759 27.87150775 20.91262264 30.4375 23.375 C33 26 33 26 33 28 C33.99 28.33 34.98 28.66 36 29 C37.54296875 30.56640625 37.54296875 30.56640625 39.1875 32.5625 C42.90026302 36.94958964 46.89038181 40.9864508 51 45 C49.48052501 48.36748512 48.47899158 49.60840337 45 51 C43.86067708 49.60026042 42.72135417 48.20052083 41.58203125 46.80078125 C38.47194206 43.26065503 35.03358794 40.03285328 31.66796875 36.73828125 C30.50775071 35.59641694 29.34759529 34.45448901 28.1875 33.3125 C27.59001953 32.73177734 26.99253906 32.15105469 26.37695312 31.55273438 C24.87985327 30.07274424 23.43511269 28.54017218 22 27 C22 26.34 22 25.68 22 25 C21.34 25 20.68 25 20 25 C18.66015625 23.63671875 18.66015625 23.63671875 17.0625 21.6875 C13.08169066 16.98443411 8.75660588 12.72197734 4.35546875 8.41796875 C0 3.94693201 0 3.94693201 0 0 Z " fill="#0D0D0D" transform="translate(237,253)"/>
<path d="M0 0 C0.66 0.33 1.32 0.66 2 1 C2 1.66 2 2.32 2 3 C2.66 3 3.32 3 4 3 C4 2.34 4 1.68 4 1 C5.32 1 6.64 1 8 1 C8.66552734 2.7902832 8.66552734 2.7902832 9 5 C7.97119141 6.68823242 7.97119141 6.68823242 6.3515625 8.35546875 C5.7625415 8.97413818 5.17352051 9.59280762 4.56665039 10.23022461 C3.92590576 10.87612549 3.28516113 11.52202637 2.625 12.1875 C1.65904907 13.18245483 1.65904907 13.18245483 0.67358398 14.19750977 C-0.61766944 15.524959 -1.91359711 16.84787884 -3.21435547 18.16601562 C-4.74801351 19.74119189 -6.23007095 21.34257874 -7.69140625 22.984375 C-12.95358424 28.73158852 -12.95358424 28.73158852 -16.1015625 29.5390625 C-18.0625 29.5625 -18.0625 29.5625 -21 29 C-20.67 24.71 -20.34 20.42 -20 16 C-17.6796875 16.1546875 -17.6796875 16.1546875 -15.3125 16.3125 C-11.42851795 16.30149722 -10.26503907 16.1784957 -6.9375 13.9375 C-4.69514404 10.53779902 -4.23723981 8.0330768 -4 4 C-3.67 5.32 -3.34 6.64 -3 8 C-2.34 8 -1.68 8 -1 8 C-1.20625 7.05125 -1.4125 6.1025 -1.625 5.125 C-1.74875 4.09375 -1.8725 3.0625 -2 2 C-1.34 1.34 -0.68 0.68 0 0 Z " fill="#EDEDED" transform="translate(247,56)"/>
<path d="M0 0 C0.99 0.33 1.98 0.66 3 1 C2.59520379 3.83357348 2.16518485 4.85030123 0 6.8125 C-2.66633804 9.72880723 -2.51003523 12.15027679 -3 16 C-4.89533875 18.58455285 -5.88826517 18.96275506 -9 20 C-9 21.98 -9 23.96 -9 26 C-8.34 26.33 -7.68 26.66 -7 27 C-7 28.65 -7 30.3 -7 32 C-10 28 -10 28 -11 18 C-15.95 22.95 -20.9 27.9 -26 33 C-27 30 -27 30 -26 27 C-26.66 26.67 -27.32 26.34 -28 26 C-28.28875 26.61875 -28.5775 27.2375 -28.875 27.875 C-30 30 -30 30 -32 32 C-32.66 31.34 -33.32 30.68 -34 30 C-27.73 23.73 -21.46 17.46 -15 11 C-14.34 11.33 -13.68 11.66 -13 12 C-13 12.66 -13 13.32 -13 14 C-12.01 14.33 -11.02 14.66 -10 15 C-9.01 14.01 -8.02 13.02 -7 12 C-6.34 12.33 -5.68 12.66 -5 13 C-5.04125 12.071875 -5.0825 11.14375 -5.125 10.1875 C-5 7 -5 7 -3 4 C-2.34 4 -1.68 4 -1 4 C-0.67 2.68 -0.34 1.36 0 0 Z " fill="#0F0F0F" transform="translate(118,205)"/>
<path d="M0 0 C3.6805111 33.87342731 3.6805111 33.87342731 0.1015625 38.40234375 C-2 40 -2 40 -4 40 C-6.33669065 22.01582734 -6.33669065 22.01582734 -6 13 C-5.95760008 10.00684582 -5.95760008 10.00684582 -6.25 7.0625 C-6 4 -6 4 -4.125 1.625 C-2 0 -2 0 0 0 Z " fill="#070707" transform="translate(115,221)"/>
<path d="M0 0 C3 2.0625 3 2.0625 5 5 C5 8.54595558 4.72088444 10.86176141 2.8125 13.875 C0.15800608 15.52261692 -1.88327487 15.87533099 -5 16 C-9.56521739 13.86956522 -9.56521739 13.86956522 -11 11 C-11.35519903 7.16385043 -11.54724594 4.85370366 -9.4375 1.5625 C-6.01685857 -0.63021887 -3.99048721 -0.63007693 0 0 Z " fill="#0D0D0D" transform="translate(211,245)"/>
<path d="M0 0 C0 0.66 0 1.32 0 2 C-0.66 2 -1.32 2 -2 2 C-2 3.32 -2 4.64 -2 6 C-4.3125 7.625 -4.3125 7.625 -7 9 C-7.99 9.66 -8.98 10.32 -10 11 C-10.99 11 -11.98 11 -13 11 C-13.226875 11.556875 -13.45375 12.11375 -13.6875 12.6875 C-15.3703574 15.65253447 -17.53621374 17.65353689 -20 20 C-22.88462111 22.72144959 -22.88462111 22.72144959 -25 26 C-25.66666667 27.33333333 -26.33333333 28.66666667 -27 30 C-28.32 29.67 -29.64 29.34 -31 29 C-31.2475 29.5775 -31.495 30.155 -31.75 30.75 C-33.16683317 33.3002997 -34.87627537 35.01785701 -37 37 C-36.34 37.33 -35.68 37.66 -35 38 C-35.66 38 -36.32 38 -37 38 C-37.144375 38.598125 -37.28875 39.19625 -37.4375 39.8125 C-37.8872439 41.56150404 -38.42892341 43.28677023 -39 45 C-39.763125 44.773125 -40.52625 44.54625 -41.3125 44.3125 C-42.199375 44.209375 -43.08625 44.10625 -44 44 C-45.8354799 45.33378575 -45.8354799 45.33378575 -47 47 C-47.99 46.67 -48.98 46.34 -50 46 C-44.08321815 39.9905945 -38.15575072 33.99202453 -32.21428299 28.0070343 C-29.45584221 25.22770636 -26.70125005 22.44477562 -23.95507812 19.65332031 C-21.30541683 16.96024203 -18.64614227 14.27701368 -15.97988129 11.60037231 C-14.96367698 10.57676922 -13.95100382 9.54964814 -12.94193268 8.51901245 C-11.52956213 7.07766747 -10.10345501 5.64982163 -8.67675781 4.22265625 C-7.8684552 3.40547119 -7.06015259 2.58828613 -6.22735596 1.74633789 C-4 0 -4 0 0 0 Z " fill="#EEEEEE" transform="translate(84,249)"/>
<path d="M0 0 C2.64 0 5.28 0 8 0 C4.25464821 4.57765219 0.26588047 8.78613352 -3.9375 12.9375 C-7.89075775 16.84249579 -11.66341948 20.80770236 -15.265625 25.04296875 C-18.65887367 28.87183718 -22.34670295 32.42126003 -26 36 C-26.66 35.34 -27.32 34.68 -28 34 C-27.01 33.01 -26.02 32.02 -25 31 C-25.66 30.67 -26.32 30.34 -27 30 C-26.75 28.125 -26.75 28.125 -26 26 C-23.41847698 24.27898465 -22.15081975 24 -19 24 C-18.34 23.67 -17.68 23.34 -17 23 C-17 22.34 -17 21.68 -17 21 C-17.66 20.34 -18.32 19.68 -19 19 C-18.34 18.01 -17.68 17.02 -17 16 C-14.69 16.33 -12.38 16.66 -10 17 C-10.33 15.68 -10.66 14.36 -11 13 C-10.34 12.67 -9.68 12.34 -9 12 C-8.34 12.33 -7.68 12.66 -7 13 C-7 12.34 -7 11.68 -7 11 C-7.66 10.67 -8.32 10.34 -9 10 C-8.34 10 -7.68 10 -7 10 C-7 9.34 -7 8.68 -7 8 C-4.525 8.495 -4.525 8.495 -2 9 C-0.43727811 4.60746227 -0.43727811 4.60746227 0 0 Z " fill="#F4F4F4" transform="translate(291,16)"/>
<path d="M0 0 C4.64186643 0.92837329 6.27091254 3.2785171 9 7 C9 6.34 9 5.68 9 5 C9.99 5.33 10.98 5.66 12 6 C12.8125 7.9375 12.8125 7.9375 13 10 C12.34 10.66 11.68 11.32 11 12 C10.01 12 9.02 12 8 12 C8 15.63 8 19.26 8 23 C6.35 23 4.7 23 3 23 C3 22.34 3 21.68 3 21 C2.34 21 1.68 21 1 21 C0.07907719 16.34462644 -0.12205997 11.85314567 -0.0625 7.125 C-0.05798828 6.43664062 -0.05347656 5.74828125 -0.04882812 5.0390625 C-0.03716336 3.35933665 -0.01923271 1.67965625 0 0 Z " fill="#060606" transform="translate(99,107)"/>
<path d="M0 0 C0.33 -0.33 0.66 -0.66 1 -1 C2.33841672 -0.68770276 3.67139075 -0.35169068 5 0 C5.99 0 6.98 0 8 0 C7.67 0.66 7.34 1.32 7 2 C6.731875 2.61875 6.46375 3.2375 6.1875 3.875 C4.71269287 6.51412856 3.37130018 8.09822514 1 10 C-2.234375 10.390625 -2.234375 10.390625 -5.75 10.25 C-6.92046875 10.21390625 -8.0909375 10.1778125 -9.296875 10.140625 C-10.18890625 10.09421875 -11.0809375 10.0478125 -12 10 C-12 9.34 -12 8.68 -12 8 C-12.99 8.495 -12.99 8.495 -14 9 C-14.33 8.01 -14.66 7.02 -15 6 C-14.34 5.01 -13.68 4.02 -13 3 C-12.34 3 -11.68 3 -11 3 C-11 2.34 -11 1.68 -11 1 C-3.375 -1.125 -3.375 -1.125 0 0 Z " fill="#050505" transform="translate(213,266)"/>
<path d="M0 0 C0.33 0.99 0.66 1.98 1 3 C2.51980469 3.18175781 2.51980469 3.18175781 4.0703125 3.3671875 C5.4219151 3.53613783 6.77347542 3.70542669 8.125 3.875 C9.12273437 3.99294922 9.12273437 3.99294922 10.140625 4.11328125 C14.30378644 4.64388026 18.06671292 5.54186554 22 7 C21.67 8.65 21.34 10.3 21 12 C19.68 12.33 18.36 12.66 17 13 C17.99 13.33 18.98 13.66 20 14 C13.96251023 13.19500136 7.98729887 12.11517502 2 11 C2 12.98 2 14.96 2 17 C1.67 17 1.34 17 1 17 C0.91840426 12.83861737 1.01751476 9.0527516 2 5 C1.34 5 0.68 5 0 5 C0 3.35 0 1.7 0 0 Z " fill="#0F0F0F" transform="translate(184,38)"/>
<path d="M0 0 C8.58 0 17.16 0 26 0 C26.33 1.65 26.66 3.3 27 5 C18.09 5 9.18 5 0 5 C0 3.35 0 1.7 0 0 Z " fill="#D0D0D0" transform="translate(152,44)"/>
<path d="M0 0 C0 0.99 0 1.98 0 3 C0.33 3.66 0.66 4.32 1 5 C1.94875 5.28875 2.8975 5.5775 3.875 5.875 C7.29958682 7.10785125 8.3556731 7.80269769 10 11 C9.95875 11.845625 9.9175 12.69125 9.875 13.5625 C9.91625 14.366875 9.9575 15.17125 10 16 C12.46326712 17.6446674 12.46326712 17.6446674 15 19 C15 19.99 15 20.98 15 22 C11.35818477 21.42667654 9.71572695 20.06870972 7.1875 17.4375 C6.49527344 16.71820313 5.80304687 15.99890625 5.08984375 15.2578125 C0.52827022 10.32960783 -3.86451689 5.29341838 -8 0 C-4.94736336 -0.98120464 -3.05263664 -0.98120464 0 0 Z " fill="#F2F2F2" transform="translate(53,42)"/>
<path d="M0 0 C2.98356441 1.81608269 4.61660986 2.93830422 5.8125 6.25 C5.874375 6.8275 5.93625 7.405 6 8 C5.01 7.67 4.02 7.34 3 7 C2.67 7.66 2.34 8.32 2 9 C2 8.34 2 7.68 2 7 C-2.18058943 5.60647019 -6.13540202 5.29447644 -10.3125 6.875 C-13.05020772 8.70013848 -13.94417342 9.83252025 -15 13 C-15.66 13.99 -16.32 14.98 -17 16 C-17.32764303 11.90446218 -17.23069669 9.46139337 -15.375 5.75 C-11.01031679 0.69615628 -6.62141116 -0.84272506 0 0 Z " fill="#E2E2E2" transform="translate(212,240)"/>
<path d="M0 0 C0.66 0.33 1.32 0.66 2 1 C0.12172593 3.0400393 -1.77458362 5.05539547 -3.6875 7.0625 C-4.21794922 7.64322266 -4.74839844 8.22394531 -5.29492188 8.82226562 C-6.80393925 10.38682965 -8.20000672 11.77961713 -10 13 C-12.89453125 12.87109375 -12.89453125 12.87109375 -15 12 C-15.33 12.66 -15.66 13.32 -16 14 C-15.34 14.33 -14.68 14.66 -14 15 C-16.375 14.75 -16.375 14.75 -19 14 C-20.3125 11.9375 -20.3125 11.9375 -21 10 C-18.34771188 8.92474806 -15.71631546 7.90543849 -13 7 C-12.690625 6.360625 -12.38125 5.72125 -12.0625 5.0625 C-11 3 -11 3 -9.125 1.625 C-7 1 -7 1 -4.75 1.875 C-4.1725 2.24625 -3.595 2.6175 -3 3 C-2.01 2.01 -1.02 1.02 0 0 Z " fill="#070707" transform="translate(213,112)"/>
<path d="M0 0 C0.66 0.33 1.32 0.66 2 1 C2.39764263 2.98821313 2.72428861 4.99124558 3 7 C3.20625 7.70125 3.4125 8.4025 3.625 9.125 C4.07337565 11.36687823 3.6928302 12.84452828 3 15 C3.66 15.33 4.32 15.66 5 16 C4.34 16.33 3.68 16.66 3 17 C3.33 17.99 3.66 18.98 4 20 C4.66 20 5.32 20 6 20 C6.33 19.01 6.66 18.02 7 17 C7.66 17.66 8.32 18.32 9 19 C5.56638098 22.63559661 2.2026393 25.36113346 -2 28 C-2.66 27.67 -3.32 27.34 -4 27 C-2.68 25.68 -1.36 24.36 0 23 C-0.66 22.67 -1.32 22.34 -2 22 C-1.34 22 -0.68 22 0 22 C0 21.01 0 20.02 0 19 C-3.20395416 19 -5.09399739 19.74335022 -8 21 C-7.8125 19.1875 -7.8125 19.1875 -7 17 C-5.34467377 15.98133771 -3.67739862 14.98189187 -2 14 C0.03502596 10.88192632 0.22171933 8.42533455 0.125 4.75 C0.09792969 3.41195312 0.09792969 3.41195312 0.0703125 2.046875 C0.04710937 1.37140625 0.02390625 0.6959375 0 0 Z " fill="#121212" transform="translate(219,247)"/>
<path d="M0 0 C0.33 4.29 0.66 8.58 1 13 C0.01 13 -0.98 13 -2 13 C-2.99 13.33 -3.98 13.66 -5 14 C-5.33 13.01 -5.66 12.02 -6 11 C-6.66 10.67 -7.32 10.34 -8 10 C-8.1546875 11.1446875 -8.1546875 11.1446875 -8.3125 12.3125 C-9.04711194 15.18416484 -9.6716065 16.23042094 -12 18 C-12.66 18 -13.32 18 -14 18 C-13.67 18.99 -13.34 19.98 -13 21 C-13.99 21.66 -14.98 22.32 -16 23 C-16 15 -16 15 -14.63891602 13.2824707 C-14.01686279 12.66976318 -13.39480957 12.05705566 -12.75390625 11.42578125 C-12.08166016 10.75869141 -11.40941406 10.09160156 -10.71679688 9.40429688 C-10.00587891 8.71400391 -9.29496094 8.02371094 -8.5625 7.3125 C-7.50192383 6.2596582 -7.50192383 6.2596582 -6.41992188 5.18554688 C-1.15374453 0 -1.15374453 0 0 0 Z " fill="#F5F5F5" transform="translate(108,222)"/>
<path d="M0 0 C0.33 1.32 0.66 2.64 1 4 C4.28696233 4.79953138 5.71023192 5.09658936 9 4 C9 3.34 9 2.68 9 2 C9.99 2.33 10.98 2.66 12 3 C9.71643754 5.34138543 7.42186626 7.67166982 5.125 10 C4.47402344 10.66773438 3.82304688 11.33546875 3.15234375 12.0234375 C2.52714844 12.65507812 1.90195313 13.28671875 1.2578125 13.9375 C0.6817627 14.52402344 0.10571289 15.11054688 -0.48779297 15.71484375 C-2 17 -2 17 -4 17 C-4.33 11.72 -4.66 6.44 -5 1 C-4.01 1.33 -3.02 1.66 -2 2 C-2 2.66 -2 3.32 -2 4 C-1.34 4 -0.68 4 0 4 C0 2.68 0 1.36 0 0 Z " fill="#ECECEC" transform="translate(117,188)"/>
<path d="M0 0 C0 0.99 0 1.98 0 3 C-1.32 3.33 -2.64 3.66 -4 4 C-3.67 5.32 -3.34 6.64 -3 8 C-3.99 7.67 -4.98 7.34 -6 7 C-6.33 7.99 -6.66 8.98 -7 10 C-6.34 10.33 -5.68 10.66 -5 11 C-5.33 11.66 -5.66 12.32 -6 13 C-6.66 13 -7.32 13 -8 13 C-8 12.34 -8 11.68 -8 11 C-8.66 11 -9.32 11 -10 11 C-10.66 12.98 -11.32 14.96 -12 17 C-13.98 17 -15.96 17 -18 17 C-18.33 17.66 -18.66 18.32 -19 19 C-19.99 18.67 -20.98 18.34 -22 18 C-21.67 17.67 -21.34 17.34 -21 17 C-21.66 16.34 -22.32 15.68 -23 15 C-23 13.68 -23 12.36 -23 11 C-20.525 11.495 -20.525 11.495 -18 12 C-18 12.66 -18 13.32 -18 14 C-13.27237246 9.96002738 -8.76897786 5.85245826 -4.54296875 1.28515625 C-3 0 -3 0 0 0 Z " fill="#080808" transform="translate(174,147)"/>
<path d="M0 0 C0.78375 0.66 1.5675 1.32 2.375 2 C4.71512812 4.20201441 4.71512812 4.20201441 7 4 C6.67 3.01 6.34 2.02 6 1 C9 1 9 1 11.26171875 2.96875 C12.06222656 3.8040625 12.86273438 4.639375 13.6875 5.5 C14.89986328 6.75296875 14.89986328 6.75296875 16.13671875 8.03125 C16.75160156 8.6809375 17.36648437 9.330625 18 10 C17.02727325 11.35335895 16.0260734 12.68662604 15 14 C14.67 14 14.34 14 14 14 C13.01 14.33 12.02 14.66 11 15 C9.5385774 13.56564079 8.08096951 12.12739414 6.625 10.6875 C5.81289062 9.88699219 5.00078125 9.08648437 4.1640625 8.26171875 C0 3.90974729 0 3.90974729 0 0 Z " fill="#111111" transform="translate(237,253)"/>
<path d="M0 0 C0.33 0 0.66 0 1 0 C1 1.98 1 3.96 1 6 C1.66 6 2.32 6 3 6 C3 6.66 3 7.32 3 8 C4.65 8 6.3 8 8 8 C9.58493084 11.16986168 9.2940042 14.54032261 9 18 C8 20.5 8 20.5 7 22 C6.67 21.34 6.34 20.68 6 20 C4.68 21.32 3.36 22.64 2 24 C1.66029235 21.50072231 1.32811968 19.00080405 1 16.5 C0.90460938 15.80390625 0.80921875 15.1078125 0.7109375 14.390625 C0.0838378 9.55299871 -0.08789528 4.87818804 0 0 Z " fill="#181818" transform="translate(99,122)"/>
<path d="M0 0 C7.26 0 14.52 0 22 0 C19 2 19 2 16 2 C16 2.66 16 3.32 16 4 C15.34 4 14.68 4 14 4 C13.67 4.99 13.34 5.98 13 7 C13 6.34 13 5.68 13 5 C12.34 4.67 11.68 4.34 11 4 C11 3.34 11 2.68 11 2 C7.7 1.67 4.4 1.34 1 1 C1.33 3.31 1.66 5.62 2 8 C1.34 8 0.68 8 0 8 C0 8.66 0 9.32 0 10 C0.66 10.33 1.32 10.66 2 11 C-3.75 13 -3.75 13 -6 13 C-6.33 14.98 -6.66 16.96 -7 19 C-8.9375 18.1875 -8.9375 18.1875 -11 17 C-11.33 16.01 -11.66 15.02 -12 14 C-10.56967163 12.82455195 -9.13046758 11.65989738 -7.6875 10.5 C-6.88699219 9.8503125 -6.08648437 9.200625 -5.26171875 8.53125 C-3 7 -3 7 0 7 C0 4.69 0 2.38 0 0 Z " fill="#151515" transform="translate(109,42)"/>
<path d="M0 0 C0 4.62 0 9.24 0 14 C-3.96 14 -7.92 14 -12 14 C-10.84047755 9.36191019 -9.37889683 8.03290544 -6 4.75 C-5.0925 3.85796875 -4.185 2.9659375 -3.25 2.046875 C-1 0 -1 0 0 0 Z " fill="#FAFAFA" transform="translate(236,92)"/>
<path d="M0 0 C3.81936528 1.55603771 6.26044438 3.95604931 9 7 C9 7.66 9 8.32 9 9 C9.66 9.33 10.32 9.66 11 10 C10.34 10.66 9.68 11.32 9 12 C8.30251417 13.31747324 7.63040043 14.64914193 7 16 C5.84481082 15.09515208 4.70114594 14.1755794 3.5625 13.25 C2.92441406 12.73953125 2.28632813 12.2290625 1.62890625 11.703125 C-0.86715847 9.09333072 -0.96152939 6.82711818 -1.125 3.3125 C-1 1 -1 1 0 0 Z " fill="#141414" transform="translate(130,134)"/>
<path d="M0 0 C1.65 0 3.3 0 5 0 C4.34 4.95 3.68 9.9 3 15 C16.53 15 30.06 15 44 15 C44 15.33 44 15.66 44 16 C29.48 16 14.96 16 0 16 C0 10.72 0 5.44 0 0 Z " fill="#3B3B3B" transform="translate(145,114)"/>
<path d="M0 0 C3 2 3 2 3.9375 5.0625 C4.4634375 6.5165625 4.4634375 6.5165625 5 8 C7.49674352 9.12756159 9.23473727 9 12 9 C11.835 9.763125 11.67 10.52625 11.5 11.3125 C10.90854604 14.03596236 10.90854604 14.03596236 11 17 C10.01 17.33 9.02 17.66 8 18 C6.26800292 16.03934038 4.54269665 14.07359553 2.828125 12.09765625 C1.40489387 10.46458976 -0.04284524 8.85287024 -1.5 7.25 C-3 5 -3 5 -2.875 2.75 C-2 1 -2 1 0 0 Z " fill="#F4F4F4" transform="translate(36,24)"/>
<path d="M0 0 C0.64324219 0.64582031 1.28648437 1.29164063 1.94921875 1.95703125 C4.3548042 4.36431376 6.77969029 6.75138636 9.20703125 9.13671875 C10.74229703 10.65353498 12.2774507 12.17046469 13.8125 13.6875 C14.99489258 14.84475586 14.99489258 14.84475586 16.20117188 16.02539062 C17.31782227 17.13237305 17.31782227 17.13237305 18.45703125 18.26171875 C19.13741455 18.93162842 19.81779785 19.60153809 20.51879883 20.29174805 C22 22 22 22 22 24 C22.66 24.33 23.32 24.66 24 25 C23.34 25.66 22.68 26.32 22 27 C22 26.34 22 25.68 22 25 C21.01 24.67 20.02 24.34 19 24 C17.31126121 22.35570171 15.64694485 20.68615782 14 19 C12.35135455 17.64444707 10.68996005 16.30368347 9 15 C8.01 15.495 8.01 15.495 7 16 C6.00214992 13.60515982 5.07237956 11.36189782 4.5625 8.8125 C4.08506074 6.60152755 4.08506074 6.60152755 1 5 C0.3125 2.375 0.3125 2.375 0 0 Z " fill="#EEEEEE" transform="translate(235,254)"/>
<path d="M0 0 C4.55532784 0.26796046 6.88558582 2.17699625 9.90625 5.3671875 C11 7 11 7 10.875 9.875 C10 12 10 12 8.265625 12.74609375 C6 13 6 13 3.859375 11.34765625 C3.16328125 10.59355469 2.4671875 9.83945313 1.75 9.0625 C1.04359375 8.31097656 0.3371875 7.55945313 -0.390625 6.78515625 C-0.92171875 6.19605469 -1.4528125 5.60695312 -2 5 C-1.34 3.35 -0.68 1.7 0 0 Z " fill="#080808" transform="translate(175,184)"/>
<path d="M0 0 C7.84179688 6.4453125 7.84179688 6.4453125 10 10 C10 10.66 10 11.32 10 12 C8.68 11.67 7.36 11.34 6 11 C6.33 11.33 6.66 11.66 7 12 C6.01 12.495 6.01 12.495 5 13 C4.67 13.66 4.34 14.32 4 15 C2.99403703 14.0479279 1.99538437 13.08812654 1 12.125 C0.443125 11.59132812 -0.11375 11.05765625 -0.6875 10.5078125 C-2 9 -2 9 -2 7 C-2.99 6.67 -3.98 6.34 -5 6 C-4.360625 5.7525 -3.72125 5.505 -3.0625 5.25 C-0.80696091 4.19716567 -0.80696091 4.19716567 -0.37109375 1.921875 C-0.24863281 1.28765625 -0.12617188 0.6534375 0 0 Z " fill="#121212" transform="translate(186,192)"/>
<path d="M0 0 C0.99 0.33 1.98 0.66 3 1 C3.66 0.67 4.32 0.34 5 0 C7.66666667 2.66666667 10.33333333 5.33333333 13 8 C12 10 12 10 8.9375 11.125 C7.968125 11.41375 6.99875 11.7025 6 12 C3.47290372 9.81321095 1.07391145 7.62767838 -1 5 C-0.9375 2.0625 -0.9375 2.0625 0 0 Z " fill="#0C0C0C" transform="translate(250,264)"/>
<path d="M0 0 C0.99 0.33 1.98 0.66 3 1 C1.82043419 6.46889601 0.50296387 9.35474354 -4 13 C-6.57062485 13.98288597 -8.21120948 14 -11 14 C-10.3543999 10.51375944 -9.07639763 7.87501211 -7 5 C-6.01 5 -5.02 5 -4 5 C-1.79857668 2.5609294 -1.79857668 2.5609294 0 0 Z " fill="#090909" transform="translate(90,231)"/>
<path d="M0 0 C0.99 0.33 1.98 0.66 3 1 C2.59520379 3.83357348 2.16518485 4.85030123 0 6.8125 C-2.66633804 9.72880723 -2.51003523 12.15027679 -3 16 C-4.89533875 18.58455285 -5.88826517 18.96275506 -9 20 C-9 21.98 -9 23.96 -9 26 C-8.34 26.33 -7.68 26.66 -7 27 C-7 28.65 -7 30.3 -7 32 C-9.83488603 28.82103809 -10.38879797 26.79410294 -10.3125 22.5625 C-10.30863281 21.63566406 -10.30476563 20.70882812 -10.30078125 19.75390625 C-9.98440183 16.85718556 -9.2031514 14.64118097 -8 12 C-7.01 12.33 -6.02 12.66 -5 13 C-5.04125 12.071875 -5.0825 11.14375 -5.125 10.1875 C-5 7 -5 7 -3 4 C-2.34 4 -1.68 4 -1 4 C-0.67 2.68 -0.34 1.36 0 0 Z " fill="#202020" transform="translate(118,205)"/>
<path d="M0 0 C0.66 0.66 1.32 1.32 2 2 C1.34 2 0.68 2 0 2 C0.75150023 5.27773504 0.75150023 5.27773504 4 7 C1.03 9.97 -1.94 12.94 -5 16 C-5.99 15.67 -6.98 15.34 -8 15 C-6.66666667 13.66666667 -5.33333333 12.33333333 -4 11 C-4.99 10.67 -5.98 10.34 -7 10 C-7.99 10.99 -8.98 11.98 -10 13 C-10.66 12.67 -11.32 12.34 -12 12 C-8.04 8.04 -4.08 4.08 0 0 Z " fill="#161616" transform="translate(292,23)"/>
<path d="M0 0 C4.70478962 3.42166518 8.27653164 7.57905197 12 12 C11.67 12.66 11.34 13.32 11 14 C10.34 14 9.68 14 9 14 C8.67 14.66 8.34 15.32 8 16 C5 16 5 16 2.8125 14.3125 C0.68949802 11.6038423 0.62745431 10.35291118 1 7 C2.485 7.99 2.485 7.99 4 9 C3.67 7.68 3.34 6.36 3 5 C2.34 5 1.68 5 1 5 C0.67 3.35 0.34 1.7 0 0 Z " fill="#131313" transform="translate(65,64)"/>
<path d="M0 0 C0.66 0 1.32 0 2 0 C0.67879172 2.93230193 -0.74638197 4.98664899 -3.0390625 7.234375 C-3.90917969 8.09482422 -3.90917969 8.09482422 -4.796875 8.97265625 C-5.40015625 9.55917969 -6.0034375 10.14570313 -6.625 10.75 C-7.23601562 11.35199219 -7.84703125 11.95398438 -8.4765625 12.57421875 C-9.97988624 14.05405305 -11.48934856 15.52764676 -13 17 C-15 15 -15 15 -15.125 12.375 C-15.08375 11.59125 -15.0425 10.8075 -15 10 C-13.02 10.99 -13.02 10.99 -11 12 C-11.33 10.68 -11.66 9.36 -12 8 C-10.68 7.67 -9.36 7.34 -8 7 C-8.66 5.68 -9.32 4.36 -10 3 C-8.68 3 -7.36 3 -6 3 C-6 3.99 -6 4.98 -6 6 C-5.195625 5.195625 -4.39125 4.39125 -3.5625 3.5625 C-2.375 2.375 -1.1875 1.1875 0 0 Z " fill="#101010" transform="translate(182,143)"/>
<path d="M0 0 C2.19798983 0.98530579 3.82052548 1.81304737 5.5 3.5625 C6.92562581 5.17243328 6.92562581 5.17243328 9.125 5.5 C9.74375 5.665 10.3625 5.83 11 6 C11.33 6.99 11.66 7.98 12 9 C12.99 9 13.98 9 15 9 C15 10.65 15 12.3 15 14 C14.34 14 13.68 14 13 14 C12.67 14.66 12.34 15.32 12 16 C7.63425542 11.02718443 3.29785078 6.03163018 -1 1 C-0.67 0.67 -0.34 0.34 0 0 Z " fill="#EDEDED" transform="translate(181,184)"/>
<path d="M0 0 C0.8353125 0.37125 0.8353125 0.37125 1.6875 0.75 C1.6875 1.41 1.6875 2.07 1.6875 2.75 C1.0275 3.224375 0.3675 3.69875 -0.3125 4.1875 C-1.3025 4.9609375 -1.3025 4.9609375 -2.3125 5.75 C-2.3125 6.74 -2.3125 7.73 -2.3125 8.75 C-5.94673209 11.07590854 -9.08338331 10.91265833 -13.3125 10.75 C-4.15785435 -0.44949777 -4.15785435 -0.44949777 0 0 Z " fill="#050505" transform="translate(287.3125,32.25)"/>
<path d="M0 0 C1.65 0.33 3.3 0.66 5 1 C4.67 1.53625 4.34 2.0725 4 2.625 C2.77300796 5.5391061 2.85766714 7.86867708 3 11 C1.68 10.34 0.36 9.68 -1 9 C-1.99 9.99 -2.98 10.98 -4 12 C-4 11.34 -4 10.68 -4 10 C-4.66 10 -5.32 10 -6 10 C-6.33 8.68 -6.66 7.36 -7 6 C-4 4 -4 4 -2 4 C-1.34 2.68 -0.68 1.36 0 0 Z " fill="#050505" transform="translate(111,209)"/>
<path d="M0 0 C0.99 0.66 1.98 1.32 3 2 C3.66 1.67 4.32 1.34 5 1 C5 1.99 5 2.98 5 4 C4.01 4.495 4.01 4.495 3 5 C3.33 5.66 3.66 6.32 4 7 C5.28687011 10.86061033 5.13757618 13.94150283 5 18 C4.34 18.33 3.68 18.66 3 19 C2.7525 17.948125 2.505 16.89625 2.25 15.8125 C1.44410036 12.86148513 0.86708703 11.8486269 -1.25 9.4375 C-1.8275 8.633125 -2.405 7.82875 -3 7 C-1.92682927 1.92682927 -1.92682927 1.92682927 0 0 Z " fill="#1B1B1B" transform="translate(203,210)"/>
<path d="M0 0 C4.95 0 9.9 0 15 0 C14.67 0.99 14.34 1.98 14 3 C15.65 2.67 17.3 2.34 19 2 C19 5 19 5 18 8 C17.13117188 7.65066406 16.26234375 7.30132812 15.3671875 6.94140625 C14.21476563 6.48636719 13.06234375 6.03132813 11.875 5.5625 C10.73804688 5.11003906 9.60109375 4.65757813 8.4296875 4.19140625 C5.25793259 3.08960073 2.32057252 2.43904226 -1 2 C-0.67 1.34 -0.34 0.68 0 0 Z " fill="#EEEEEE" transform="translate(195,41)"/>
<path d="M0 0 C1.28317892 3.84953676 1.06643637 6.94738135 1 11 C-2.01031744 11.93423645 -2.86650268 12.04449911 -6 11 C-5.91291331 9.54054712 -5.80473093 8.08234132 -5.6875 6.625 C-5.62949219 5.81289062 -5.57148437 5.00078125 -5.51171875 4.1640625 C-4.77930591 1.06668303 -3.17720825 0 0 0 Z " fill="#030303" transform="translate(103,86)"/>
<path d="M0 0 C0.66 0.99 1.32 1.98 2 3 C1.34 4.32 0.68 5.64 0 7 C0.99 6.67 1.98 6.34 3 6 C1.5 9 1.5 9 0 12 C-2.31 12 -4.62 12 -7 12 C-7 7.41765954 -6.4819242 6.94491878 -3.5 3.75 C-2.8503125 3.04359375 -2.200625 2.3371875 -1.53125 1.609375 C-0.77328125 0.81273437 -0.77328125 0.81273437 0 0 Z " fill="#F6F6F6" transform="translate(124,204)"/>
<path d="M0 0 C5.23435005 4.27293882 9.67106815 8.81580806 14 14 C13.01 14.66 12.02 15.32 11 16 C10.2575 15.05125 9.515 14.1025 8.75 13.125 C6.68012646 10.62121529 4.98119247 9.33639662 2 8 C-0.1519437 4.77208445 -0.20086443 3.71599191 0 0 Z " fill="#ECECEC" transform="translate(106,118)"/>
<path d="M0 0 C0.81210937 0.41572266 0.81210937 0.41572266 1.640625 0.83984375 C1.310625 2.15984375 0.980625 3.47984375 0.640625 4.83984375 C-0.679375 4.83984375 -1.999375 4.83984375 -3.359375 4.83984375 C-5.75565655 6.48603724 -5.75565655 6.48603724 -7.359375 8.83984375 C-7.22296123 11.05842628 -7.22296123 11.05842628 -6.359375 12.83984375 C-7.019375 12.83984375 -7.679375 12.83984375 -8.359375 12.83984375 C-8.359375 13.49984375 -8.359375 14.15984375 -8.359375 14.83984375 C-11.359375 13.83984375 -11.359375 13.83984375 -13.359375 10.83984375 C-11.62399377 8.96982087 -9.8734415 7.11996283 -8.109375 5.27734375 C-7.37267578 4.47780273 -7.37267578 4.47780273 -6.62109375 3.66210938 C-2.88743798 -0.19600158 -2.88743798 -0.19600158 0 0 Z " fill="#EFEFEF" transform="translate(302.359375,25.16015625)"/>
<path d="M0 0 C2.0625 0.4375 2.0625 0.4375 4 1 C4.33 2.65 4.66 4.3 5 6 C5.66 6 6.32 6 7 6 C7.66 7.98 8.32 9.96 9 12 C8.01 11.34 7.02 10.68 6 10 C5.01 10 4.02 10 3 10 C0.25 7.75 0.25 7.75 -2 5 C-1.87165745 2.68983403 -1.63394255 1.63394255 0 0 Z " fill="#050505" transform="translate(61,63)"/>
<path d="M0 0 C3.99462993 2.10827691 6.69462893 4.07233077 9 8 C9.32101581 11.03181598 9.23808873 13.96436873 9 17 C8.67 17 8.34 17 8 17 C7.89042969 16.43410156 7.78085938 15.86820313 7.66796875 15.28515625 C7.50941406 14.55167969 7.35085937 13.81820312 7.1875 13.0625 C7.03667969 12.33160156 6.88585937 11.60070312 6.73046875 10.84765625 C6.48941406 10.23792969 6.24835938 9.62820312 6 9 C3 7.66666667 3 7.66666667 0 9 C-0.66 8.67 -1.32 8.34 -2 8 C-1.34 6.68 -0.68 5.36 0 4 C0.66 4.33 1.32 4.66 2 5 C1.34 3.35 0.68 1.7 0 0 Z " fill="#F2F2F2" transform="translate(90,103)"/>
<path d="M0 0 C2.31 0.66 4.62 1.32 7 2 C6.67 4.31 6.34 6.62 6 9 C4.68 9.33 3.36 9.66 2 10 C2.99 10.33 3.98 10.66 5 11 C3.68 11 2.36 11 1 11 C-0.28317892 7.15046324 -0.06643637 4.05261865 0 0 Z " fill="#F9F9F9" transform="translate(227,72)"/>
<path d="M0 0 C1.98 1.65 3.96 3.3 6 5 C5.62875 5.763125 5.2575 6.52625 4.875 7.3125 C4.58625 8.199375 4.2975 9.08625 4 10 C4.99 11.485 4.99 11.485 6 13 C5.01 13.33 4.02 13.66 3 14 C1.35 12.02 -0.3 10.04 -2 8 C-1.01 7.67 -0.02 7.34 1 7 C0.67 4.69 0.34 2.38 0 0 Z " fill="#151515" transform="translate(148,152)"/>
<path d="M0 0 C0.66 0 1.32 0 2 0 C2 1.65 2 3.3 2 5 C4.31 5 6.62 5 9 5 C9 5.33 9 5.66 9 6 C8.40832031 6.06058594 7.81664062 6.12117188 7.20703125 6.18359375 C3.09021792 6.62012371 -0.95544533 7.08671346 -5 8 C-5 7.34 -5 6.68 -5 6 C-6.32 5.67 -7.64 5.34 -9 5 C-7.68 5 -6.36 5 -5 5 C-4.67 4.01 -4.34 3.02 -4 2 C-3.01 2.33 -2.02 2.66 -1 3 C-0.67 2.01 -0.34 1.02 0 0 Z " fill="#1F1F1F" transform="translate(224,80)"/>
<path d="M0 0 C3.87685679 2.08753827 6.48941618 3.77036532 8 8 C7.01 8.66 6.02 9.32 5 10 C4.67 8.35 4.34 6.7 4 5 C2.7625 4.855625 1.525 4.71125 0.25 4.5625 C-2.56504499 4.21311498 -5.2701497 3.79620634 -8 3 C-8 2.34 -8 1.68 -8 1 C-5.13391871 -0.43304064 -3.18699217 -0.30644155 0 0 Z " fill="#121212" transform="translate(235,51)"/>
<path d="M0 0 C-1.47721422 3.45201639 -3.43794001 5.64961936 -6.125 8.25 C-6.84945313 8.95640625 -7.57390625 9.6628125 -8.3203125 10.390625 C-8.87460937 10.92171875 -9.42890625 11.4528125 -10 12 C-10.66 11.67 -11.32 11.34 -12 11 C-12 10.34 -12 9.68 -12 9 C-11.01 9 -10.02 9 -9 9 C-8.71125 8.401875 -8.4225 7.80375 -8.125 7.1875 C-7 5 -7 5 -5 2 C-5.99 1.67 -6.98 1.34 -8 1 C-8.33 1.66 -8.66 2.32 -9 3 C-9 2.01 -9 1.02 -9 0 C-5.67465243 -1.10844919 -3.37817425 -0.84454356 0 0 Z " fill="#181818" transform="translate(282,43)"/>
<path d="M0 0 C0.66 0.33 1.32 0.66 2 1 C2 1.66 2 2.32 2 3 C3.32 3.33 4.64 3.66 6 4 C6 4.66 6 5.32 6 6 C4.25 7.7265625 4.25 7.7265625 2 9.625 C1.2575 10.25664062 0.515 10.88828125 -0.25 11.5390625 C-0.8275 12.02117187 -1.405 12.50328125 -2 13 C-2.33 11.68 -2.66 10.36 -3 9 C-2.34 9 -1.68 9 -1 9 C-1.185625 8.4225 -1.37125 7.845 -1.5625 7.25 C-2.04437114 4.77180555 -1.81568825 3.36549594 -1 1 C-0.67 0.67 -0.34 0.34 0 0 Z " fill="#161616" transform="translate(103,216)"/>
<path d="M0 0 C1.32 0 2.64 0 4 0 C5.12256131 2.24512262 5.13413762 3.51456649 5.125 6 C5.12757813 6.70125 5.13015625 7.4025 5.1328125 8.125 C5 10 5 10 4 12 C3.34 12 2.68 12 2 12 C2 11.34 2 10.68 2 10 C1.34 10 0.68 10 0 10 C0 6.7 0 3.4 0 0 Z " fill="#F5F5F5" transform="translate(215,247)"/>
<path d="M0 0 C1.65 1.65 3.3 3.3 5 5 C4.34 5.66 3.68 6.32 3 7 C1.98758315 8.32392972 0.98560611 9.65599167 0 11 C-0.268125 10.360625 -0.53625 9.72125 -0.8125 9.0625 C-1.88667752 6.66868314 -1.88667752 6.66868314 -5 6 C-4.360625 5.7525 -3.72125 5.505 -3.0625 5.25 C-0.81258459 4.18437567 -0.81258459 4.18437567 -0.25 1.875 C-0.1675 1.25625 -0.085 0.6375 0 0 Z " fill="#1B1B1B" transform="translate(186,192)"/>
<path d="M0 0 C1.14926266 0.95421808 2.29430541 1.91352045 3.4375 2.875 C4.07558594 3.40867187 4.71367187 3.94234375 5.37109375 4.4921875 C7 6 7 6 8 8 C1.63636364 8.48951049 1.63636364 8.48951049 -1.4375 6.125 C-3 4 -3 4 -3 2 C-2.01 1.34 -1.02 0.68 0 0 Z " fill="#ECECEC" transform="translate(267,288)"/>
<path d="M0 0 C1.15957207 3.47871621 0.77456651 4.34219645 -0.4375 7.6875 C-0.72496094 8.49574219 -1.01242188 9.30398437 -1.30859375 10.13671875 C-1.53675781 10.75160156 -1.76492187 11.36648437 -2 12 C-2.66 12 -3.32 12 -4 12 C-4.33 12.66 -4.66 13.32 -5 14 C-5 5 -5 5 -2.5 2.3125 C-1.675 1.549375 -0.85 0.78625 0 0 Z " fill="#F8F8F8" transform="translate(215,112)"/>
<path d="M0 0 C0 3.28176588 -0.47835901 5.10888212 -2 8 C-4.125 8.8125 -4.125 8.8125 -6 9 C-6.33 8.34 -6.66 7.68 -7 7 C-7.99 7.66 -8.98 8.32 -10 9 C-9.875 7.25 -9.875 7.25 -9 5 C-6.03950471 2.74744924 -3.5319632 1.17732107 0 0 Z " fill="#111111" transform="translate(201,230)"/>
<path d="M0 0 C7.26 0 14.52 0 22 0 C19 2 19 2 16 2 C16 2.66 16 3.32 16 4 C15.34 4 14.68 4 14 4 C13.67 4.99 13.34 5.98 13 7 C13 6.34 13 5.68 13 5 C12.34 4.67 11.68 4.34 11 4 C11 3.34 11 2.68 11 2 C7.7 1.67 4.4 1.34 1 1 C0.67 1.99 0.34 2.98 0 4 C0 2.68 0 1.36 0 0 Z " fill="#2D2D2D" transform="translate(109,42)"/>
<path d="M0 0 C-0.37596209 2.78211944 -0.67318459 4.5879284 -2.4375 6.8125 C-4 8 -4 8 -6 8 C-5.67 8.99 -5.34 9.98 -5 11 C-5.99 11.66 -6.98 12.32 -8 13 C-8 5 -8 5 -5.6875 2.3125 C-3 0 -3 0 0 0 Z " fill="#EFEFEF" transform="translate(100,232)"/>
<path d="M0 0 C2.375 0.6875 2.375 0.6875 5 2 C6.3125 4.625 6.3125 4.625 7 7 C4.03 7 1.06 7 -2 7 C-2 4 -2 4 -1 3 C-0.67 2.01 -0.34 1.02 0 0 Z " fill="#F4F4F4" transform="translate(211,57)"/>
<path d="M0 0 C2.475 0.99 2.475 0.99 5 2 C5.33 4.31 5.66 6.62 6 9 C5.01 9.33 4.02 9.66 3 10 C-0.91941982 6.69298952 -0.91941982 6.69298952 -1.3125 3.3125 C-1 1 -1 1 0 0 Z " fill="#060606" transform="translate(22,21)"/>
<path d="M0 0 C0 0.66 0 1.32 0 2 C-0.66 2 -1.32 2 -2 2 C-2 3.32 -2 4.64 -2 6 C-4.3125 7.8125 -4.3125 7.8125 -7 9 C-7.99 8.67 -8.98 8.34 -10 8 C-5.45945946 0 -5.45945946 0 0 0 Z " fill="#F8F8F8" transform="translate(84,249)"/>
<path d="M0 0 C0.66 0.33 1.32 0.66 2 1 C-0.31 3.31 -2.62 5.62 -5 8 C-6.65 7.01 -8.3 6.02 -10 5 C-10.66 5.66 -11.32 6.32 -12 7 C-12 4 -12 4 -10.5 2.3125 C-9.7575 1.6628125 -9.7575 1.6628125 -9 1 C-7.02 1.66 -5.04 2.32 -3 3 C-2.01 2.01 -1.02 1.02 0 0 Z " fill="#1C1C1C" transform="translate(213,112)"/>
<path d="M0 0 C0.66 0.33 1.32 0.66 2 1 C2 1.66 2 2.32 2 3 C2.66 3 3.32 3 4 3 C4 2.34 4 1.68 4 1 C5.32 1 6.64 1 8 1 C8.33 2.32 8.66 3.64 9 5 C8.01 5.66 7.02 6.32 6 7 C3.3125 6.125 3.3125 6.125 1 5 C0.34 5.99 -0.32 6.98 -1 8 C-1.625 5.125 -1.625 5.125 -2 2 C-1.34 1.34 -0.68 0.68 0 0 Z " fill="#F6F6F6" transform="translate(247,56)"/>
<path d="M0 0 C3.65316671 1.24976756 4.78065836 1.67098753 7 5 C6.625 8.6875 6.625 8.6875 6 12 C5.34 12 4.68 12 4 12 C4 11.01 4 10.02 4 9 C3.484375 8.525625 2.96875 8.05125 2.4375 7.5625 C1.963125 7.046875 1.48875 6.53125 1 6 C1.3125 3.8125 1.3125 3.8125 2 2 C1.34 2 0.68 2 0 2 C0 1.34 0 0.68 0 0 Z " fill="#1F1F1F" transform="translate(209,245)"/>
<path d="M0 0 C0.45375 0.495 0.9075 0.99 1.375 1.5 C2.87635519 3.22609337 2.87635519 3.22609337 5 3 C4.67 4.65 4.34 6.3 4 8 C1.66666667 8 -0.66666667 8 -3 8 C-3.36923077 3.44615385 -3.36923077 3.44615385 -1.5 1.1875 C-1.005 0.795625 -0.51 0.40375 0 0 Z " fill="#E7E7E7" transform="translate(130,198)"/>
<path d="M0 0 C1.32 0.33 2.64 0.66 4 1 C2.38113585 2.67262717 0.7547271 4.33795537 -0.875 6 C-1.77992188 6.928125 -2.68484375 7.85625 -3.6171875 8.8125 C-6 11 -6 11 -8 11 C-7.45925627 7.21479387 -5.92427254 5.40822445 -3 3 C-2.01 3 -1.02 3 0 3 C0 2.01 0 1.02 0 0 Z " fill="#DFDFDF" transform="translate(164,150)"/>
<path d="M0 0 C0.66 0.33 1.32 0.66 2 1 C2 1.66 2 2.32 2 3 C2.66 3 3.32 3 4 3 C3.67 4.32 3.34 5.64 3 7 C4.65 7 6.3 7 8 7 C8.33 8.32 8.66 9.64 9 11 C8.01 11.33 7.02 11.66 6 12 C3.47290372 9.81321095 1.07391145 7.62767838 -1 5 C-0.9375 2.0625 -0.9375 2.0625 0 0 Z " fill="#060606" transform="translate(250,264)"/>
<path d="M0 0 C0.33 1.32 0.66 2.64 1 4 C-0.98 5.32 -2.96 6.64 -5 8 C-5.99 6.68 -6.98 5.36 -8 4 C-3.375 0 -3.375 0 0 0 Z " fill="#E2E2E2" transform="translate(217,257)"/>
<path d="M0 0 C1.65 0 3.3 0 5 0 C4 2 3 4 2 6 C1.34 6 0.68 6 0 6 C0.33 7.65 0.66 9.3 1 11 C-1 9.8125 -1 9.8125 -3 8 C-3.25 5.3125 -3.25 5.3125 -3 3 C-2.01 2.67 -1.02 2.34 0 2 C0 1.34 0 0.68 0 0 Z " fill="#1A1A1A" transform="translate(95,96)"/>
<path d="M0 0 C0.33 0.66 0.66 1.32 1 2 C1.99 2.33 2.98 2.66 4 3 C3.25 5.875 3.25 5.875 2 9 C0.02 9.99 0.02 9.99 -2 11 C-2 7.7 -2 4.4 -2 1 C-1.34 0.67 -0.68 0.34 0 0 Z " fill="#4E4E4E" transform="translate(98,81)"/>
<path d="M0 0 C1.33332095 2.6666419 0.67102033 4.16680303 0 7 C-0.66 7 -1.32 7 -2 7 C-2 7.66 -2 8.32 -2 9 C-4.64 9.66 -7.28 10.32 -10 11 C-6.79239749 7.19364503 -3.59253891 3.45436433 0 0 Z " fill="#EAEAEA" transform="translate(272,54)"/>
<path d="M0 0 C3 2 3 2 3.6875 4.625 C3.790625 5.40875 3.89375 6.1925 4 7 C2.02 7.99 2.02 7.99 0 9 C-1.5625 7.25 -1.5625 7.25 -3 5 C-2.8125 2.8125 -2.8125 2.8125 -2 1 C-1.34 0.67 -0.68 0.34 0 0 Z " fill="#EEEEEE" transform="translate(36,24)"/>
<path d="M0 0 C0.99 0 1.98 0 3 0 C4 1.66666667 5 3.33333333 6 5 C6.99 5 7.98 5 9 5 C9.66 6.65 10.32 8.3 11 10 C10.01 10.33 9.02 10.66 8 11 C5.03 8.03 2.06 5.06 -1 2 C-0.67 1.34 -0.34 0.68 0 0 Z " fill="#F2F2F2" transform="translate(169,171)"/>
<path d="M0 0 C3.36179774 1.44077046 5.59156268 3.24750021 8 6 C8 6.66 8 7.32 8 8 C8.99 8.33 9.98 8.66 11 9 C10.01 9.66 9.02 10.32 8 11 C7.34 10.67 6.68 10.34 6 10 C6 9.01 6 8.02 6 7 C5.01 7.33 4.02 7.66 3 8 C0 1.125 0 1.125 0 0 Z " fill="#1B1B1B" transform="translate(110,113)"/>
<path d="M0 0 C0 2.31 0 4.62 0 7 C-2.64 7 -5.28 7 -8 7 C-4.13157895 0 -4.13157895 0 0 0 Z " fill="#F0F0F0" transform="translate(109,57)"/>
<path d="M0 0 C1.65376718 0.73233973 3.29787304 1.48652714 4.9375 2.25 C5.85402344 2.66765625 6.77054688 3.0853125 7.71484375 3.515625 C10 5 10 5 10.81640625 7.171875 C10.87699219 7.77515625 10.93757812 8.3784375 11 9 C10.2575 8.690625 9.515 8.38125 8.75 8.0625 C6.14587905 6.9235406 6.14587905 6.9235406 3.8125 6.75 C3.214375 6.5025 2.61625 6.255 2 6 C0.75 2.9375 0.75 2.9375 0 0 Z " fill="#151515" transform="translate(208,46)"/>
<path d="M0 0 C0.66 2.64 1.32 5.28 2 8 C-0.97 7.505 -0.97 7.505 -4 7 C-4.33 5.02 -4.66 3.04 -5 1 C-3 0 -3 0 0 0 Z " fill="#F2F2F2" transform="translate(189,34)"/>
<path d="M0 0 C4.0589816 -0.3183515 6.3474968 -0.39717586 9.875 1.75 C11.96374181 3.96160897 12.68151851 5.02750614 13 8 C12.01 7.67 11.02 7.34 10 7 C9.67 7.66 9.34 8.32 9 9 C9 8.34 9 7.68 9 7 C8.01 6.67 7.02 6.34 6 6 C6 4 6 4 7 3 C3.52852158 2.25042843 3.52852158 2.25042843 0 2 C0 1.34 0 0.68 0 0 Z " fill="#D8D8D8" transform="translate(205,240)"/>
<path d="M0 0 C0.33 0.99 0.66 1.98 1 3 C-3 5 -7 7 -11 9 C-11.66 7.35 -12.32 5.7 -13 4 C-10.03 4.495 -10.03 4.495 -7 5 C-6.34 3.68 -5.68 2.36 -5 1 C-3.35 1.33 -1.7 1.66 0 2 C0 1.34 0 0.68 0 0 Z " fill="#E9E9E9" transform="translate(200,228)"/>
<path d="M0 0 C1.32 0.33 2.64 0.66 4 1 C0.37 4.63 -3.26 8.26 -7 12 C-7.66 11.34 -8.32 10.68 -9 10 C-8.01 9.67 -7.02 9.34 -6 9 C-5.87625 8.4225 -5.7525 7.845 -5.625 7.25 C-4.67195801 3.81904882 -2.71311397 2.20834858 0 0 Z " fill="#E3E3E3" transform="translate(276,36)"/>
<path d="M0 0 C0.33 0.99 0.66 1.98 1 3 C3.97 3.495 3.97 3.495 7 4 C7.33 4.99 7.66 5.98 8 7 C7.360625 7.12375 6.72125 7.2475 6.0625 7.375 C5.0415625 7.684375 5.0415625 7.684375 4 8 C3.67 8.66 3.34 9.32 3 10 C3.66 10.33 4.32 10.66 5 11 C4.01 11 3.02 11 2 11 C2 12.98 2 14.96 2 17 C1.67 17 1.34 17 1 17 C0.91840426 12.83861737 1.01751476 9.0527516 2 5 C1.34 5 0.68 5 0 5 C0 3.35 0 1.7 0 0 Z " fill="#373737" transform="translate(184,38)"/>
<path d="M0 0 C1.5 1.125 1.5 1.125 3 3 C3.1875 6.1875 3.1875 6.1875 3 9 C-0.7952131 7.50902342 -2.61042731 5.24299151 -5 2 C-3.35 1.34 -1.7 0.68 0 0 Z " fill="#EFEFEF" transform="translate(285,288)"/>
<path d="M0 0 C0.33 0.66 0.66 1.32 1 2 C1.66 2.33 2.32 2.66 3 3 C-0.63 6.63 -4.26 10.26 -8 14 C-8.99 13.67 -9.98 13.34 -11 13 C-10.67 12.34 -10.34 11.68 -10 11 C-9.01 11 -8.02 11 -7 11 C-6.9175 10.38125 -6.835 9.7625 -6.75 9.125 C-6 7 -6 7 -4.0625 6.0625 C-1.73547609 5.12720697 -1.73547609 5.12720697 -0.75 2.375 C-0.37875 1.199375 -0.37875 1.199375 0 0 Z " fill="#101010" transform="translate(58,266)"/>
<path d="M0 0 C0.66 0.33 1.32 0.66 2 1 C2.39764263 2.98821313 2.72428861 4.99124558 3 7 C3.226875 7.680625 3.45375 8.36125 3.6875 9.0625 C4.1283644 11.79585931 3.15923283 13.54515402 2 16 C1.01 16 0.02 16 -1 16 C-0.7525 14.824375 -0.7525 14.824375 -0.5 13.625 C0.12960847 9.06033858 0.08180527 4.59927399 0 0 Z " fill="#1B1B1B" transform="translate(219,247)"/>
<path d="M0 0 C0 0.66 0 1.32 0 2 C0.66 2.33 1.32 2.66 2 3 C1.154375 3.9075 0.30875 4.815 -0.5625 5.75 C-2.73261875 8.18952952 -2.73261875 8.18952952 -2.8125 11.375 C-2.544375 11.91125 -2.27625 12.4475 -2 13 C-2.33 12.34 -2.66 11.68 -3 11 C-3.99 10.67 -4.98 10.34 -6 10 C-5.38909774 3.52443609 -5.38909774 3.52443609 -3.5625 1.0625 C-2 0 -2 0 0 0 Z " fill="#202020" transform="translate(166,158)"/>
<path d="M0 0 C0 1.32 0 2.64 0 4 C-2.25 6.25 -2.25 6.25 -5 8 C-6.32 8 -7.64 8 -9 8 C-8.66410006 4.86493389 -7.97334828 3.974751 -5.625 1.75 C-3 0 -3 0 0 0 Z " fill="#060606" transform="translate(70,254)"/>
<path d="M0 0 C2.125 0.375 2.125 0.375 4 1 C3 3 3 3 0 4.9375 C-3.24243221 6.72295885 -3.24243221 6.72295885 -4 10 C-5.32 9.67 -6.64 9.34 -8 9 C-7.04270084 7.87411986 -6.08412105 6.7493285 -5.125 5.625 C-4.59132812 4.99851563 -4.05765625 4.37203125 -3.5078125 3.7265625 C-2.38567993 2.44163349 -1.20628025 1.20628025 0 0 Z " fill="#DADADA" transform="translate(139,189)"/>
<path d="M0 0 C0 2.33333333 0 4.66666667 0 7 C-3.7952131 5.50902342 -5.61042731 3.24299151 -8 0 C-4.94736336 -0.98120464 -3.05263664 -0.98120464 0 0 Z " fill="#E7E7E7" transform="translate(53,42)"/>
<path d="M0 0 C1.32 0.99 2.64 1.98 4 3 C2.95125002 5.62187494 2.35068687 6.79371361 -0.125 8.25 C-0.74375 8.4975 -1.3625 8.745 -2 9 C-2.66 8.34 -3.32 7.68 -4 7 C-3.67 6.01 -3.34 5.02 -3 4 C-2.01 3.67 -1.02 3.34 0 3 C0 2.01 0 1.02 0 0 Z " fill="#191919" transform="translate(284,295)"/>
<path d="M0 0 C0.99 0.33 1.98 0.66 3 1 C3 1.66 3 2.32 3 3 C3.66 3.33 4.32 3.66 5 4 C3.35 5.98 1.7 7.96 0 10 C-2 7 -2 7 -2 4 C-1 1.8125 -1 1.8125 0 0 Z " fill="#F0F0F0" transform="translate(258,50)"/>
<path d="M0 0 C2 2 2 2 2.125 5.125 C2.08375 6.07375 2.0425 7.0225 2 8 C1.01 8 0.02 8 -1 8 C-3.1875 5.5 -3.1875 5.5 -5 3 C-3.35 2.01 -1.7 1.02 0 0 Z " fill="#E4E4E4" transform="translate(278,280)"/>
<path d="M0 0 C0.33 0.66 0.66 1.32 1 2 C1.99 2 2.98 2 4 2 C3.67 3.65 3.34 5.3 3 7 C6.63 7 10.26 7 14 7 C14 7.33 14 7.66 14 8 C9.38 8 4.76 8 0 8 C0 5.36 0 2.72 0 0 Z " fill="#3A3A3A" transform="translate(114,269)"/>
<path d="M0 0 C4.24846075 0.47205119 6.26819288 2.88877522 9 6 C9 6.66 9 7.32 9 8 C9.66 8.33 10.32 8.66 11 9 C10.34 9.66 9.68 10.32 9 11 C9 10.34 9 9.68 9 9 C8.01 8.67 7.02 8.34 6 8 C1.22727273 3.68181818 1.22727273 3.68181818 0 0 Z " fill="#E3E3E3" transform="translate(248,270)"/>
<path d="M0 0 C-0.55728913 3.34373475 -1.35173889 6.03312999 -3 9 C-3.66 9 -4.32 9 -5 9 C-5 9.66 -5 10.32 -5 11 C-5.66 11 -6.32 11 -7 11 C-7.3125 8.3125 -7.3125 8.3125 -7 5 C-2.86956522 0 -2.86956522 0 0 0 Z " fill="#F7F7F7" transform="translate(66,267)"/>
<path d="M0 0 C0.33 0.66 0.66 1.32 1 2 C2.32 1.34 3.64 0.68 5 0 C5.99 1.32 6.98 2.64 8 4 C7.01 4.495 7.01 4.495 6 5 C5.01 4.67 4.02 4.34 3 4 C2.34 5.32 1.68 6.64 1 8 C0.01 6.68 -0.98 5.36 -2 4 C-1.34 3.67 -0.68 3.34 0 3 C0 2.01 0 1.02 0 0 Z " fill="#191919" transform="translate(164,173)"/>
<path d="M0 0 C0.66 0 1.32 0 2 0 C2.3125 2.25 2.3125 2.25 2 5 C-0.5 7.3125 -0.5 7.3125 -3 9 C-3.99 8.01 -4.98 7.02 -6 6 C-5 4 -5 4 -2 2 C-1.67 2.33 -1.34 2.66 -1 3 C-0.67 2.01 -0.34 1.02 0 0 Z " fill="#050505" transform="translate(28,295)"/>
<path d="M0 0 C1.32 0 2.64 0 4 0 C3.67 1.65 3.34 3.3 3 5 C2.360625 5.103125 1.72125 5.20625 1.0625 5.3125 C0.381875 5.539375 -0.29875 5.76625 -1 6 C-1.33 6.99 -1.66 7.98 -2 9 C-3.32 7.68 -4.64 6.36 -6 5 C-5.34 5 -4.68 5 -4 5 C-3.38125 4.175 -2.7625 3.35 -2.125 2.5 C-1.42375 1.675 -0.7225 0.85 0 0 Z " fill="#030303" transform="translate(58,263)"/>
<path d="M0 0 C3.625 0.1875 3.625 0.1875 6.625 2.1875 C6.295 2.8475 5.965 3.5075 5.625 4.1875 C2.655 4.1875 -0.315 4.1875 -3.375 4.1875 C-3.705 3.1975 -4.035 2.2075 -4.375 1.1875 C-3.375 0.1875 -3.375 0.1875 0 0 Z " fill="#F6F6F6" transform="translate(207.375,240.8125)"/>
<path d="M0 0 C0 0.99 0 1.98 0 3 C0.63106429 5.01151741 1.29373761 7.01363702 2 9 C1.34 9.66 0.68 10.32 0 11 C-1.65 9.02 -3.3 7.04 -5 5 C-3.35 3.35 -1.7 1.7 0 0 Z " fill="#EEEEEE" transform="translate(167,161)"/>
<path d="M0 0 C3.82352106 1.5577308 6.29205593 3.91595258 9 7 C9 7.99 9 8.98 9 10 C8.34 10 7.68 10 7 10 C7 9.34 7 8.68 7 8 C6.34 8 5.68 8 5 8 C4.67 8.66 4.34 9.32 4 10 C3.896875 9.278125 3.79375 8.55625 3.6875 7.8125 C2.94013068 4.75508007 1.71954811 2.61670365 0 0 Z " fill="#E3E3E3" transform="translate(30,38)"/>
<path d="M0 0 C1.32 0.66 2.64 1.32 4 2 C2.63016497 5.16115776 2.0109362 5.9927092 -1 8 C-1.66 6.35 -2.32 4.7 -3 3 C-2.01 2.01 -1.02 1.02 0 0 Z " fill="#F2F2F2" transform="translate(148,164)"/>
<path d="M0 0 C4 0 4 0 7 2 C7 2.66 7 3.32 7 4 C7.66 4 8.32 4 9 4 C9 5.65 9 7.3 9 9 C7.87105124 8.06725891 6.74699124 7.12859878 5.625 6.1875 C4.99851562 5.66542969 4.37203125 5.14335938 3.7265625 4.60546875 C2 3 2 3 0 0 Z " fill="#EDEDED" transform="translate(88,88)"/>
<path d="M0 0 C2 2 2 2 2 5 C2.66 4.01 3.32 3.02 4 2 C6.475 2.99 6.475 2.99 9 4 C8.01 5.485 8.01 5.485 7 7 C3.375 7.1875 3.375 7.1875 0 7 C0 4.69 0 2.38 0 0 Z " fill="#E8E8E8" transform="translate(226,78)"/>
<path d="M0 0 C2 1 2 1 3.75 2.6875 C6.06110334 4.38662409 6.06110334 4.38662409 9.25 3.1875 C10.1575 2.795625 11.065 2.40375 12 2 C12 2.66 12 3.32 12 4 C9.69 5.32 7.38 6.64 5 8 C2.5 5.6875 2.5 5.6875 0 3 C0 2.01 0 1.02 0 0 Z " fill="#E8E8E8" transform="translate(217,48)"/>
<path d="M0 0 C0.78375 0.04125 1.5675 0.0825 2.375 0.125 C2.705 0.785 3.035 1.445 3.375 2.125 C2.715 2.125 2.055 2.125 1.375 2.125 C1.106875 2.764375 0.83875 3.40375 0.5625 4.0625 C-0.625 6.125 -0.625 6.125 -3.625 7.125 C-4.25 4.75 -4.25 4.75 -4.625 2.125 C-2.625 0.125 -2.625 0.125 0 0 Z " fill="#050505" transform="translate(274.625,43.875)"/>
<path d="M0 0 C0.66 0 1.32 0 2 0 C2 0.66 2 1.32 2 2 C2.99 2.33 3.98 2.66 5 3 C4.01 4.485 4.01 4.485 3 6 C3.66 6.33 4.32 6.66 5 7 C4.34 7 3.68 7 3 7 C2.67 7.66 2.34 8.32 2 9 C0.4375 7.3125 0.4375 7.3125 -1 5 C-0.6875 2.25 -0.6875 2.25 0 0 Z " fill="#EAEAEA" transform="translate(215,216)"/>
<path d="M0 0 C-0.7115625 0.6496875 -0.7115625 0.6496875 -1.4375 1.3125 C-3.23686957 3.02309613 -3.23686957 3.02309613 -4 6 C-5.65 5.67 -7.3 5.34 -9 5 C-9 4.34 -9 3.68 -9 3 C-9.66 2.34 -10.32 1.68 -11 1 C-7.26562152 0.12132271 -3.83225427 -0.08912219 0 0 Z " fill="#DBDBDB" transform="translate(139,48)"/>
<path d="M0 0 C3.7952131 1.49097658 5.61042731 3.75700849 8 7 C4.30581799 7 2.22163822 5.71820705 -1 4 C-0.67 2.68 -0.34 1.36 0 0 Z " fill="#191919" transform="translate(48,47)"/>
<path d="M0 0 C3 2 3 2 3.6875 4.625 C3.790625 5.40875 3.89375 6.1925 4 7 C3.34 7 2.68 7 2 7 C2.33 8.32 2.66 9.64 3 11 C2.01 11 1.02 11 0 11 C-0.88376862 6.91257012 -1.34972126 4.04916379 0 0 Z " fill="#1A1A1A" transform="translate(27,23)"/>
<path d="M0 0 C0.625 1.8125 0.625 1.8125 1 4 C0.01 5.485 0.01 5.485 -1 7 C-0.34 7.33 0.32 7.66 1 8 C-1.375 7.75 -1.375 7.75 -4 7 C-5.3125 4.9375 -5.3125 4.9375 -6 3 C-5.195625 2.690625 -4.39125 2.38125 -3.5625 2.0625 C-1.10919595 1.23664655 -1.10919595 1.23664655 0 0 Z " fill="#1A1A1A" transform="translate(198,119)"/>
<path d="M0 0 C0.99 0.33 1.98 0.66 3 1 C3 1.66 3 2.32 3 3 C3.66 3 4.32 3 5 3 C4.34 4.32 3.68 5.64 3 7 C1.02 6.34 -0.96 5.68 -3 5 C-2.01 3.35 -1.02 1.7 0 0 Z " fill="#080808" transform="translate(265,52)"/>
<path d="M0 0 C0.93065133 2.60582371 1.14917407 3.64198224 0.0625 6.25 C-0.4634375 7.11625 -0.4634375 7.11625 -1 8 C-1.66 8 -2.32 8 -3 8 C-3 7.01 -3 6.02 -3 5 C-3.66 5 -4.32 5 -5 5 C-4.625 3.0625 -4.625 3.0625 -4 1 C-2 0 -2 0 0 0 Z " fill="#050505" transform="translate(34,289)"/>
<path d="M0 0 C2.125 0.9375 2.125 0.9375 4 2 C4 5 4 5 3 7 C2.34 6.34 1.68 5.68 1 5 C0.01 5.495 0.01 5.495 -1 6 C-1.66 5.34 -2.32 4.68 -3 4 C-2.67 3.01 -2.34 2.02 -2 1 C-1.34 0.67 -0.68 0.34 0 0 Z " fill="#040404" transform="translate(271,283)"/>
<path d="M0 0 C0.33 0 0.66 0 1 0 C1.33 3.63 1.66 7.26 2 11 C-1 10 -1 10 -2 9 C-2.99 9.495 -2.99 9.495 -4 10 C-3.67 7.69 -3.34 5.38 -3 3 C-2.34 3 -1.68 3 -1 3 C-0.67 2.01 -0.34 1.02 0 0 Z " fill="#D3D3D3" transform="translate(110,253)"/>
<path d="M0 0 C-1.40844718 3.21524305 -3.10344786 5.32183868 -5.625 7.75 C-6.57246094 8.67039063 -6.57246094 8.67039063 -7.5390625 9.609375 C-8.02117187 10.06828125 -8.50328125 10.5271875 -9 11 C-9.33 10.01 -9.66 9.02 -10 8 C-9.01 7.67 -8.02 7.34 -7 7 C-6.29848848 5.6846659 -5.63474075 4.34882408 -5 3 C-2.42857143 0 -2.42857143 0 0 0 Z " fill="#292929" transform="translate(184,143)"/>
<path d="M0 0 C3.25543229 0.34879632 4.01873107 1.02133261 6.25 3.5625 C6.8275 4.366875 7.405 5.17125 8 6 C7.01 7.485 7.01 7.485 6 9 C5.34 8.67 4.68 8.34 4 8 C4.33 7.34 4.66 6.68 5 6 C3.68 5.67 2.36 5.34 1 5 C1.33 3.68 1.66 2.36 2 1 C1.34 0.67 0.68 0.34 0 0 Z " fill="#E6E6E6" transform="translate(119,134)"/>
<path d="M0 0 C0.99 0.33 1.98 0.66 3 1 C2.01 1.99 1.02 2.98 0 4 C1.32 3.67 2.64 3.34 4 3 C4.33 3.66 4.66 4.32 5 5 C3.3545622 6.68762851 1.68711423 8.3540349 0 10 C-0.33 10 -0.66 10 -1 10 C-1.02689216 8.52093108 -1.04634621 7.04172517 -1.0625 5.5625 C-1.07410156 4.73878906 -1.08570313 3.91507812 -1.09765625 3.06640625 C-1 1 -1 1 0 0 Z " fill="#E6E6E6" transform="translate(196,112)"/>
<path d="M0 0 C1.98 0.66 3.96 1.32 6 2 C6.95024979 5.69541586 6.95024979 8.30458414 6 12 C5.67 12 5.34 12 5 12 C4.7525 10.9275 4.505 9.855 4.25 8.75 C3.00116854 5.00350563 1.97511342 3.47926118 -1 1 C-0.67 0.67 -0.34 0.34 0 0 Z " fill="#1B1B1B" transform="translate(213,55)"/>
<path d="M0 0 C2.0625 0.6875 2.0625 0.6875 4 2 C4.75 4.125 4.75 4.125 5 6 C3.125 7.0625 3.125 7.0625 1 8 C0.34 7.67 -0.32 7.34 -1 7 C-0.67 6.34 -0.34 5.68 0 5 C0.09245003 3.53774984 0.09245003 3.53774984 -2 1 C-1.34 0.67 -0.68 0.34 0 0 Z " fill="#EEEEEE" transform="translate(298,8)"/>
<path d="M0 0 C0.66 0.66 1.32 1.32 2 2 C-1 5 -4 8 -7 11 C-7.99 10.67 -8.98 10.34 -10 10 C-6.7 6.7 -3.4 3.4 0 0 Z " fill="#E2E2E2" transform="translate(44,285)"/>
<path d="M0 0 C1.14926266 0.95421808 2.29430541 1.91352045 3.4375 2.875 C4.07558594 3.40867188 4.71367187 3.94234375 5.37109375 4.4921875 C7 6 7 6 8 8 C6.68 8 5.36 8 4 8 C3.67 7.34 3.34 6.68 3 6 C2.34 6.66 1.68 7.32 1 8 C0.17361624 5.10765685 0 3.11257569 0 0 Z " fill="#ECECEC" transform="translate(168,184)"/>
<path d="M0 0 C1.65 0 3.3 0 5 0 C3.02 2.31 1.04 4.62 -1 7 C-1.66 6.67 -2.32 6.34 -3 6 C-3 5.01 -3 4.02 -3 3 C-2.34 3 -1.68 3 -1 3 C-0.67 2.01 -0.34 1.02 0 0 Z " fill="#E3E3E3" transform="translate(183,130)"/>
<path d="M0 0 C0 3 0 3 -1 6 C-4.19832359 8.3454373 -7.44429241 10.26456788 -11 12 C-7.49102731 7.81576108 -3.91939465 3.80411834 0 0 Z " fill="#E5E5E5" transform="translate(208,119)"/>
<path d="M0 0 C2.25 0.125 2.25 0.125 5 1 C7.3125 4.0625 7.3125 4.0625 9 7 C8.34 7.66 7.68 8.32 7 9 C5.14453125 6.70507812 5.14453125 6.70507812 3.2890625 4.41015625 C2.0333609 2.86733563 2.0333609 2.86733563 0 2 C0 1.34 0 0.68 0 0 Z " fill="#E1E1E1" transform="translate(118,119)"/>
<path d="M0 0 C0.66 0.66 1.32 1.32 2 2 C0.8572081 3.16964602 -0.28931715 4.33564556 -1.4375 5.5 C-2.07558594 6.1496875 -2.71367188 6.799375 -3.37109375 7.46875 C-5 9 -5 9 -6 9 C-6.375 6.75 -6.375 6.75 -6 4 C-3 1.6875 -3 1.6875 0 0 Z " fill="#161616" transform="translate(83,243)"/>
<path d="M0 0 C0.86625 0.37125 0.86625 0.37125 1.75 0.75 C0.76 1.245 0.76 1.245 -0.25 1.75 C-0.25 3.07 -0.25 4.39 -0.25 5.75 C-1.24 5.75 -2.23 5.75 -3.25 5.75 C-3.91 6.41 -4.57 7.07 -5.25 7.75 C-6 6 -6 6 -6.25 3.75 C-3.25 -0.36111111 -3.25 -0.36111111 0 0 Z " fill="#EFEFEF" transform="translate(90.25,241.25)"/>
<path d="M0 0 C0.99 0.33 1.98 0.66 3 1 C3 3.31 3 5.62 3 8 C1.68 7.67 0.36 7.34 -1 7 C-0.67 4.69 -0.34 2.38 0 0 Z " fill="#E8E8E8" transform="translate(203,222)"/>
<path d="M0 0 C0.66 0.99 1.32 1.98 2 3 C-1.625 7.875 -1.625 7.875 -5 9 C-4.42647107 5.12867972 -2.51295648 2.91827204 0 0 Z " fill="#DEDEDE" transform="translate(124,204)"/>
<path d="M0 0 C0.66 0.66 1.32 1.32 2 2 C0.6875 4.5 0.6875 4.5 -1 7 C-1.99 7 -2.98 7 -4 7 C-4.66 5.68 -5.32 4.36 -6 3 C-5.01 2.34 -4.02 1.68 -3 1 C-2.34 1.33 -1.68 1.66 -1 2 C-0.67 1.34 -0.34 0.68 0 0 Z " fill="#030303" transform="translate(188,133)"/>
<path d="M0 0 C0.99 0.99 1.98 1.98 3 3 C2.34 4.65 1.68 6.3 1 8 C1.66 8.33 2.32 8.66 3 9 C2.01 9.33 1.02 9.66 0 10 C-1.125 8.375 -1.125 8.375 -2 6 C-1.125 2.75 -1.125 2.75 0 0 Z " fill="#040404" transform="translate(123,126)"/>
<path d="M0 0 C3.48624056 0.6456001 6.12498789 1.92360237 9 4 C9 4.99 9 5.98 9 7 C6.62051228 6.82374165 5.29774151 6.30280227 3.62109375 4.59765625 C2.37884514 3.09350908 1.18623944 1.54870149 0 0 Z " fill="#EBEBEB" transform="translate(59,57)"/>
<path d="M0 0 C2.475 0.99 2.475 0.99 5 2 C5 2.99 5 3.98 5 5 C5.66 5 6.32 5 7 5 C6.67 5.99 6.34 6.98 6 8 C1.3125 4.38671875 1.3125 4.38671875 0 3 C0 2.01 0 1.02 0 0 Z " fill="#191919" transform="translate(39,44)"/>
<path d="M0 0 C1.65 1.65 3.3 3.3 5 5 C3.35 4.67 1.7 4.34 0 4 C-0.66 5.32 -1.32 6.64 -2 8 C-3.32 6.35 -4.64 4.7 -6 3 C-5.195625 2.87625 -4.39125 2.7525 -3.5625 2.625 C-2.716875 2.41875 -1.87125 2.2125 -1 2 C-0.67 1.34 -0.34 0.68 0 0 Z " fill="#161616" transform="translate(22,18)"/>
<path d="M0 0 C1.98 0.66 3.96 1.32 6 2 C6.33 3.65 6.66 5.3 7 7 C4 7 4 7 1.8125 5.1875 C0 3 0 3 0 0 Z " fill="#E6E6E6" transform="translate(18,11)"/>
<path d="M0 0 C3 2 3 2 3.6875 4.125 C3.790625 4.74375 3.89375 5.3625 4 6 C1.625 7.0625 1.625 7.0625 -1 8 C-1.66 7.67 -2.32 7.34 -3 7 C-2.67 6.01 -2.34 5.02 -2 4 C-1.67 4.33 -1.34 4.66 -1 5 C-0.67 3.35 -0.34 1.7 0 0 Z " fill="#EFEFEF" transform="translate(36,400)"/>
<path d="M0 0 C1.98 1.65 3.96 3.3 6 5 C5.34 5.66 4.68 6.32 4 7 C1.375 6.625 1.375 6.625 -1 6 C-1.625 4.125 -1.625 4.125 -2 2 C-1.34 1.34 -0.68 0.68 0 0 Z " fill="#F1F1F1" transform="translate(261,282)"/>
<path d="M0 0 C3.98069267 2.87494471 6.43571997 5.82117329 9 10 C6 10 6 10 4.39453125 8.57421875 C3.61142578 7.64029297 3.61142578 7.64029297 2.8125 6.6875 C2.01779297 5.76517578 2.01779297 5.76517578 1.20703125 4.82421875 C0 3 0 3 0 0 Z " fill="#222222" transform="translate(237,253)"/>
<path d="M0 0 C0.66 0.66 1.32 1.32 2 2 C-0.97 4.475 -0.97 4.475 -4 7 C-4.99 5.68 -5.98 4.36 -7 3 C-5 2 -5 2 -2.9375 1.5 C-1.00759217 1.17692051 -1.00759217 1.17692051 0 0 Z " fill="#1B1B1B" transform="translate(271,281)"/>
<path d="M0 0 C0.66 0 1.32 0 2 0 C0.73058503 3.91402949 -0.51167694 5.79072873 -4 8 C-4.66 7.01 -5.32 6.02 -6 5 C-2.25 2 -2.25 2 0 2 C0 1.34 0 0.68 0 0 Z " fill="#E8E8E8" transform="translate(225,268)"/>
<path d="M0 0 C0.598125 0.165 1.19625 0.33 1.8125 0.5 C4.11344336 1.1114124 4.11344336 1.1114124 7 1 C3.535 3.97 3.535 3.97 0 7 C-1.125 2.25 -1.125 2.25 0 0 Z " fill="#010101" transform="translate(127,194)"/>
<path d="M0 0 C0.99 0.33 1.98 0.66 3 1 C3 2.65 3 4.3 3 6 C4.32 6.66 5.64 7.32 7 8 C5.68 8 4.36 8 3 8 C0.6875 5.6875 0.6875 5.6875 -1 3 C-0.67 2.01 -0.34 1.02 0 0 Z " fill="#F0F0F0" transform="translate(133,131)"/>
<path d="M0 0 C0.66 0.99 1.32 1.98 2 3 C1 6 1 6 -1.0625 7.1875 C-1.701875 7.455625 -2.34125 7.72375 -3 8 C-3.33 6.68 -3.66 5.36 -4 4 C-3.34 4 -2.68 4 -2 4 C-1.34 2.68 -0.68 1.36 0 0 Z " fill="#040404" transform="translate(99,98)"/>
<path d="M0 0 C1 2 1 2 0.44140625 3.9453125 C0.15136719 4.66460937 -0.13867188 5.38390625 -0.4375 6.125 C-0.72496094 6.84945312 -1.01242188 7.57390625 -1.30859375 8.3203125 C-1.53675781 8.87460938 -1.76492187 9.42890625 -2 10 C-2.66 10 -3.32 10 -4 10 C-4.25 6.6875 -4.25 6.6875 -4 3 C-2 1.0625 -2 1.0625 0 0 Z " fill="#FBFBFB" transform="translate(200,247)"/>
<path d="M0 0 C0.66 0 1.32 0 2 0 C2 1.65 2 3.3 2 5 C0.35 5.33 -1.3 5.66 -3 6 C-2.42655063 3.13275314 -2.1385485 2.1385485 0 0 Z " fill="#040404" transform="translate(203,248)"/>
<path d="M0 0 C0.99 0 1.98 0 3 0 C3 0.66 3 1.32 3 2 C3.99 1.67 4.98 1.34 6 1 C6 1.99 6 2.98 6 4 C3 6 3 6 0 6 C0 4.02 0 2.04 0 0 Z " fill="#040404" transform="translate(191,202)"/>
<path d="M0 0 C-1.46218487 4.6302521 -1.46218487 4.6302521 -4 6.375 C-6 7 -6 7 -8 6 C-7.0479279 4.99403703 -6.08812654 3.99538437 -5.125 3 C-4.59132812 2.443125 -4.05765625 1.88625 -3.5078125 1.3125 C-2 0 -2 0 0 0 Z " fill="#262626" transform="translate(216,103)"/>
<path d="M0 0 C0.66 0 1.32 0 2 0 C3.10844919 3.32534757 2.84454356 5.62182575 2 9 C1.67 8.01 1.34 7.02 1 6 C0.34 6 -0.32 6 -1 6 C-1.33 5.01 -1.66 4.02 -2 3 C-1.34 2.01 -0.68 1.02 0 0 Z " fill="#090909" transform="translate(259,57)"/>
<path d="M0 0 C0 0.99 0 1.98 0 3 C-2.66666667 3 -5.33333333 3 -8 3 C-8 2.34 -8 1.68 -8 1 C-5.29120665 -0.35439668 -2.99066732 -0.06501451 0 0 Z " fill="#202020" transform="translate(235,51)"/>
<path d="M0 0 C1.32 0.99 2.64 1.98 4 3 C3.34 4.32 2.68 5.64 2 7 C0.68 6.34 -0.64 5.68 -2 5 C-1.34 3.35 -0.68 1.7 0 0 Z " fill="#040404" transform="translate(30,27)"/>
<path d="M0 0 C0.33 0 0.66 0 1 0 C1.66 3.3 2.32 6.6 3 10 C2.01 9.34 1.02 8.68 0 8 C-0.99 8 -1.98 8 -3 8 C-3 7.34 -3 6.68 -3 6 C-2.34 6 -1.68 6 -1 6 C-0.67 4.02 -0.34 2.04 0 0 Z " fill="#E4E4E4" transform="translate(199,251)"/>
<path d="M0 0 C0.33 0.99 0.66 1.98 1 3 C1.66 3 2.32 3 3 3 C2.67 5.31 2.34 7.62 2 10 C1.34 10 0.68 10 0 10 C0 6.7 0 3.4 0 0 Z " fill="#1D1D1D" transform="translate(184,248)"/>
<path d="M0 0 C1.98 0 3.96 0 6 0 C5.67 0.99 5.34 1.98 5 3 C4.34 3 3.68 3 3 3 C2.67 3.66 2.34 4.32 2 5 C1.01 5 0.02 5 -1 5 C-0.67 3.35 -0.34 1.7 0 0 Z " fill="#090909" transform="translate(167,177)"/>
<path d="M0 0 C2.375 -0.1875 2.375 -0.1875 5 0 C5.66 0.99 6.32 1.98 7 3 C6.67 3.66 6.34 4.32 6 5 C4 4 2 3 0 2 C0 1.34 0 0.68 0 0 Z " fill="#030303" transform="translate(116,123)"/>
<path d="M0 0 C1.65 0 3.3 0 5 0 C5 0.66 5 1.32 5 2 C5.66 2.33 6.32 2.66 7 3 C6.34 4.65 5.68 6.3 5 8 C4.67 8 4.34 8 4 8 C4 5.69 4 3.38 4 1 C2.02 1.99 2.02 1.99 0 3 C0 2.01 0 1.02 0 0 Z " fill="#2A2A2A" transform="translate(105,56)"/>
<path d="M0 0 C0.33 0.66 0.66 1.32 1 2 C2.97888961 2.72693904 4.97954558 3.39816251 7 4 C6.67 5.65 6.34 7.3 6 9 C3.35247996 6.42215154 1.05567935 4.08351902 -1 1 C-0.67 0.67 -0.34 0.34 0 0 Z " fill="#EBEBEB" transform="translate(265,272)"/>
<path d="M0 0 C0.66 0 1.32 0 2 0 C2.66 1.98 3.32 3.96 4 6 C1 6 1 6 -0.6875 4.5 C-1.120625 4.005 -1.55375 3.51 -2 3 C-1.34 2.01 -0.68 1.02 0 0 Z " fill="#F3F3F3" transform="translate(228,264)"/>
<path d="M0 0 C1.98 1.65 3.96 3.3 6 5 C4.25 5.75 4.25 5.75 2 6 C-0.25 4.0625 -0.25 4.0625 -2 2 C-1.34 1.34 -0.68 0.68 0 0 Z " fill="#131313" transform="translate(226,234)"/>
<path d="M0 0 C0 3.58912412 -0.66436554 4.10857029 -3 6.6875 C-3.556875 7.31011719 -4.11375 7.93273437 -4.6875 8.57421875 C-5.120625 9.04472656 -5.55375 9.51523438 -6 10 C-6.99 9.67 -7.98 9.34 -9 9 C-6.03 6.03 -3.06 3.06 0 0 Z " fill="#D1D1D1" transform="translate(196,131)"/>
<path d="M0 0 C0.598125 0.20625 1.19625 0.4125 1.8125 0.625 C0.1625 2.275 -1.4875 3.925 -3.1875 5.625 C-3.8475 4.305 -4.5075 2.985 -5.1875 1.625 C-2.1875 -0.375 -2.1875 -0.375 0 0 Z " fill="#E5E5E5" transform="translate(246.1875,68.375)"/>
<path d="M0 0 C2.97 0.495 2.97 0.495 6 1 C5.01 1.495 5.01 1.495 4 2 C4.33 2.99 4.66 3.98 5 5 C3.68 5.33 2.36 5.66 1 6 C0.67 4.02 0.34 2.04 0 0 Z " fill="#EFEFEF" transform="translate(34,338)"/>
<path d="M0 0 C0.33 0.66 0.66 1.32 1 2 C-1.02882906 4.94180214 -3.05819786 6.97117094 -6 9 C-6.66 8.67 -7.32 8.34 -8 8 C-5.36 5.36 -2.72 2.72 0 0 Z " fill="#E0E0E0" transform="translate(53,276)"/>
<path d="M0 0 C0.66 0.99 1.32 1.98 2 3 C2.99 3.33 3.98 3.66 5 4 C3.35 5.32 1.7 6.64 0 8 C-0.98120464 4.94736336 -0.98120464 3.05263664 0 0 Z " fill="#E6E6E6" transform="translate(169,141)"/>
<path d="M0 0 C0.99 0 1.98 0 3 0 C4.20272819 2.40545638 4.10071472 3.94996953 4.0625 6.625 C4.05347656 7.44226563 4.04445313 8.25953125 4.03515625 9.1015625 C4.02355469 9.72804688 4.01195313 10.35453125 4 11 C3.67 11 3.34 11 3 11 C2.54427083 8.98177083 2.08854167 6.96354167 1.6328125 4.9453125 C1.09525572 2.79280036 1.09525572 2.79280036 -1 1 C-0.67 0.67 -0.34 0.34 0 0 Z " fill="#CFCFCF" transform="translate(95,109)"/>
<path d="M0 0 C3 0 3 0 6 2 C6 2.66 6 3.32 6 4 C3.33333333 4 0.66666667 4 -2 4 C-1.34 2.68 -0.68 1.36 0 0 Z " fill="#F7F7F7" transform="translate(243,65)"/>
<path d="M0 0 C0.66 0.33 1.32 0.66 2 1 C1.67 2.32 1.34 3.64 1 5 C-0.98 5.33 -2.96 5.66 -5 6 C-3.35 4.02 -1.7 2.04 0 0 Z " fill="#2C2C2C" transform="translate(256,60)"/>
<path d="M0 0 C1.37562854 1.28965176 2.70766393 2.62689293 4 4 C4 4.66 4 5.32 4 6 C2.02 6 0.04 6 -2 6 C-1.34 4.02 -0.68 2.04 0 0 Z " fill="#EBEBEB" transform="translate(214,58)"/>
<path d="M0 0 C2.33944736 0.28730055 4.6739143 0.61936779 7 1 C6 3 6 3 2.9375 4.125 C1.4834375 4.558125 1.4834375 4.558125 0 5 C-0.5625 3.0625 -0.5625 3.0625 -1 1 C-0.67 0.67 -0.34 0.34 0 0 Z " fill="#EFEFEF" transform="translate(197,51)"/>
<path d="M0 0 C0.66 0.66 1.32 1.32 2 2 C-1.465 4.97 -1.465 4.97 -5 8 C-5.33 7.01 -5.66 6.02 -6 5 C-5.01 5 -4.02 5 -3 5 C-2.5359375 4.0409375 -2.5359375 4.0409375 -2.0625 3.0625 C-1 1 -1 1 0 0 Z " fill="#222222" transform="translate(276,47)"/>
<path d="M0 0 C1.32 0 2.64 0 4 0 C4 0.66 4 1.32 4 2 C3.34 2 2.68 2 2 2 C2 3.32 2 4.64 2 6 C1.34 5.67 0.68 5.34 0 5 C0.33 4.34 0.66 3.68 1 3 C0.34 3 -0.32 3 -1 3 C-1.33 3.66 -1.66 4.32 -2 5 C-1.125 1.125 -1.125 1.125 0 0 Z " fill="#ECECEC" transform="translate(80,249)"/>
<path d="M0 0 C0.99 0.33 1.98 0.66 3 1 C0.69 3.31 -1.62 5.62 -4 8 C-4.33 7.34 -4.66 6.68 -5 6 C-3.625 4 -3.625 4 -2 2 C-1.34 2 -0.68 2 0 2 C0 1.34 0 0.68 0 0 Z " fill="#E6E6E6" transform="translate(126,190)"/>
<path d="M0 0 C0.66 0.33 1.32 0.66 2 1 C-1.465 3.97 -1.465 3.97 -5 7 C-5 4 -5 4 -3.625 2.375 C-2 1 -2 1 0 0 Z " fill="#E7E7E7" transform="translate(142,175)"/>
<path d="M0 0 C1.65 1.65 3.3 3.3 5 5 C4.34 5 3.68 5 3 5 C2.67 5.99 2.34 6.98 2 8 C-0.1519437 4.77208445 -0.20086443 3.71599191 0 0 Z " fill="#D9D9D9" transform="translate(106,118)"/>
<path d="M0 0 C2.64 0 5.28 0 8 0 C6.71937515 1.7074998 5.38232443 3.37373596 4 5 C3.34 5 2.68 5 2 5 C1.34 3.35 0.68 1.7 0 0 Z " fill="#EEEEEE" transform="translate(291,16)"/>
<path d="M0 0 C1.21816406 0.03480469 1.21816406 0.03480469 2.4609375 0.0703125 C3.68683594 0.09738281 3.68683594 0.09738281 4.9375 0.125 C5.87722656 0.15980469 5.87722656 0.15980469 6.8359375 0.1953125 C6.8359375 0.5253125 6.8359375 0.8553125 6.8359375 1.1953125 C5.629375 1.3809375 5.629375 1.3809375 4.3984375 1.5703125 C3.5528125 1.7765625 2.7071875 1.9828125 1.8359375 2.1953125 C1.5059375 2.8553125 1.1759375 3.5153125 0.8359375 4.1953125 C-1.6390625 3.2053125 -1.6390625 3.2053125 -4.1640625 2.1953125 C-2.1640625 0.1953125 -2.1640625 0.1953125 0 0 Z " fill="#C3C3C3" transform="translate(203.1640625,275.8046875)"/>
<path d="M0 0 C1.65 1.65 3.3 3.3 5 5 C4.34 5.66 3.68 6.32 3 7 C2.67 6.01 2.34 5.02 2 4 C1.01 4 0.02 4 -1 4 C-0.67 2.68 -0.34 1.36 0 0 Z " fill="#212121" transform="translate(186,192)"/>
<path d="M0 0 C0.66 0.33 1.32 0.66 2 1 C1.34 2.32 0.68 3.64 0 5 C-0.99 5 -1.98 5 -3 5 C-3.33 5.66 -3.66 6.32 -4 7 C-3.43628586 3.73045798 -2.50037734 2.17424117 0 0 Z " fill="#0F0F0F" transform="translate(148,171)"/>
<path d="M0 0 C3.39914975 1.13304992 4.05254451 2.12518475 6 5 C5.01 5.495 5.01 5.495 4 6 C1.375 4.5625 1.375 4.5625 -1 3 C-0.67 2.01 -0.34 1.02 0 0 Z " fill="#1B1B1B" transform="translate(181,137)"/>
<path d="M0 0 C0.99 0 1.98 0 3 0 C3.1875 2.375 3.1875 2.375 3 5 C2.01 5.66 1.02 6.32 0 7 C0 4.69 0 2.38 0 0 Z " fill="#292929" transform="translate(215,115)"/>
<path d="M0 0 C0.33 0.99 0.66 1.98 1 3 C-0.375 4.5 -0.375 4.5 -2 6 C-2.66 6 -3.32 6 -4 6 C-4.33 6.66 -4.66 7.32 -5 8 C-5 5 -5 5 -2.5 2.3125 C-1.675 1.549375 -0.85 0.78625 0 0 Z " fill="#E5E5E5" transform="translate(215,112)"/>
<path d="M0 0 C1.5625 1.1875 1.5625 1.1875 3 3 C2.6875 5.6875 2.6875 5.6875 2 8 C0 5 0 5 0 3 C-0.99 2.67 -1.98 2.34 -3 2 C-2.01 2 -1.02 2 0 2 C0 1.34 0 0.68 0 0 Z " fill="#E7E7E7" transform="translate(64,73)"/>
<path d="M0 0 C1.33332095 2.6666419 0.67102033 4.16680303 0 7 C-1.32 6.67 -2.64 6.34 -4 6 C-2.84826645 3.53199953 -1.95216435 1.95216435 0 0 Z " fill="#F1F1F1" transform="translate(272,54)"/>
<path d="M0 0 C2.475 0.495 2.475 0.495 5 1 C4.67 1.99 4.34 2.98 4 4 C3.34 4 2.68 4 2 4 C1.67 4.66 1.34 5.32 1 6 C0.67 4.02 0.34 2.04 0 0 Z " fill="#E6E6E6" transform="translate(124,50)"/>
<path d="M0 0 C1.32 1.32 2.64 2.64 4 4 C3.67 4.66 3.34 5.32 3 6 C2.01 6 1.02 6 0 6 C-0.66 5.34 -1.32 4.68 -2 4 C-1.34 2.68 -0.68 1.36 0 0 Z " fill="#E6E6E6" transform="translate(187,266)"/>
<path d="M0 0 C0.33 0.66 0.66 1.32 1 2 C1.66 2 2.32 2 3 2 C2.34 3.65 1.68 5.3 1 7 C0.01 6.34 -0.98 5.68 -2 5 C-1.125 1.125 -1.125 1.125 0 0 Z " fill="#020202" transform="translate(249,68)"/>
<path d="M0 0 C0.99 0.33 1.98 0.66 3 1 C2.67 2.32 2.34 3.64 2 5 C0.0625 4.625 0.0625 4.625 -2 4 C-2.33 3.34 -2.66 2.68 -3 2 C-2.01 2 -1.02 2 0 2 C0 1.34 0 0.68 0 0 Z " fill="#1B1B1B" transform="translate(235,68)"/>
<path d="M0 0 C1.32 0 2.64 0 4 0 C4.33 1.32 4.66 2.64 5 4 C4.01 4.66 3.02 5.32 2 6 C1.34 4.02 0.68 2.04 0 0 Z " fill="#F0F0F0" transform="translate(251,57)"/>
</svg>
