<?xml version="1.0" encoding="UTF-8"?>
<svg version="1.1" xmlns="http://www.w3.org/2000/svg" width="446" height="464">
<path d="M0 0 C0.73492676 0.20286621 1.46985352 0.40573242 2.22705078 0.61474609 C6.58255751 1.85164801 10.7899318 3.3387555 15 5 C15.63663574 5.24975586 16.27327148 5.49951172 16.92919922 5.75683594 C56.4571892 21.49099809 89.05481075 53.24412278 106.28759766 92.09521484 C123.88786637 133.39170051 124.45212715 178.71838321 108.15380859 220.52661133 C101.33590724 237.34907637 91.82414074 252.22883094 80 266 C79.27941406 266.84433594 78.55882812 267.68867188 77.81640625 268.55859375 C49.30862241 301.1316587 8.81763881 319.46606282 -34 323 C-73.68314884 325.50837053 -115.13852691 313.33281348 -146 288 C-146.82661133 287.33145996 -146.82661133 287.33145996 -147.66992188 286.64941406 C-180.97280355 259.60242487 -203.14305875 220.8653303 -208 178 C-208.16628906 176.54787109 -208.16628906 176.54787109 -208.3359375 175.06640625 C-212.57676554 131.91311552 -199.61065015 88.89356778 -172.4375 55.1875 C-170.96985311 53.44854514 -169.49080135 51.71914593 -168 50 C-167.2471875 49.12472656 -166.494375 48.24945313 -165.71875 47.34765625 C-161.13061275 42.12315065 -156.40468194 37.37211792 -151 33 C-150.05511719 32.22914062 -149.11023438 31.45828125 -148.13671875 30.6640625 C-140.20511222 24.31408182 -131.87258926 18.93838324 -123 14 C-121.33710938 13.07380859 -121.33710938 13.07380859 -119.640625 12.12890625 C-83.52770664 -6.90243218 -39.23916531 -11.09017407 0 0 Z M-156.25 57.375 C-183.07735257 88.06619386 -196.95788505 127.3448037 -194.7890625 168.125 C-191.80522289 208.45048135 -173.54429646 245.47057949 -143.29663086 272.30566406 C-118.07608888 293.96372317 -85.4289053 307.860941 -52 309 C-50.89269531 309.03996094 -49.78539062 309.07992188 -48.64453125 309.12109375 C-24.23886378 309.55828695 -1.02637295 304.4795297 21 294 C21.66725098 293.68691895 22.33450195 293.37383789 23.02197266 293.05126953 C57.63810721 276.5511741 84.64005007 244.89745317 97.38964844 208.97583008 C102.39405038 194.16667139 105.33765813 179.64782671 106 164 C106.04125 163.14921875 106.0825 162.2984375 106.125 161.421875 C107.1424473 119.96089745 89.93360059 81.8648353 62 52 C34.9895815 24.63980629 -2.76446924 8.96666058 -41.05731201 8.63671875 C-85.62593487 8.4113698 -125.57678842 24.7367858 -156.25 57.375 Z " fill="#0F0F0F" transform="translate(264,27)"/>
<path d="M0 0 C40.59 0 81.18 0 123 0 C123 5.94 123 11.88 123 18 C89.01 18 55.02 18 20 18 C20 40.77 20 63.54 20 87 C49.37 87 78.74 87 109 87 C109 92.94 109 98.88 109 105 C79.63 105 50.26 105 20 105 C20 127.44 20 149.88 20 173 C53.99 173 87.98 173 123 173 C123 178.94 123 184.88 123 191 C82.41 191 41.82 191 0 191 C0 127.97 0 64.94 0 0 Z " fill="#0A0A0A" transform="translate(162,89)"/>
<path d="M0 0 C2.79200351 2.39314587 4.92924893 4.97153434 7.1875 7.875 C8.239375 6.4828125 8.239375 6.4828125 9.3125 5.0625 C12.51710009 1.2866063 15.51383378 -0.76644542 20.546875 -1.44140625 C26.63996844 -1.727597 30.36017832 -0.89031091 35.1875 2.875 C39.15161409 8.46764635 39.74436762 12.55407512 39.578125 19.30859375 C39.57246521 20.18653091 39.56680542 21.06446808 39.56097412 21.9690094 C39.53872853 24.7507468 39.48855591 27.53115732 39.4375 30.3125 C39.41741965 32.20766358 39.39917158 34.10284752 39.3828125 35.99804688 C39.3389027 40.62420284 39.26995882 45.24937709 39.1875 49.875 C35.2275 49.875 31.2675 49.875 27.1875 49.875 C27.17291748 48.87122314 27.15833496 47.86744629 27.14331055 46.83325195 C27.08517948 43.0962425 27.00794835 39.35982631 26.92504883 35.62329102 C26.8918689 34.00848037 26.86381542 32.39355569 26.84106445 30.77856445 C26.80738975 28.45214408 26.75507037 26.12676217 26.69921875 23.80078125 C26.69282883 23.08287918 26.6864389 22.36497711 26.67985535 21.62532043 C26.55244624 17.24625232 25.91733403 14.34498706 23.1875 10.875 C21.01996199 10.23585391 21.01996199 10.23585391 18.6875 10.5 C17.9140625 10.53351563 17.140625 10.56703125 16.34375 10.6015625 C14.00830448 10.8267501 14.00830448 10.8267501 11.1875 11.875 C9.37087303 16.71666594 8.90141946 21.1992352 8.7734375 26.33984375 C8.75407135 27.01801651 8.7347052 27.69618927 8.7147522 28.39491272 C8.65558001 30.53398566 8.60882481 32.67311428 8.5625 34.8125 C8.52426255 36.27411036 8.48520758 37.73569957 8.4453125 39.19726562 C8.34993181 42.75631543 8.26567433 46.31552587 8.1875 49.875 C4.2275 49.875 0.2675 49.875 -3.8125 49.875 C-3.83755615 48.90675293 -3.8626123 47.93850586 -3.88842773 46.94091797 C-3.98300706 43.32898015 -4.08310183 39.71721215 -4.18481445 36.10546875 C-4.22797308 34.54593901 -4.26966056 32.98636781 -4.30981445 31.42675781 C-4.36798213 29.17760758 -4.43153923 26.92866241 -4.49609375 24.6796875 C-4.51280624 23.9888205 -4.52951874 23.29795349 -4.54673767 22.58615112 C-4.66711593 18.60136037 -5.06404219 14.79041988 -5.8125 10.875 C-9.71931804 10.01550003 -12.22368061 9.68250135 -16.0625 10.9375 C-19.42736985 13.30820376 -20.26633264 15.07882748 -21.8125 18.875 C-22.3105407 22.44520649 -22.3105407 22.44520649 -22.32421875 26.2421875 C-22.34216995 26.92177521 -22.36012115 27.60136292 -22.37861633 28.30154419 C-22.43236817 30.45096819 -22.46649936 32.60017477 -22.5 34.75 C-22.53320438 36.21617587 -22.5676969 37.68232317 -22.60351562 39.1484375 C-22.68807198 42.72374948 -22.75505006 46.29913792 -22.8125 49.875 C-26.7725 49.875 -30.7325 49.875 -34.8125 49.875 C-34.8125 33.375 -34.8125 16.875 -34.8125 -0.125 C-31.1825 -0.125 -27.5525 -0.125 -23.8125 -0.125 C-23.4825 2.185 -23.1525 4.495 -22.8125 6.875 C-21.7296875 5.7303125 -21.7296875 5.7303125 -20.625 4.5625 C-14.51317847 -1.27768502 -8.14215756 -3.25686302 0 0 Z " fill="#0E0E0E" transform="translate(238.8125,384.125)"/>
<path d="M0 0 C14.52 0 29.04 0 44 0 C44 3.3 44 6.6 44 10 C33.77 10 23.54 10 13 10 C13 15.61 13 21.22 13 27 C15.58134766 26.98259766 15.58134766 26.98259766 18.21484375 26.96484375 C20.45572809 26.95546766 22.69661359 26.94636727 24.9375 26.9375 C26.07380859 26.92912109 27.21011719 26.92074219 28.38085938 26.91210938 C29.46044922 26.90888672 30.54003906 26.90566406 31.65234375 26.90234375 C33.15269165 26.89448853 33.15269165 26.89448853 34.68334961 26.88647461 C37 27 37 27 38 28 C38.0979057 29.49738124 38.12974864 30.99942892 38.125 32.5 C38.12886719 33.72203125 38.12886719 33.72203125 38.1328125 34.96875 C38 37 38 37 37 38 C35.21928754 38.08726223 33.4351686 38.10699041 31.65234375 38.09765625 C30.57275391 38.09443359 29.49316406 38.09121094 28.38085938 38.08789062 C27.24455078 38.07951172 26.10824219 38.07113281 24.9375 38.0625 C23.79732422 38.05798828 22.65714844 38.05347656 21.48242188 38.04882812 C18.65492582 38.0369976 15.82745655 38.0190615 13 38 C13 43.94 13 49.88 13 56 C23.23 56 33.46 56 44 56 C44 59.63 44 63.26 44 67 C29.48 67 14.96 67 0 67 C0 44.89 0 22.78 0 0 Z " fill="#141414" transform="translate(27,367)"/>
<path d="M0 0 C3.63 0 7.26 0 11 0 C11.33 12.87 11.66 25.74 12 39 C19.9622625 30.35464281 19.9622625 30.35464281 27.375 21.25 C30.10209908 18.14041162 31.3344476 17.11909092 35.44921875 16.3828125 C38.69715445 16.37578994 41.78535212 16.55283105 45 17 C40.84542161 22.91712679 36.22741666 28.01139933 31 33 C32.37268636 35.91776086 33.74832898 38.83411719 35.125 41.75 C35.73589478 43.04550781 35.73589478 43.04550781 36.35913086 44.3671875 C39.13028354 50.22304336 41.99613547 56.01159721 45.00390625 61.75 C46 64 46 64 46 67 C42.04 67 38.08 67 34 67 C30.04 59.08 26.08 51.16 22 43 C20.35 44.65 18.7 46.3 17 48 C16.0925 48.825 15.185 49.65 14.25 50.5 C10.45199301 55.00045969 11.0913175 61.40472759 11 67 C7.37 67 3.74 67 0 67 C0 44.89 0 22.78 0 0 Z " fill="#111111" transform="translate(377,367)"/>
<path d="M0 0 C3.13828981 3.34076012 4.10540384 6.4875738 4.20532227 11.01245117 C4.2352401 12.2133564 4.2352401 12.2133564 4.26576233 13.43852234 C4.28247482 14.29798965 4.29918732 15.15745697 4.31640625 16.04296875 C4.33718735 16.9265657 4.35796844 17.81016266 4.37937927 18.72053528 C4.44475754 21.54277785 4.50370528 24.36511335 4.5625 27.1875 C4.60569637 29.10092106 4.64931102 31.01433273 4.69335938 32.92773438 C4.80042695 37.61839437 4.90172752 42.30914783 5 47 C1.37 47 -2.26 47 -6 47 C-6.66 44.69 -7.32 42.38 -8 40 C-8.53109375 40.49371094 -9.0621875 40.98742187 -9.609375 41.49609375 C-10.31578125 42.13675781 -11.0221875 42.77742188 -11.75 43.4375 C-12.44609375 44.07558594 -13.1421875 44.71367187 -13.859375 45.37109375 C-17.91270313 48.45546935 -22.01547693 48.33230154 -27 48 C-32.52400144 46.68869498 -35.85246106 44.91016074 -39 40 C-40.9805192 36.0389616 -40.40971675 31.31731379 -40 27 C-37.70146351 21.3581377 -33.76590116 19.38511797 -28.4375 16.96875 C-21.83422852 14.34437287 -15.00313581 14.89801259 -8 15 C-8.32960216 9.98464948 -8.32960216 9.98464948 -11 6 C-15.41052915 4.80529455 -19.63869959 4.52577883 -23.9375 6.1875 C-27.37618912 7.84913164 -27.37618912 7.84913164 -29 12 C-32.3 11.67 -35.6 11.34 -39 11 C-38.67809735 5.68860627 -35.8233087 2.41818989 -32 -1 C-22.8063728 -6.27782302 -8.66791166 -6.11852587 0 0 Z M-26.703125 26.38671875 C-28.89566236 29.11418239 -28.35815385 31.65723072 -28 35 C-27.06402685 37.01951062 -27.06402685 37.01951062 -25 38 C-20.81668533 39.12627703 -18.42015656 39.12604697 -14.25 37.875 C-10.6457889 35.79564744 -9.43323316 34.87816033 -8 31 C-7.77674631 27.9810013 -7.82233861 25.02024365 -8 22 C-14.80652222 21.57459236 -21.16130387 21.87445613 -26.703125 26.38671875 Z " fill="#161616" transform="translate(328,387)"/>
<path d="M0 0 C6.04053505 3.57168566 9.37432403 8.81047208 11.5625 15.375 C12.11494296 18.69952283 12.53665334 22.00201144 12.5625 25.375 C11.5625 26.375 11.5625 26.375 8.41967773 26.48852539 C7.02847303 26.48836633 5.63726239 26.48267506 4.24609375 26.47265625 C3.51503922 26.4712413 2.78398468 26.46982635 2.03077698 26.46836853 C-0.31285632 26.46275408 -2.65639539 26.45019922 -5 26.4375 C-6.58528508 26.43248686 -8.17057166 26.42792363 -9.75585938 26.42382812 C-13.6497761 26.41277997 -17.54362205 26.39550572 -21.4375 26.375 C-21.15610467 27.823386 -20.86359481 29.26961564 -20.56640625 30.71484375 C-20.40470947 31.52042725 -20.2430127 32.32601074 -20.07641602 33.15600586 C-19.52711771 35.60202543 -19.52711771 35.60202543 -17.375 37.9375 C-13.32396329 39.91992222 -9.86193716 40.32881888 -5.4375 39.375 C-2.68180553 37.19340855 -1.00161253 35.50322506 0.5625 32.375 C2.02172693 32.48909593 3.47990598 32.61665544 4.9375 32.75 C5.74960938 32.81960938 6.56171875 32.88921875 7.3984375 32.9609375 C9.5625 33.375 9.5625 33.375 11.5625 35.375 C7.48831762 42.51782188 3.62758116 47.12177945 -4.3359375 49.8359375 C-10.96220582 51.53561227 -17.39957147 50.44274466 -23.4375 47.375 C-29.15238328 43.09712799 -32.48055371 38.13560677 -33.90234375 31.0625 C-35.03637246 22.90768682 -34.07995088 14.33867632 -29.4375 7.375 C-21.3899025 -0.9000296 -11.29400908 -5.15316004 0 0 Z M-18.4375 9.375 C-21.04441129 12.76398468 -21.4375 14.00234613 -21.4375 18.375 C-14.5075 18.375 -7.5775 18.375 -0.4375 18.375 C-0.71519302 11.70910726 -0.71519302 11.70910726 -3.625 9 C-9.26909037 5.73897001 -12.97026843 5.73017895 -18.4375 9.375 Z " fill="#151515" transform="translate(158.4375,384.625)"/>
<path d="M0 0 C0 4.29 0 8.58 0 13 C-1.423125 13.37125 -2.84625 13.7425 -4.3125 14.125 C-7.9227922 15.32087387 -8.77833529 15.67442996 -11 18.9375 C-12.47579618 23.45712579 -13.1525805 27.30377445 -13.31640625 32.078125 C-13.35830078 33.23828125 -13.40019531 34.3984375 -13.44335938 35.59375 C-13.50233398 37.40359375 -13.50233398 37.40359375 -13.5625 39.25 C-13.60568359 40.47203125 -13.64886719 41.6940625 -13.69335938 42.953125 C-13.79937355 45.9686392 -13.90143936 48.98423448 -14 52 C-15.81242052 52.02687279 -17.62495233 52.04633715 -19.4375 52.0625 C-20.44683594 52.07410156 -21.45617187 52.08570313 -22.49609375 52.09765625 C-25 52 -25 52 -26 51 C-26.09831146 49.50129952 -26.12798456 47.99801461 -26.12939453 46.49609375 C-26.13254669 45.53840088 -26.13569885 44.58070801 -26.13894653 43.59399414 C-26.1369223 42.55235107 -26.13489807 41.51070801 -26.1328125 40.4375 C-26.13376923 39.37587646 -26.13472595 38.31425293 -26.13571167 37.22045898 C-26.13639364 34.97086528 -26.13453819 32.72126963 -26.13037109 30.47167969 C-26.1250231 27.01492929 -26.13031554 23.55830883 -26.13671875 20.1015625 C-26.13605797 17.92187471 -26.13477682 15.742187 -26.1328125 13.5625 C-26.13483673 12.52085693 -26.13686096 11.47921387 -26.13894653 10.40600586 C-26.13579437 9.44831299 -26.13264221 8.49062012 -26.12939453 7.50390625 C-26.12859894 6.65642822 -26.12780334 5.8089502 -26.12698364 4.93579102 C-26 3 -26 3 -25 2 C-23.31391034 1.92794489 -21.62499341 1.91613932 -19.9375 1.9375 C-19.01839844 1.94652344 -18.09929687 1.95554687 -17.15234375 1.96484375 C-16.44207031 1.97644531 -15.73179687 1.98804688 -15 2 C-14.67 4.31 -14.34 6.62 -14 9 C-13.62488281 8.51789063 -13.24976563 8.03578125 -12.86328125 7.5390625 C-9.06019084 2.84507182 -6.35109305 0 0 0 Z " fill="#171717" transform="translate(370,382)"/>
<path d="M0 0 C1.093125 0.0825 2.18625 0.165 3.3125 0.25 C1.86258002 5.0470658 -0.15888983 9.39510702 -2.46875 13.82421875 C-2.8383786 14.54118423 -3.2080072 15.25814972 -3.58883667 15.99684143 C-4.78415993 18.31261021 -5.98567527 20.62509965 -7.1875 22.9375 C-8.0154369 24.53793068 -8.84307252 26.13851726 -9.67041016 27.73925781 C-14.50664864 37.08764771 -19.37250857 46.42035811 -24.296875 55.72265625 C-27.32642818 61.44819782 -30.31793286 67.19360667 -33.3125 72.9375 C-33.84665527 73.96198242 -34.38081055 74.98646484 -34.93115234 76.04199219 C-36.18354897 78.44451532 -37.43568391 80.84717434 -38.6875 83.25 C-41.3275 83.25 -43.9675 83.25 -46.6875 83.25 C-45.39026853 79.07153695 -43.80935882 75.29991554 -41.78125 71.42578125 C-41.20761719 70.32492187 -40.63398437 69.2240625 -40.04296875 68.08984375 C-39.43066406 66.92582031 -38.81835938 65.76179688 -38.1875 64.5625 C-37.54780518 63.338736 -36.90848603 62.11477556 -36.26953125 60.890625 C-34.41480455 57.34060622 -32.55206825 53.79485986 -30.6875 50.25 C-30.22214844 49.36489746 -29.75679687 48.47979492 -29.27734375 47.56787109 C-27.6983405 44.56640372 -26.11875345 41.56526873 -24.53295898 38.56738281 C-22.0150946 33.80059719 -19.53226779 29.01652241 -17.06640625 24.22265625 C-16.42907339 22.98565805 -15.7917035 21.74867894 -15.15429688 20.51171875 C-14.20859515 18.67627113 -13.26417935 16.8402232 -12.32397461 15.00195312 C-11.44970375 13.29260368 -10.57063825 11.58570915 -9.69140625 9.87890625 C-8.93065796 8.3949939 -8.93065796 8.3949939 -8.15454102 6.88110352 C-4.48743364 0.30423279 -4.48743364 0.30423279 0 0 Z " fill="#1C1C1C" transform="translate(114.6875,366.75)"/>
<path d="M0 0 C8.25 0 16.5 0 25 0 C25 3.3 25 6.6 25 10 C16.75 10 8.5 10 0 10 C0 6.7 0 3.4 0 0 Z " fill="#1B1B1B" transform="translate(173,403)"/>
<path d="M0 0 C0.89203125 0.01804687 1.7840625 0.03609375 2.703125 0.0546875 C3.71632812 0.08949219 3.71632812 0.08949219 4.75 0.125 C4.75 0.455 4.75 0.785 4.75 1.125 C4.16992188 1.15078125 3.58984375 1.1765625 2.9921875 1.203125 C-4.64004666 1.75728062 -9.02907042 4.50246045 -14.25 10.125 C-14.25 7.125 -14.25 7.125 -12 4.5625 C-7.94752401 0.97053264 -5.42491652 -0.14276096 0 0 Z " fill="#424242" transform="translate(231.25,382.875)"/>
</svg>
