<?xml version="1.0" encoding="UTF-8"?>
<svg version="1.1" xmlns="http://www.w3.org/2000/svg" width="204" height="192">
<path d="M0 0 C2.31 0 4.62 0 7 0 C7 8.58 7 17.16 7 26 C19.87 26 32.74 26 46 26 C46 17.42 46 8.84 46 0 C48.31 0 50.62 0 53 0 C53 8.58 53 17.16 53 26 C65.87 26 78.74 26 92 26 C92 17.42 92 8.84 92 0 C94.31 0 96.62 0 99 0 C99 8.58 99 17.16 99 26 C102.526875 25.8453125 102.526875 25.8453125 106.125 25.6875 C114.49266797 25.52011084 114.49266797 25.52011084 117.875 28.375 C120.57473665 31.70996881 121.12553636 33.16954667 121.09765625 37.3515625 C121.09515869 38.11807129 121.09266113 38.88458008 121.09008789 39.67431641 C121.08098389 40.64804199 121.07187988 41.62176758 121.0625 42.625 C121.041875 45.71875 121.02125 48.8125 121 52 C130.57 52 140.14 52 150 52 C150 53.98 150 55.96 150 58 C140.76 58.33 131.52 58.66 122 59 C121.67 70.22 121.34 81.44 121 93 C130.57 93 140.14 93 150 93 C150 94.98 150 96.96 150 99 C140.76 99.33 131.52 99.66 122 100 C122 110.89 122 121.78 122 133 C131.24 133.33 140.48 133.66 150 134 C150 135.98 150 137.96 150 140 C140.43 140 130.86 140 121 140 C121.19672032 145.98384599 121.19672032 145.98384599 121.45043945 151.96533203 C121.52142297 156.26555928 121.3837988 159.14069839 118.60546875 162.5546875 C112.55264817 168.23544565 112.24253578 166 101 166 C101 174.58 101 183.16 101 192 C98.69 192 96.38 192 94 192 C94 183.42 94 174.84 94 166 C81.13 166 68.26 166 55 166 C55 174.58 55 183.16 55 192 C52.69 192 50.38 192 48 192 C48 183.42 48 174.84 48 166 C35.13 166 22.26 166 9 166 C9 174.58 9 183.16 9 192 C6.69 192 4.38 192 2 192 C2 183.42 2 174.84 2 166 C-2.29 166 -6.58 166 -11 166 C-16.10046676 162.93971994 -17.10906311 162.30940585 -19 157 C-19.32677217 154.02336445 -19.28552975 151.11447369 -19.1875 148.125 C-19.125625 145.44375 -19.06375 142.7625 -19 140 C-28.57 140 -38.14 140 -48 140 C-48 138.02 -48 136.04 -48 134 C-38.43 134 -28.86 134 -19 134 C-19 122.45 -19 110.9 -19 99 C-28.57 99 -38.14 99 -48 99 C-48 97.02 -48 95.04 -48 93 C-38.43 93 -28.86 93 -19 93 C-19 81.45 -19 69.9 -19 58 C-28.57 58 -38.14 58 -48 58 C-48 56.02 -48 54.04 -48 52 C-38.43 52 -28.86 52 -19 52 C-19.11807776 46.63002131 -19.11807776 46.63002131 -19.27026367 41.26098633 C-19.33602277 35.31226233 -17.92060668 32.22070148 -14 27.6875 C-11 26 -11 26 0 26 C0 17.42 0 8.84 0 0 Z M-12 35 C-12.30404855 37.23479642 -12.30404855 37.23479642 -12.25396729 39.85864258 C-12.25960693 40.88502838 -12.26524658 41.91141418 -12.27105713 42.96890259 C-12.26700867 44.09936005 -12.26296021 45.2298175 -12.25878906 46.39453125 C-12.2622937 47.58154633 -12.26579834 48.7685614 -12.26940918 49.99154663 C-12.27671779 53.25184375 -12.27498438 56.51197924 -12.26865101 59.77227402 C-12.2635968 63.17997332 -12.26828084 66.58766162 -12.27142334 69.99536133 C-12.27506468 75.71860704 -12.2702595 81.44180118 -12.26074219 87.16503906 C-12.24985728 93.78726109 -12.25338275 100.40935998 -12.264395 107.03157902 C-12.27346311 112.71144447 -12.2747555 118.3912728 -12.26951766 124.07114315 C-12.26639532 127.46603858 -12.2659958 130.86087608 -12.27259064 134.25576782 C-12.27764614 138.03908725 -12.26995919 141.82216724 -12.25878906 145.60546875 C-12.26283752 146.73592621 -12.26688599 147.86638367 -12.27105713 149.03109741 C-12.26541748 150.05748322 -12.25977783 151.08386902 -12.25396729 152.14135742 C-12.25321323 153.03658615 -12.25245918 153.93181488 -12.25168228 154.85417175 C-12.19970762 157.2135733 -12.19970762 157.2135733 -10 159 C-7.76520358 159.30404855 -7.76520358 159.30404855 -5.14135742 159.25396729 C-4.11497162 159.25960693 -3.08858582 159.26524658 -2.03109741 159.27105713 C-0.90063995 159.26700867 0.2298175 159.26296021 1.39453125 159.25878906 C2.58154633 159.2622937 3.7685614 159.26579834 4.99154663 159.26940918 C8.25184375 159.27671779 11.51197924 159.27498438 14.77227402 159.26865101 C18.17997332 159.2635968 21.58766162 159.26828084 24.99536133 159.27142334 C30.71860704 159.27506468 36.44180118 159.2702595 42.16503906 159.26074219 C48.78726109 159.24985728 55.40935998 159.25338275 62.03157902 159.264395 C67.71144447 159.27346311 73.3912728 159.2747555 79.07114315 159.26951766 C82.46603858 159.26639532 85.86087608 159.2659958 89.25576782 159.27259064 C93.03908725 159.27764614 96.82216724 159.26995919 100.60546875 159.25878906 C101.73592621 159.26283752 102.86638367 159.26688599 104.03109741 159.27105713 C105.57067612 159.26259766 105.57067612 159.26259766 107.14135742 159.25396729 C108.03658615 159.25321323 108.93181488 159.25245918 109.85417175 159.25168228 C112.2135733 159.19970762 112.2135733 159.19970762 114 157 C114.30404855 154.76520358 114.30404855 154.76520358 114.25396729 152.14135742 C114.25960693 151.11497162 114.26524658 150.08858582 114.27105713 149.03109741 C114.26700867 147.90063995 114.26296021 146.7701825 114.25878906 145.60546875 C114.2622937 144.41845367 114.26579834 143.2314386 114.26940918 142.00845337 C114.27671779 138.74815625 114.27498438 135.48802076 114.26865101 132.22772598 C114.2635968 128.82002668 114.26828084 125.41233838 114.27142334 122.00463867 C114.27506468 116.28139296 114.2702595 110.55819882 114.26074219 104.83496094 C114.24985728 98.21273891 114.25338275 91.59064002 114.264395 84.96842098 C114.27346311 79.28855553 114.2747555 73.6087272 114.26951766 67.92885685 C114.26639532 64.53396142 114.2659958 61.13912392 114.27259064 57.74423218 C114.27764614 53.96091275 114.26995919 50.17783276 114.25878906 46.39453125 C114.26283752 45.26407379 114.26688599 44.13361633 114.27105713 42.96890259 C114.26541748 41.94251678 114.25977783 40.91613098 114.25396729 39.85864258 C114.25321323 38.96341385 114.25245918 38.06818512 114.25168228 37.14582825 C114.19970762 34.7864267 114.19970762 34.7864267 112 33 C109.76520358 32.69595145 109.76520358 32.69595145 107.14135742 32.74603271 C106.11497162 32.74039307 105.08858582 32.73475342 104.03109741 32.72894287 C102.90063995 32.73299133 101.7701825 32.73703979 100.60546875 32.74121094 C99.41845367 32.7377063 98.2314386 32.73420166 97.00845337 32.73059082 C93.74815625 32.72328221 90.48802076 32.72501562 87.22772598 32.73134899 C83.82002668 32.7364032 80.41233838 32.73171916 77.00463867 32.72857666 C71.28139296 32.72493532 65.55819882 32.7297405 59.83496094 32.73925781 C53.21273891 32.75014272 46.59064002 32.74661725 39.96842098 32.735605 C34.28855553 32.72653689 28.6087272 32.7252445 22.92885685 32.73048234 C19.53396142 32.73360468 16.13912392 32.7340042 12.74423218 32.72740936 C8.96091275 32.72235386 5.17783276 32.73004081 1.39453125 32.74121094 C-0.30115494 32.73513824 -0.30115494 32.73513824 -2.03109741 32.72894287 C-3.57067612 32.73740234 -3.57067612 32.73740234 -5.14135742 32.74603271 C-6.48420052 32.74716379 -6.48420052 32.74716379 -7.85417175 32.74831772 C-10.2135733 32.80029238 -10.2135733 32.80029238 -12 35 Z " fill="#232323" transform="translate(51,0)"/>
<path d="M0 0 C0.33 0 0.66 0 1 0 C1.00423194 0.61752608 1.00846388 1.23505217 1.01282406 1.87129116 C1.11599444 16.87635876 1.22461148 31.88137611 1.33933926 46.88635921 C1.39468781 54.14256597 1.44817243 61.39877764 1.49731445 68.6550293 C1.54013636 74.97736939 1.58640922 81.29967304 1.63687855 87.62195688 C1.66349563 90.97154607 1.68834901 94.32112795 1.70907402 97.6707592 C1.73303965 101.40417429 1.76310458 105.13749223 1.79467773 108.87084961 C1.80331093 110.54858963 1.80331093 110.54858963 1.81211853 112.26022339 C1.82190735 113.27129654 1.83169617 114.28236969 1.84178162 115.32408142 C1.84823417 116.20808089 1.85468672 117.09208036 1.8613348 118.0028677 C1.78039507 119.99920523 1.78039507 119.99920523 3 121 C4.61507125 121.09602237 6.23435729 121.12187864 7.85227966 121.12025452 C8.90253326 121.12162918 9.95278687 121.12300385 11.03486633 121.12442017 C12.19697128 121.12082489 13.35907623 121.11722961 14.55639648 121.11352539 C15.77252625 121.11367142 16.98865601 121.11381744 18.24163818 121.1139679 C21.58667186 121.11338887 24.93164449 121.10835858 28.27666736 121.10139394 C31.7711181 121.09515778 35.26556958 121.0945563 38.76002502 121.09336853 C45.38394447 121.09025497 52.0078475 121.08204218 58.6317597 121.07201904 C66.16269548 121.06086849 73.693632 121.0553485 81.22457397 121.05032361 C96.08456704 121.04029018 110.94454446 121.02380285 125.80452633 121.00279331 C127.20301673 121.00101401 128.60150847 121 130 121 C132.93447357 118.06552643 132.46158423 114.81740544 132.625 110.875 C132.68300781 109.74384766 132.68300781 109.74384766 132.7421875 108.58984375 C132.83651031 106.72696816 132.91934662 104.86351745 133 103 C133.33 103 133.66 103 134 103 C134.13558695 106.04317386 134.23437239 109.08025562 134.3125 112.125 C134.3753418 113.40890625 134.3753418 113.40890625 134.43945312 114.71875 C134.52386769 119.10830724 134.44503851 122.06544754 131.60546875 125.5546875 C125.55264817 131.23544565 125.24253578 129 114 129 C114 137.58 114 146.16 114 155 C111.69 155 109.38 155 107 155 C107 146.42 107 137.84 107 129 C94.13 129 81.26 129 68 129 C68 137.58 68 146.16 68 155 C65.69 155 63.38 155 61 155 C61 146.42 61 137.84 61 129 C48.13 129 35.26 129 22 129 C22 137.58 22 146.16 22 155 C19.69 155 17.38 155 15 155 C15 146.42 15 137.84 15 129 C10.71 129 6.42 129 2 129 C-3.10046676 125.93971994 -4.10906311 125.30940585 -6 120 C-6.32677217 117.02336445 -6.28552975 114.11447369 -6.1875 111.125 C-6.125625 108.44375 -6.06375 105.7625 -6 103 C-15.57 103 -25.14 103 -35 103 C-35 101.02 -35 99.04 -35 97 C-25.43 97 -15.86 97 -6 97 C-6 85.45 -6 73.9 -6 62 C-5.67 62 -5.34 62 -5 62 C-5 73.55 -5 85.1 -5 97 C-4.34 97 -3.68 97 -3 97 C-2.505 95.515 -2.505 95.515 -2 94 C-1.67 94 -1.34 94 -1 94 C-0.67 62.98 -0.34 31.96 0 0 Z " fill="#2D2D2D" transform="translate(38,37)"/>
<path d="M0 0 C0.66 0.33 1.32 0.66 2 1 C1.93886145 13.46517988 1.86180786 25.93014912 1.76428509 38.39510059 C1.71950734 44.18273853 1.68026759 49.97030485 1.65356445 55.75805664 C1.62760533 61.34081758 1.58725555 66.92330406 1.53681374 72.50589561 C1.5200949 74.63856283 1.50861198 76.77127757 1.50238609 78.90400124 C1.49279949 81.88526998 1.46480569 84.86582853 1.43237305 87.84692383 C1.43380814 88.7338089 1.43524323 89.62069397 1.4367218 90.53445435 C1.42418365 91.34633713 1.41164551 92.15821991 1.39872742 92.9947052 C1.39181397 94.05246265 1.39181397 94.05246265 1.38476086 95.13158894 C0.88325619 97.56691169 -0.06316759 98.48732546 -2 100 C-2.66 100 -3.32 100 -4 100 C-4 88.45 -4 76.9 -4 65 C-13.9 65 -23.8 65 -34 65 C-34 63.02 -34 61.04 -34 59 C-24.43 59 -14.86 59 -5 59 C-5 47.45 -5 35.9 -5 24 C-14.57 24 -24.14 24 -34 24 C-34 22.02 -34 20.04 -34 18 C-24.1 18 -14.2 18 -4 18 C-4 13.05 -4 8.1 -4 3 C-2.68 2.01 -1.36 1.02 0 0 Z " fill="#0D0D0D" transform="translate(37,34)"/>
<path d="M0 0 C3.6796875 0.3828125 3.6796875 0.3828125 5.796875 2.515625 C6.37695312 3.50304687 6.95703125 4.49046875 7.5546875 5.5078125 C8.21210938 6.58804688 8.86953125 7.66828125 9.546875 8.78125 C9.8881543 9.36229492 10.22943359 9.94333984 10.58105469 10.54199219 C12.52338536 13.79647513 14.61494001 16.95520942 16.6796875 20.1328125 C18.01595864 22.21428058 19.34774534 24.29856967 20.6796875 26.3828125 C20.70474365 25.6307251 20.7297998 24.8786377 20.75561523 24.10375977 C20.87119264 20.71742054 20.99409095 17.33138637 21.1171875 13.9453125 C21.15650391 12.76130859 21.19582031 11.57730469 21.23632812 10.35742188 C21.27822266 9.23271484 21.32011719 8.10800781 21.36328125 6.94921875 C21.39993896 5.90709229 21.43659668 4.86496582 21.47436523 3.79125977 C21.6796875 1.3828125 21.6796875 1.3828125 22.6796875 0.3828125 C24.9896875 0.3828125 27.2996875 0.3828125 29.6796875 0.3828125 C29.6796875 13.9128125 29.6796875 27.4428125 29.6796875 41.3828125 C21.6796875 41.3828125 21.6796875 41.3828125 19.2109375 38.99609375 C18.540625 37.90683594 17.8703125 36.81757812 17.1796875 35.6953125 C16.81367432 35.11821533 16.44766113 34.54111816 16.07055664 33.9465332 C14.91274958 32.10751692 13.79652382 30.24693309 12.6796875 28.3828125 C11.89975533 27.12857537 11.11722845 25.87594777 10.33203125 24.625 C8.41180331 21.56400239 6.54980304 18.47700367 4.6796875 15.3828125 C4.3496875 23.9628125 4.0196875 32.5428125 3.6796875 41.3828125 C1.0396875 41.3828125 -1.6003125 41.3828125 -4.3203125 41.3828125 C-4.34495955 35.70451172 -4.36314712 30.02624181 -4.37524414 24.34790039 C-4.38028506 22.41462665 -4.38711769 20.48135674 -4.39575195 18.5480957 C-4.40782815 15.77554378 -4.41354307 13.00304209 -4.41796875 10.23046875 C-4.42313004 9.36067886 -4.42829132 8.49088898 -4.43360901 7.59474182 C-4.43380435 5.52375436 -4.38239418 3.45286926 -4.3203125 1.3828125 C-3.3203125 0.3828125 -3.3203125 0.3828125 0 0 Z " fill="#2C2C2C" transform="translate(126.3203125,71.6171875)"/>
<path d="M0 0 C3.14904366 2.5460353 5.03860529 4.80507795 6.9375 8.375 C6.9375 9.365 6.9375 10.355 6.9375 11.375 C1.70673077 11.81828553 1.70673077 11.81828553 -1.0625 11.375 C-1.84625 10.55 -2.63 9.725 -3.4375 8.875 C-6.3991898 6.05434305 -7.13633461 5.9456885 -11.0625 5.8125 C-14.59032873 5.99125734 -16.00576357 6.34142129 -19.125 8.1875 C-22.71898848 12.24522893 -22.33882767 16.47597584 -22.27734375 21.640625 C-21.99698287 25.20885434 -21.20076587 27.49940107 -19.0625 30.375 C-15.3088396 32.91424086 -11.49247588 32.58812583 -7.15625 31.98828125 C-3.89526514 31.03310471 -2.65519493 29.28339944 -1.0625 26.375 C-1.0625 25.385 -1.0625 24.395 -1.0625 23.375 C-2.361875 23.395625 -3.66125 23.41625 -5 23.4375 C-6.35415633 23.45899454 -7.71006083 23.44648199 -9.0625 23.375 C-10.0625 22.375 -10.0625 22.375 -10.125 19.3125 C-10.104375 18.343125 -10.08375 17.37375 -10.0625 16.375 C-7.24993719 16.34815688 -4.43762759 16.32823812 -1.625 16.3125 C-0.82255859 16.30412109 -0.02011719 16.29574219 0.80664062 16.28710938 C2.85045221 16.2784857 4.89433902 16.3227185 6.9375 16.375 C7.9375 17.375 7.9375 17.375 8.05102539 19.50805664 C8.04578857 20.42449951 8.04055176 21.34094238 8.03515625 22.28515625 C8.03193359 23.27451172 8.02871094 24.26386719 8.02539062 25.28320312 C8.01282227 26.84458008 8.01282227 26.84458008 8 28.4375 C7.99548828 29.48228516 7.99097656 30.52707031 7.98632812 31.60351562 C7.97449913 34.1940666 7.95801689 36.78450559 7.9375 39.375 C5.6275 39.375 3.3175 39.375 0.9375 39.375 C0.6075 38.055 0.2775 36.735 -0.0625 35.375 C-0.825625 36.014375 -1.58875 36.65375 -2.375 37.3125 C-6.66133571 40.60201345 -10.79820332 41.04243761 -16.0625 40.375 C-21.95005241 38.48102634 -25.61744131 35.44126277 -29.0625 30.375 C-32.07932388 24.05403569 -32.08866324 16.64222871 -29.8125 10.0625 C-27.76886071 5.36969868 -25.5450458 2.2897623 -21.125 -0.4375 C-14.76077874 -2.82923758 -6.12106007 -3.15968327 0 0 Z " fill="#222222" transform="translate(78.0625,73.625)"/>
<path d="M0 0 C3.12708574 2.74804505 4.88759309 5.01012081 5.30200195 9.28051758 C5.35774936 12.23411194 5.3236873 15.1718399 5.25 18.125 C5.22969727 19.66510742 5.22969727 19.66510742 5.20898438 21.23632812 C5.17373883 23.76225909 5.124467 26.2871066 5.0625 28.8125 C2.7525 28.8125 0.4425 28.8125 -1.9375 28.8125 C-2.2675 28.1525 -2.5975 27.4925 -2.9375 26.8125 C-3.576875 27.328125 -4.21625 27.84375 -4.875 28.375 C-9.13750486 30.37576759 -12.45708566 30.12502644 -16.9375 28.8125 C-20 26.6875 -20 26.6875 -21.9375 23.8125 C-22.5625 20.3125 -22.5625 20.3125 -21.9375 16.8125 C-19.39612841 13.65295695 -17.79127341 12.09709114 -13.9375 10.8125 C-12.04279184 10.7439505 -10.1458166 10.72769628 -8.25 10.75 C-7.25613281 10.75902344 -6.26226562 10.76804687 -5.23828125 10.77734375 C-4.09939453 10.79474609 -4.09939453 10.79474609 -2.9375 10.8125 C-3.2675 9.4925 -3.5975 8.1725 -3.9375 6.8125 C-8.41883574 6.08993171 -8.41883574 6.08993171 -12.9375 5.8125 C-13.2675 7.1325 -13.5975 8.4525 -13.9375 9.8125 C-15.9175 9.8125 -17.8975 9.8125 -19.9375 9.8125 C-20.75 8.1875 -20.75 8.1875 -20.9375 5.8125 C-15.72322253 -1.57439308 -8.48739165 -3.43107322 0 0 Z M-13.9375 17.8125 C-13.6075 19.4625 -13.2775 21.1125 -12.9375 22.8125 C-10.11097829 23.96404588 -9.12424892 23.89067396 -6.25 22.6875 C-3.71761712 20.99274759 -3.71761712 20.99274759 -3.125 18.125 C-3.063125 17.361875 -3.00125 16.59875 -2.9375 15.8125 C-4.8246875 15.750625 -4.8246875 15.750625 -6.75 15.6875 C-7.45769531 15.66429688 -8.16539063 15.64109375 -8.89453125 15.6171875 C-11.25109719 15.67995538 -11.25109719 15.67995538 -13.9375 17.8125 Z " fill="#202020" transform="translate(111.9375,84.1875)"/>
<path d="M0 0 C2.31 0 4.62 0 7 0 C7 13.53 7 27.06 7 41 C-1 41 -1 41 -2.84204102 39.70239258 C-3.22545654 39.10579834 -3.60887207 38.5092041 -4.00390625 37.89453125 C-4.43380859 37.24033203 -4.86371094 36.58613281 -5.30664062 35.91210938 C-5.72107422 35.21923828 -6.13550781 34.52636719 -6.5625 33.8125 C-7.01173828 33.13896484 -7.46097656 32.46542969 -7.92382812 31.77148438 C-11.06087326 26.8169832 -11.06087326 26.8169832 -10.77734375 23.01171875 C-10.52082031 22.34785156 -10.26429688 21.68398437 -10 21 C-9.01 20.67 -8.02 20.34 -7 20 C-3.125 23.75 -3.125 23.75 -2 26 C-1.97494385 25.2479126 -1.9498877 24.4958252 -1.92407227 23.72094727 C-1.80849486 20.33460804 -1.68559655 16.94857387 -1.5625 13.5625 C-1.52318359 12.37849609 -1.48386719 11.19449219 -1.44335938 9.97460938 C-1.40146484 8.84990234 -1.35957031 7.72519531 -1.31640625 6.56640625 C-1.27974854 5.52427979 -1.24309082 4.48215332 -1.20532227 3.40844727 C-1 1 -1 1 0 0 Z " fill="#232323" transform="translate(149,72)"/>
<path d="M0 0 C2.81256281 -0.02684312 5.62487241 -0.04676188 8.4375 -0.0625 C9.23994141 -0.07087891 10.04238281 -0.07925781 10.86914062 -0.08789062 C12.91295221 -0.0965143 14.95683902 -0.0522815 17 0 C18 1 18 1 18.11352539 3.13305664 C18.10828857 4.04949951 18.10305176 4.96594238 18.09765625 5.91015625 C18.09443359 6.89951172 18.09121094 7.88886719 18.08789062 8.90820312 C18.07951172 9.94912109 18.07113281 10.99003906 18.0625 12.0625 C18.05798828 13.10728516 18.05347656 14.15207031 18.04882812 15.22851562 C18.03699913 17.8190666 18.02051689 20.40950559 18 23 C15.69 23 13.38 23 11 23 C10.66376204 21.7090864 10.33110751 20.41723903 10 19.125 C9.814375 18.40570313 9.62875 17.68640625 9.4375 16.9453125 C8.70543525 13.69023888 9 10.32891972 9 7 C7.700625 7.020625 6.40125 7.04125 5.0625 7.0625 C3.70834367 7.08399454 2.35243917 7.07148199 1 7 C0 6 0 6 -0.0625 2.9375 C-0.041875 1.968125 -0.02125 0.99875 0 0 Z " fill="#303030" transform="translate(68,90)"/>
<path d="M0 0 C0.61875 0.495 1.2375 0.99 1.875 1.5 C0.885 1.83 -0.105 2.16 -1.125 2.5 C-1.455 5.47 -1.785 8.44 -2.125 11.5 C-2.86105469 11.56058594 -3.59710938 11.62117188 -4.35546875 11.68359375 C-5.33128906 11.76738281 -6.30710937 11.85117188 -7.3125 11.9375 C-8.27542969 12.01871094 -9.23835938 12.09992188 -10.23046875 12.18359375 C-12.91149602 12.47666151 -15.4912986 12.92703754 -18.125 13.5 C-17.125 11.5 -17.125 11.5 -14.125 10.5 C-12.23029184 10.4314505 -10.3333166 10.41519628 -8.4375 10.4375 C-7.44363281 10.44652344 -6.44976562 10.45554687 -5.42578125 10.46484375 C-4.28689453 10.48224609 -4.28689453 10.48224609 -3.125 10.5 C-3.455 9.18 -3.785 7.86 -4.125 6.5 C-8.60633574 5.77743171 -8.60633574 5.77743171 -13.125 5.5 C-13.455 6.82 -13.785 8.14 -14.125 9.5 C-16.105 9.5 -18.085 9.5 -20.125 9.5 C-20.9375 7.875 -20.9375 7.875 -21.125 5.5 C-15.91990587 -1.87388335 -8.34298034 -4.00463056 0 0 Z " fill="#3F3F3F" transform="translate(112.125,84.5)"/>
<path d="M0 0 C4.05928044 0.92256374 5.71365184 1.64583254 8.375 4.9375 C10 8 10 8 10 11 C4.79411765 11.44117647 4.79411765 11.44117647 2 11 C0.33333333 9.33333333 -1.33333333 7.66666667 -3 6 C-5.99369289 5.27948408 -8.92719384 5.07364023 -12 5 C-12 4.67 -12 4.34 -12 4 C-10.95199219 3.94392578 -10.95199219 3.94392578 -9.8828125 3.88671875 C-8.97273438 3.82097656 -8.06265625 3.75523438 -7.125 3.6875 C-6.22007813 3.62949219 -5.31515625 3.57148437 -4.3828125 3.51171875 C-1.63778399 3.2117961 -1.63778399 3.2117961 0 0 Z " fill="#393939" transform="translate(75,74)"/>
<path d="M0 0 C0.33 0 0.66 0 1 0 C1 8.91 1 17.82 1 27 C-3.95 27.495 -3.95 27.495 -9 28 C-11.96163935 30.63386664 -11.96163935 30.63386664 -13 33.0625 C-14 35 -14 35 -17 37 C-17.38411275 39.609621 -17.60293197 42.0058074 -17.6875 44.625 C-17.72166016 45.33140625 -17.75582031 46.0378125 -17.79101562 46.765625 C-17.87351308 48.50985688 -17.93843335 50.25490395 -18 52 C-18.33 52 -18.66 52 -19 52 C-19.08126109 49.27022936 -19.14061663 46.5428983 -19.1875 43.8125 C-19.21263672 43.04357422 -19.23777344 42.27464844 -19.26367188 41.48242188 C-19.34159083 35.43071624 -17.99742571 32.30952347 -14 27.6875 C-11 26 -11 26 0 26 C0 17.42 0 8.84 0 0 Z " fill="#747474" transform="translate(51,0)"/>
<path d="M0 0 C0.33 0 0.66 0 1 0 C1.05791844 3.12492251 1.09356746 6.24970766 1.125 9.375 C1.14175781 10.26445312 1.15851563 11.15390625 1.17578125 12.0703125 C1.18222656 12.92109375 1.18867188 13.771875 1.1953125 14.6484375 C1.20578613 15.43395996 1.21625977 16.21948242 1.22705078 17.02880859 C1 19 1 19 -1 21 C-1.5625 19.0625 -1.5625 19.0625 -2 17 C-1.67 16.67 -1.34 16.34 -1 16 C-0.76321284 13.30764224 -0.57801975 10.63501844 -0.4375 7.9375 C-0.39431641 7.17888672 -0.35113281 6.42027344 -0.30664062 5.63867188 C-0.20026367 3.75934562 -0.09960066 1.87969756 0 0 Z " fill="#787878" transform="translate(171,140)"/>
</svg>
